<svg>
<metadata>
Created by FontForge 20120731 at Sat Nov 25 12:38:10 2017 By www-data Copyright (c) 2000 by Henrik Kubel, A2/SW/HK. All rights reserved.
</metadata>
<defs>
<font id="Typewriter-Medium" horiz-adv-x="880">
<font-face font-family="Typewriter" font-weight="600" font-stretch="normal" units-per-em="2048" panose-1="2 0 6 3 3 0 0 2 0 3" ascent="1536" descent="-512" x-height="971" cap-height="1434" bbox="-469 -907 2976 2150" underline-thickness="40" underline-position="-231" unicode-range="U+0020-FB06"/>
<missing-glyph horiz-adv-x="450"/>
<glyph glyph-name="f_f" unicode="ff" horiz-adv-x="1677" d="M1219 1073v-102h309q35 0 57.5 -22t22.5 -56q0 -31 -22.5 -53.5t-57.5 -22.5h-309v-665h299q35 0 57 -21.5t22 -54.5t-22 -54.5t-57 -21.5h-1397q-34 0 -56 22t-22 54t22 54t56 22h217v665h-197q-33 0 -55.5 22.5t-22.5 53.5q0 34 22 56t56 22h197v110q0 210 114.5 332.5 t309.5 122.5q98 0 158 -27q45 -20 45 -65q0 -30 -20 -50t-56 -20q-15 0 -57 7.5t-60 7.5q-270 0 -270 -336v-82h553v110q0 220 119.5 347.5t320.5 127.5q171 0 275 -79.5t104 -192.5q0 -67 -44 -111.5t-106 -44.5q-61 0 -104 40t-43 96q0 34 16.5 64.5t46.5 47.5 q-48 35 -143 35q-128 0 -203 -82t-75 -256zM1055 152v665h-553v-665h553z"/>
<glyph glyph-name="f_f_i" unicode="ffi" horiz-adv-x="2437" d="M934 1438q10 -17 10 -33q0 -23 -17.5 -42.5t-45.5 -19.5q-15 0 -50.5 7.5t-52.5 7.5q-276 0 -276 -332v-55h596v110q0 219 122.5 347t323.5 128q169 0 271 -79.5t102 -192.5q0 -63 -45 -109.5t-105 -46.5t-99.5 38t-39.5 94q0 31 14.5 63.5t43.5 52.5q-51 35 -142 35 q-129 0 -204.5 -82t-75.5 -256v-102h786q34 0 57 -22t23 -56v-741h215q32 0 55 -22t23 -54t-23 -54t-55 -22h-578q-32 0 -53.5 22t-21.5 54t21.5 54t53.5 22h197v665h-700v-665h237q34 0 56 -22t22 -54t-22 -54t-56 -22h-1380q-34 0 -56 22t-22 54t22 54t56 22h217v665h-197 q-33 0 -55.5 22.5t-22.5 53.5q0 34 22 56t56 22h197v65q0 221 113.5 345t316.5 124q129 0 166 -67zM502 152h596v665h-596v-665z"/>
<glyph glyph-name="f_f_l" unicode="ffl" horiz-adv-x="2465" d="M1055 971v90q0 221 122.5 353t325.5 132q99 0 180 -30t129 -82h244q34 0 57 -22t23 -56v-1204h240q32 0 55 -22t23 -54t-23 -54t-55 -22h-656q-32 0 -53.5 22t-21.5 54t21.5 54t53.5 22h250v1128h-96q0 -65 -42 -113.5t-106 -48.5q-60 0 -102.5 39.5t-42.5 97.5 q0 77 61 115q-42 31 -131 31q-136 0 -214 -86t-78 -262v-82h309q35 0 57.5 -22t22.5 -56q0 -31 -22.5 -53.5t-57.5 -22.5h-309v-665h299q35 0 57 -21.5t22 -54.5t-22 -54.5t-57 -21.5h-1397q-34 0 -56 22t-22 54t22 54t56 22h217v665h-197q-33 0 -55.5 22.5t-22.5 53.5 q0 34 22 56t56 22h197v110q0 210 114.5 332.5t309.5 122.5q98 0 158 -27q45 -20 45 -65q0 -30 -20 -50t-56 -20q-15 0 -57 7.5t-60 7.5q-270 0 -270 -336v-82h553zM1055 152v665h-553v-665h553z"/>
<glyph glyph-name="f_b" unicode="fb" horiz-adv-x="2217" d="M1358 1356v-520q52 72 135.5 113.5t183.5 41.5q139 0 243 -68t157 -181.5t53 -254.5q0 -219 -125.5 -363t-331.5 -144q-103 0 -184.5 40t-128.5 113v-74q0 -34 -24.5 -56.5t-59.5 -22.5t-58.5 22.5t-23.5 56.5v1221h-37q0 -65 -41.5 -113.5t-105.5 -48.5 q-61 0 -103.5 39.5t-42.5 97.5q0 77 62 115q-42 31 -131 31q-137 0 -215 -86t-78 -262v-82h309q35 0 57.5 -22t22.5 -56q0 -31 -22.5 -53.5t-57.5 -22.5h-309v-665h299q35 0 57.5 -21.5t22.5 -54.5t-23 -54.5t-59 -21.5h-678q-34 0 -56 22t-22 54t22 54t56 22h217v665h-197 q-33 0 -55.5 22.5t-22.5 53.5q0 34 22 56t56 22h197v90q0 221 122.5 353t325.5 132q101 0 181.5 -30t128.5 -82h184q33 0 55.5 -22.5t22.5 -55.5zM1960 483q0 150 -80 253.5t-219 103.5t-221 -104t-82 -253q0 -148 81 -251t220 -103t220 103t81 251z"/>
<glyph glyph-name="f_f_b" unicode="ffb" horiz-adv-x="2934" d="M2677 483q0 150 -80 253.5t-219 103.5t-221 -104t-82 -253q0 -148 81 -251t220 -103t220 103t81 251zM1055 971v90q0 221 122.5 353t325.5 132q101 0 181 -30t128 -82h185q33 0 55.5 -22.5t22.5 -55.5v-520q52 72 135.5 113.5t183.5 41.5q139 0 243 -68t157 -181.5 t53 -254.5q0 -219 -125.5 -363t-331.5 -144q-103 0 -184.5 40t-128.5 113v-74q0 -34 -24.5 -56.5t-59.5 -22.5t-58.5 22.5t-23.5 56.5v1221h-37q0 -65 -42 -113.5t-106 -48.5q-60 0 -102.5 39.5t-42.5 97.5q0 77 61 115q-42 31 -131 31q-136 0 -214 -86t-78 -262v-82h309 q35 0 57.5 -22t22.5 -56q0 -31 -22.5 -53.5t-57.5 -22.5h-309v-665h299q35 0 57 -21.5t22 -54.5t-22 -54.5t-57 -21.5h-1397q-34 0 -56 22t-22 54t22 54t56 22h217v665h-197q-33 0 -55.5 22.5t-22.5 53.5q0 34 22 56t56 22h197v110q0 210 114.5 332.5t309.5 122.5 q98 0 158 -27q45 -20 45 -65q0 -30 -20 -50t-56 -20q-15 0 -57 7.5t-60 7.5q-270 0 -270 -336v-82h553zM1055 152v665h-553v-665h553z"/>
<glyph glyph-name="f_f_f" unicode="fff" horiz-adv-x="2394" d="M1772 152v665h-553v-665h553zM1055 971v110q0 210 114.5 332.5t309.5 122.5q97 0 157 -27q45 -20 45 -65q0 -30 -19.5 -50t-55.5 -20q-15 0 -57 7.5t-60 7.5q-270 0 -270 -336v-82h553v110q0 220 119.5 347.5t320.5 127.5q171 0 275 -79.5t104 -192.5q0 -67 -44 -111.5 t-106 -44.5q-61 0 -104 40t-43 96q0 34 16.5 64.5t46.5 47.5q-48 35 -143 35q-128 0 -203.5 -82t-75.5 -256v-102h310q35 0 57 -22t22 -56q0 -31 -22 -53.5t-57 -22.5h-310v-665h299q35 0 57.5 -21.5t22.5 -54.5t-22.5 -54.5t-57.5 -21.5h-2113q-34 0 -56 22t-22 54t22 54 t56 22h217v665h-197q-33 0 -55.5 22.5t-22.5 53.5q0 34 22 56t56 22h197v110q0 210 114.5 332.5t309.5 122.5q98 0 158 -27q45 -20 45 -65q0 -30 -20 -50t-56 -20q-15 0 -57 7.5t-60 7.5q-270 0 -270 -336v-82h553zM1055 152v665h-553v-665h553z"/>
<glyph glyph-name="f_f_h" unicode="ffh" horiz-adv-x="2990" d="M1055 152v665h-553v-665h553zM1511 1401q-136 0 -214 -86t-78 -262v-82h309q35 0 57.5 -22t22.5 -56q0 -31 -22.5 -53.5t-57.5 -22.5h-309v-665h299q35 0 57 -21.5t22 -54.5t-22 -54.5t-57 -21.5h-1397q-34 0 -56 22t-22 54t22 54t56 22h217v665h-197q-33 0 -55.5 22.5 t-22.5 53.5q0 34 22 56t56 22h197v110q0 210 114.5 332.5t309.5 122.5q32 0 61.5 -3t64.5 -12t56 -28.5t21 -48.5q0 -30 -20 -50t-56 -20q-15 0 -57 7.5t-60 7.5q-270 0 -270 -336v-82h553v90q0 221 122.5 353t325.5 132q101 0 181 -30t128 -82h183q34 0 57 -22t23 -56v-551 q51 91 140 138.5t191 47.5q159 0 257 -91t98 -263v-485h133q32 0 55 -23t23 -53q0 -32 -23 -54t-57 -22h-404q-34 0 -56 22t-22 54t22 54t56 22h107v489q0 54 -18 95t-48.5 63.5t-65 33.5t-71.5 11q-128 0 -222.5 -103.5t-94.5 -283.5v-305h145q32 -2 54 -23.5t22 -52.5 q0 -32 -22 -54t-56 -22h-440q-34 0 -57 22t-23 54t23 54t57 22h131v1128h-35q0 -65 -42 -113.5t-106 -48.5q-57 0 -101 40t-44 97q0 77 61 115q-42 31 -131 31z"/>
<glyph glyph-name="f_f_j" unicode="ffj" horiz-adv-x="2097" d="M1219 152h299q35 0 57 -21.5t22 -54.5t-22 -54.5t-57 -21.5h-1397q-34 0 -56 22t-22 54t22 54t56 22h217v665h-197q-33 0 -55.5 22.5t-22.5 53.5q0 34 22 56t56 22h197v110q0 210 114.5 332.5t309.5 122.5q98 0 158 -27q45 -20 45 -65q0 -30 -20 -50t-56 -20 q-15 0 -57 7.5t-60 7.5q-270 0 -270 -336v-82h553v110q0 219 121.5 347t322.5 128q171 0 273 -79t102 -193q0 -67 -44 -111.5t-106 -44.5q-61 0 -104 40t-43 96q0 34 16.5 64.5t46.5 47.5q-48 35 -141 35q-128 0 -204 -82t-76 -256v-102h696q33 0 55.5 -22.5t22.5 -55.5 v-1024q0 -176 -108 -278.5t-283 -102.5q-85 0 -156.5 25.5t-118.5 79.5t-47 128q0 72 44 117t108 45q63 0 103 -41t40 -106q0 -26 -12.5 -50.5t-36.5 -35.5q27 -21 84 -21q92 0 155.5 60.5t63.5 185.5v942h-610v-665zM1055 152v665h-553v-665h553z"/>
<glyph glyph-name="f_f_k" unicode="ffk" horiz-adv-x="3012" d="M1055 971v90q0 221 122.5 353t325.5 132q101 0 181 -30t128 -82h183q34 0 57 -22t23 -56v-877l395 338h-158q-32 0 -55 22.5t-23 53.5q0 33 22.5 55.5t55.5 22.5h555q34 0 56 -22t22 -56q0 -31 -22.5 -53.5t-55.5 -22.5h-180l-289 -244l309 -421h191q32 0 55 -22t23 -54 t-23 -54t-55 -22h-207q-82 0 -113 45l-307 432l-196 -170v-155h145q32 0 54 -22.5t22 -53.5q0 -32 -22 -54t-56 -22h-451q-34 0 -56.5 22t-22.5 54t22.5 54t56.5 22h142v1128h-35q0 -65 -42 -113.5t-106 -48.5q-60 0 -102.5 39.5t-42.5 97.5q0 77 61 115q-42 31 -131 31 q-136 0 -214 -86t-78 -262v-82h309q35 0 57.5 -22t22.5 -56q0 -31 -22.5 -53.5t-57.5 -22.5h-309v-665h299q35 0 57 -21.5t22 -54.5t-22 -54.5t-57 -21.5h-1397q-34 0 -56 22t-22 54t22 54t56 22h217v665h-197q-33 0 -55.5 22.5t-22.5 53.5q0 34 22 56t56 22h197v110 q0 210 114.5 332.5t309.5 122.5q98 0 158 -27q45 -20 45 -65q0 -30 -20 -50t-56 -20q-15 0 -57 7.5t-60 7.5q-270 0 -270 -336v-82h553zM1055 152v665h-553v-665h553z"/>
<glyph glyph-name="f_h" unicode="fh" horiz-adv-x="2273" d="M1358 1356v-551q51 91 140.5 138.5t191.5 47.5q159 0 256.5 -91t97.5 -263v-485h133q32 0 55 -23t23 -53q0 -32 -23 -54t-57 -22h-403q-34 0 -56 22t-22 54t22 54t56 22h106v489q0 54 -18 95t-48.5 63.5t-65 33.5t-71.5 11q-128 0 -222.5 -103.5t-94.5 -283.5v-305h145 q32 -2 54 -23.5t22 -52.5q0 -32 -22 -54t-56 -22h-440q-34 0 -57 22t-23 54t23 54t57 22h131v1128h-35q0 -65 -41.5 -113.5t-105.5 -48.5q-57 0 -101.5 40t-44.5 97q0 77 62 115q-42 31 -131 31q-137 0 -215 -86t-78 -262v-82h309q35 0 57.5 -22t22.5 -56q0 -31 -22.5 -53.5 t-57.5 -22.5h-309v-665h299q35 0 57.5 -21.5t22.5 -54.5t-23 -54.5t-59 -21.5h-678q-34 0 -56 22t-22 54t22 54t56 22h217v665h-197q-32 0 -55 22.5t-23 53.5q0 33 22.5 55.5t55.5 22.5h197v90q0 221 122.5 353t325.5 132q101 0 181.5 -30t128.5 -82h182q34 0 57 -22t23 -56 z"/>
<glyph glyph-name="f_i" unicode="fi" horiz-adv-x="1675" d="M1204 817h-702v-665h237q35 0 57.5 -21.5t22.5 -54.5t-22.5 -54.5t-57.5 -21.5h-618q-34 0 -56 22t-22 54t22 54t56 22h217v665h-197q-33 0 -55.5 22.5t-22.5 53.5q0 34 22 56t56 22h197v110q0 219 121.5 347t322.5 128q171 0 273 -79t102 -193q0 -62 -45.5 -109 t-103.5 -47q-61 0 -101.5 39.5t-40.5 94.5q0 71 58 114q-48 35 -142 35q-128 0 -204 -82t-76 -256v-102h788q33 0 55.5 -22.5t22.5 -55.5v-741h217q32 0 54 -22t22 -54t-22 -54t-54 -22h-577q-32 0 -55 22t-23 54t23 54t55 22h196v665z"/>
<glyph glyph-name="f_j" unicode="fj" horiz-adv-x="1380" d="M1276 893v-1024q0 -176 -108 -278.5t-283 -102.5q-85 0 -156.5 25.5t-118.5 79.5t-47 128q0 72 44 117t108 45q63 0 103 -41t40 -106q0 -26 -12.5 -50.5t-36.5 -35.5q27 -21 84 -21q92 0 155.5 60.5t63.5 185.5v942h-610v-665h237q35 0 57.5 -21.5t22.5 -54.5 t-22.5 -54.5t-57.5 -21.5h-618q-34 0 -56 22t-22 54t22 54t56 22h217v665h-197q-33 0 -55.5 22.5t-22.5 53.5q0 34 22 56t56 22h197v110q0 219 121.5 347t322.5 128q171 0 273 -79t102 -193q0 -67 -43.5 -111.5t-105.5 -44.5q-61 0 -104.5 40t-43.5 96q0 33 17 64t47 48 q-48 35 -142 35q-128 0 -204 -82t-76 -256v-102h696q33 0 55.5 -22.5t22.5 -55.5z"/>
<glyph glyph-name="f_k" unicode="fk" horiz-adv-x="2295" d="M1358 1356v-877l395 338h-158q-32 0 -54.5 22.5t-22.5 53.5q0 33 22 55.5t55 22.5h555q34 0 56 -22t22 -56q0 -31 -22.5 -53.5t-55.5 -22.5h-180l-289 -244l310 -421h190q32 0 55 -22t23 -54t-23 -54t-55 -22h-207q-81 0 -112 45l-308 432l-196 -170v-155h145 q32 0 54 -22.5t22 -53.5q0 -32 -22 -54t-56 -22h-450q-34 0 -57 22t-23 54t23 54t57 22h141v1128h-35q0 -65 -41.5 -113.5t-105.5 -48.5q-61 0 -103.5 39.5t-42.5 97.5q0 77 62 115q-42 31 -131 31q-137 0 -215 -86t-78 -262v-82h309q35 0 57.5 -22t22.5 -56 q0 -31 -22.5 -53.5t-57.5 -22.5h-309v-665h299q35 0 57.5 -21.5t22.5 -54.5t-23 -54.5t-59 -21.5h-678q-34 0 -56 22t-22 54t22 54t56 22h217v665h-197q-33 0 -55.5 22.5t-22.5 53.5q0 34 22 56t56 22h197v90q0 221 122.5 353t325.5 132q101 0 181.5 -30t128.5 -82h182 q34 0 57 -22t23 -56z"/>
<glyph glyph-name="f_l" unicode="fl" horiz-adv-x="1748" d="M502 971h309q35 0 57.5 -22t22.5 -56q0 -31 -22.5 -53.5t-57.5 -22.5h-309v-665h258q35 0 57.5 -21.5t22.5 -54.5t-23 -54.5t-59 -21.5h-637q-34 0 -56 22t-22 54t22 54t56 22h217v665h-197q-33 0 -55.5 22.5t-22.5 53.5q0 34 22 56t56 22h197v90q0 221 122.5 353 t325.5 132q99 0 180.5 -30t129.5 -82h243q34 0 57 -22t23 -56v-1204h240q32 0 55 -22t23 -54t-23 -54t-55 -22h-655q-32 0 -54 22t-22 54t22 54t54 22h249v1128h-96q0 -65 -41.5 -113.5t-105.5 -48.5q-61 0 -103.5 39.5t-42.5 97.5q0 77 62 115q-42 31 -131 31 q-137 0 -215 -86t-78 -262v-82z"/>
<glyph glyph-name=".notdef" horiz-adv-x="450"/>
<glyph glyph-name=".null" horiz-adv-x="0"/>
<glyph glyph-name="nonmarkingreturn" horiz-adv-x="682"/>
<glyph glyph-name="space" unicode=" " horiz-adv-x="450"/>
<glyph glyph-name="exclam" unicode="!" horiz-adv-x="614" d="M307 498q-28 0 -52.5 19t-27.5 61q-69 651 -69 733q0 63 39 103t110 40q70 0 110 -40.5t40 -102.5q0 -36 -17.5 -219.5t-35.5 -348.5l-17 -165q-4 -42 -28 -61t-52 -19zM133 154q0 72 51 122t123 50t122 -50t50 -122t-50 -123t-122 -51t-123 51t-51 123z"/>
<glyph glyph-name="quotedbl" unicode=""" horiz-adv-x="856" d="M121 762v600q0 34 24.5 58t59.5 24q34 0 59 -24t25 -58v-600q0 -34 -25 -58t-59 -24q-35 0 -59.5 24t-24.5 58zM567 762v600q0 34 24.5 58t59.5 24q34 0 59 -24t25 -58v-600q0 -34 -25 -58t-59 -24q-35 0 -59.5 24t-24.5 58z"/>
<glyph glyph-name="numbersign" unicode="#" horiz-adv-x="1353" d="M383 444h-221q-32 0 -55 22t-23 54q0 30 22 51.5t54 24.5h223v242h-221q-33 0 -55.5 21t-22.5 54q0 32 23 54t55 22h221v365q0 34 23.5 57t58.5 23q34 0 58 -23t24 -57v-365h260v365q0 34 24 57t58 23t59 -23.5t25 -56.5v-365h221q32 0 54 -22t22 -54t-22 -53.5 t-54 -21.5h-221v-242h221q32 0 54 -22.5t22 -53.5q0 -32 -22 -54t-54 -22h-221v-364q0 -33 -25 -56.5t-59 -23.5t-58 23t-24 57v364h-260v-364q0 -34 -24 -57t-58 -23q-35 0 -58.5 23t-23.5 57v364zM547 838v-242h260v242h-260z"/>
<glyph glyph-name="dollar" unicode="$" horiz-adv-x="1413" d="M1231 383q0 -174 -119.5 -288.5t-331.5 -114.5h-22v-273q0 -30 -22 -51t-52 -21t-53 21t-23 51v295q-152 45 -235 162l6 -96q0 -39 -22 -63.5t-58 -24.5q-35 0 -58 20.5t-26 54.5l-35 404q-3 36 20 63t62 27q27 0 49.5 -16t32.5 -44q0 -1 10 -28.5t14 -37.5t16.5 -38.5 t22 -43.5t25.5 -41.5t33.5 -43.5t39 -37.5t48 -35.5t55.5 -27v524q-70 20 -121.5 39.5t-107.5 52.5t-91 72.5t-58 98.5t-23 132q0 164 109.5 269.5t291.5 109.5v262q0 30 23 52t53 22t52 -22t22 -52v-280q128 -38 196 -129l-8 65q-4 36 20 58t56 22q34 0 58 -19.5t28 -54.5 l43 -368q0 -30 -21.5 -52t-62.5 -22q-31 0 -55.5 29t-44.5 74t-44 93t-66 92.5t-99 65.5v-483q64 -19 99 -29.5t93 -33t91 -42.5t74 -53t63 -69t37.5 -87t15.5 -110zM1055 373q0 56 -22 99t-67 73.5t-91.5 50.5t-116.5 41v-512h18q135 0 207 72t72 176zM381 1090 q0 -90 59 -144t168 -92v455q-101 -8 -164 -65.5t-63 -153.5z"/>
<glyph glyph-name="percent" unicode="%" horiz-adv-x="1589" d="M696 1081q0 -160 -87.5 -266t-215.5 -106q-129 0 -215 105.5t-86 266.5t86 267t215 106q44 0 92.5 -19t88.5 -41.5t112 -41.5t158 -19q100 0 205 18.5t149 39.5l23 26q30 37 67 37q31 0 54.5 -21t23.5 -51q0 -27 -18 -51l-955 -1311q-20 -30 -63 -30q-38 0 -59 20t-21 51 q0 26 16 48l836 1132q-79 -43 -258 -43q-24 0 -51.5 3.5t-44.5 7.5t-43.5 11t-34.5 9q26 -70 26 -148zM1493 350q0 -160 -86.5 -265t-216.5 -105q-129 0 -214 104.5t-85 265.5q0 163 85 269t214 106q130 0 216.5 -106.5t86.5 -268.5zM1057 350q0 -93 38 -159t95 -66 q59 0 98 66t39 159t-39 161.5t-98 68.5q-57 0 -95 -68.5t-38 -161.5zM260 1081q0 -94 37.5 -160.5t95.5 -66.5q57 0 96 67t39 160t-39 160.5t-96 67.5q-58 0 -95.5 -67t-37.5 -161z"/>
<glyph glyph-name="ampersand" unicode="&" horiz-adv-x="1650" d="M813 381l-283 330l-55 -43q-51 -40 -72 -57t-64 -57.5t-62 -69t-36 -70.5t-16 -84q0 -83 61.5 -141t162.5 -58q60 0 111.5 19t97.5 58.5t78.5 76.5t76.5 96zM887 1180q0 -203 -230 -373l254 -293q20 38 46.5 81t71.5 102.5t92 105t107.5 78t117.5 32.5q73 0 120 -45.5 t47 -107.5q0 -59 -43.5 -103.5t-101.5 -44.5q-41 0 -76 23t-53 59q-46 -30 -113.5 -126t-111.5 -175q65 -77 103 -119t78.5 -77.5t72.5 -48.5t69 -13q54 0 78 30.5t37 84.5q8 31 10.5 40t10.5 29.5t15.5 26.5t20.5 12.5t31 6.5q35 0 57.5 -22t22.5 -56q0 -10 -1.5 -26 t-8 -46.5t-18 -60t-33.5 -62t-51.5 -56.5t-76 -40t-102.5 -16q-50 0 -96.5 14t-84 35.5t-80 61t-75 75.5t-80.5 94q-49 -66 -90.5 -110t-99 -86.5t-128 -63t-155.5 -20.5q-174 0 -282.5 96.5t-108.5 249.5q0 38 6 73t21 67.5t29.5 59.5t41.5 57t47.5 51t57.5 52t60.5 49 t66.5 51l53 43q-158 184 -158 336q0 127 88 208t228 81q129 0 212 -77t85 -197zM442 1169q0 -91 80 -194l43 -55q158 125 158 251q0 59 -38 99.5t-99 40.5q-60 0 -102 -38t-42 -104z"/>
<glyph glyph-name="quotesingle" unicode="'" horiz-adv-x="409" d="M121 762v600q0 34 24.5 58t59.5 24q34 0 59 -24t25 -58v-600q0 -34 -25 -58t-59 -24q-35 0 -59.5 24t-24.5 58z"/>
<glyph glyph-name="parenleft" unicode="(" horiz-adv-x="716" d="M225 598q0 -112 14.5 -214t37.5 -180t58.5 -151.5t69 -124.5t79 -103.5t78 -83.5t75.5 -69q31 -28 31 -63q0 -36 -22 -57t-50 -21q-38 4 -61 20q-67 47 -128.5 105t-130 152.5t-117.5 203.5t-81.5 262t-32.5 324q0 374 148 657q83 158 211 286t192 128q28 0 50 -22 t22 -58q0 -35 -31 -63q-43 -37 -75.5 -69t-78 -84.5t-79 -104t-69 -125t-58.5 -152t-37.5 -180.5t-14.5 -213z"/>
<glyph glyph-name="parenright" unicode=")" horiz-adv-x="716" d="M487 598q0 154 -28 289.5t-67 227t-100 177.5t-106.5 133t-107.5 101q-33 30 -33 63q0 36 23 58t51 22q25 0 61 -22q66 -45 127 -103t129 -152t117.5 -204t82 -264t32.5 -326q0 -372 -148 -655q-85 -158 -210 -285t-191 -127q-29 0 -51.5 21t-22.5 57q0 21 7.5 34 t25.5 29q43 38 75.5 69t77.5 83.5t78 103.5t68.5 124.5t58 151.5t37 180t14.5 214z"/>
<glyph glyph-name="asterisk" unicode="*" horiz-adv-x="1249" d="M299 1294l252 -170q-8 148 -8 254q0 115 82 115q42 0 62 -32t20 -83q0 -46 -3 -110.5t-6 -104t-2 -39.5l254 170q21 15 47 15q33 0 57.5 -21t24.5 -55q0 -52 -39 -74l-276 -168l276 -168q39 -25 39 -71q0 -35 -24 -57.5t-56 -22.5q-14 0 -27.5 5.5t-20.5 10t-25 17.5 l-230 153q-1 0 2 -39.5t6 -104t3 -110.5q0 -51 -20 -83t-62 -32q-82 0 -82 115l8 254l-252 -170q-26 -16 -51 -16q-32 0 -55 22t-23 58q0 47 37 71l278 168l-278 168q-37 26 -37 74q0 35 24 55.5t56 20.5q25 0 49 -15z"/>
<glyph glyph-name="plus" unicode="+" horiz-adv-x="1249" d="M707 627v-365q0 -35 -24.5 -59.5t-59.5 -24.5t-58.5 24.5t-23.5 59.5v365h-375q-31 0 -55.5 22.5t-24.5 52.5q0 32 23 54t57 22h375v365q0 35 23.5 59.5t58.5 24.5t59.5 -24.5t24.5 -59.5v-365h374q31 0 55.5 -23t24.5 -53q0 -32 -23 -53.5t-57 -21.5h-374z"/>
<glyph glyph-name="comma" unicode="," horiz-adv-x="612" d="M121 156q0 72 50.5 122t125.5 50q85 0 141 -63.5t56 -168.5q0 -142 -106.5 -281.5t-244.5 -199.5q-30 -12 -49 -12q-30 0 -50.5 17t-20.5 48q0 43 43 62q94 43 159.5 110.5t83.5 155.5q-10 -2 -18 -2q-77 0 -123.5 45.5t-46.5 116.5z"/>
<glyph glyph-name="hyphen" unicode="-" horiz-adv-x="978" d="M760 522h-541q-32 0 -55 22t-23 54t23 54t55 22h541q31 0 54.5 -22t23.5 -54t-23.5 -54t-54.5 -22z"/>
<glyph glyph-name="period" unicode="." horiz-adv-x="612" d="M133 154q0 72 51 122t123 50t122 -50t50 -122t-50 -123t-122 -51t-123 51t-51 123z"/>
<glyph glyph-name="slash" unicode="/" horiz-adv-x="946" d="M1071 1585l-1038 -1878q-20 -41 -70 -41q-33 0 -56.5 20t-23.5 54q0 21 15 47l1044 1888q22 39 66 39q32 0 55.5 -21.5t23.5 -52.5q0 -26 -16 -55z"/>
<glyph glyph-name="zero" unicode="0" horiz-adv-x="1239" d="M618 1454q146 0 262 -97t180 -266t64 -378q0 -208 -64 -375t-180 -262.5t-262 -95.5t-261.5 95.5t-179.5 262.5t-64 375q0 209 63.5 378t179.5 266t262 97zM618 127q98 0 175.5 75.5t120 209.5t42.5 301q0 257 -95 424.5t-243 167.5t-242.5 -167.5t-94.5 -424.5 q0 -255 94.5 -420.5t242.5 -165.5z"/>
<glyph glyph-name="one" unicode="1" horiz-adv-x="1239" d="M723 1362v-1208h287q34 0 57 -22t23 -54q0 -34 -23 -56t-57 -22h-764q-34 0 -57 22t-23 56q0 32 23 54t57 22h309v1003l-252 -346q-23 -33 -65 -33q-35 0 -60.5 23t-25.5 55q0 24 18 51l379 506q30 41 84 41q37 0 63.5 -25.5t26.5 -66.5z"/>
<glyph glyph-name="two" unicode="2" horiz-adv-x="1239" d="M930 154v159q0 33 25.5 57.5t60.5 24.5q34 0 59 -25t25 -57v-239q0 -33 -24.5 -53.5t-57.5 -20.5h-776q-88 0 -88 102q0 193 305 439q50 41 121.5 95.5t111 84.5t86.5 73t70.5 77.5t40 80.5t16.5 97q0 111 -80 186.5t-207 75.5q-90 0 -170.5 -37.5t-117.5 -104.5 q47 -11 79.5 -48t32.5 -87q0 -62 -42 -97.5t-101 -35.5q-65 0 -112.5 45.5t-47.5 128.5q0 160 141.5 269.5t344.5 109.5q194 0 324 -113.5t130 -291.5q0 -87 -35 -165.5t-92.5 -140t-128.5 -118.5t-147.5 -111.5t-144 -107.5t-123 -118.5t-80.5 -133.5h602z"/>
<glyph glyph-name="three" unicode="3" horiz-adv-x="1239" d="M1055 1290l-344 -356q175 -35 288 -156t113 -299q0 -219 -152 -359t-385 -140q-121 0 -223 35t-164.5 103t-62.5 154q0 79 47 120.5t109 41.5t102.5 -42.5t40.5 -100.5q0 -33 -17 -63.5t-42 -49.5q70 -55 202 -55q162 0 265.5 97t103.5 253q0 77 -28.5 140t-77 103 t-108.5 64t-126 29l-115 -113q-26 -26 -61 -26q-33 0 -54.5 23.5t-21.5 54.5t27 55l465 475h-576q-33 0 -56.5 22.5t-23.5 55.5q0 32 24 55t56 23h748q30 0 54.5 -19.5t24.5 -52.5q0 -37 -32 -72z"/>
<glyph glyph-name="four" unicode="4" horiz-adv-x="1239" d="M1206 496q0 -36 -24.5 -57t-59.5 -21h-207v-303q0 -119 -84 -119q-34 0 -57.5 22.5t-23.5 57.5v342h-627q-37 0 -59.5 23.5t-22.5 54.5q0 38 29 67q389 393 505 832q7 27 28 45t54 18q36 0 57 -21t21 -55q0 -11 -4 -39q-35 -153 -131 -335t-213 -320q-37 -46 -102 -119 h465v334q0 32 23.5 55t57.5 23q35 0 59.5 -23t24.5 -55v-334h207q35 0 59.5 -20.5t24.5 -52.5z"/>
<glyph glyph-name="five" unicode="5" horiz-adv-x="1239" d="M567 123q161 0 266 100.5t105 259.5q0 158 -100 246t-250 88q-146 0 -238 -61l-8 -76q-3 -30 -26 -49t-56 -19q-39 0 -60.5 25t-21.5 61l49 666q1 32 24 51t58 19h688q34 0 57 -23t23 -55q0 -34 -23 -56t-57 -22h-616l-27 -365q103 56 248 56q224 0 367 -133t143 -349 q0 -221 -152.5 -364t-384.5 -143q-121 0 -223 35t-164.5 103t-62.5 154q0 79 47 120.5t109 41.5t102.5 -42.5t40.5 -100.5q0 -33 -17 -63.5t-42 -49.5q70 -55 202 -55z"/>
<glyph glyph-name="six" unicode="6" horiz-adv-x="1239" d="M1139 465q0 -213 -146 -349t-372 -136q-229 0 -376 149t-147 408q0 136 42 265t112.5 230.5t161 187t188 142t193.5 88t178 31.5q96 0 96 -76q0 -65 -74 -72q-65 -9 -137.5 -32.5t-154 -67.5t-153.5 -102t-135 -142.5t-98 -181.5q47 59 139.5 100t196.5 41 q214 0 350 -137t136 -346zM621 129q154 0 249 94t95 242q0 147 -95 240.5t-243 93.5t-245 -93t-97 -243q0 -147 92 -240.5t244 -93.5z"/>
<glyph glyph-name="seven" unicode="7" horiz-adv-x="1239" d="M1133 1352q0 -38 -41 -99q-13 -20 -61 -91.5t-75 -114t-70 -114t-81 -144.5t-74 -152q-66 -148 -101.5 -281t-54.5 -293q-3 -29 -26 -50t-62 -21q-41 0 -65.5 23t-24.5 61q0 124 64 323q64 204 174.5 406.5t290.5 472.5h-641v-240q0 -33 -26 -56.5t-60 -23.5 q-33 0 -58.5 23.5t-25.5 56.5v314q0 33 25.5 57.5t58.5 24.5h852q35 0 58.5 -25t23.5 -57z"/>
<glyph glyph-name="eight" unicode="8" horiz-adv-x="1239" d="M618 1454q177 0 298.5 -100.5t121.5 -249.5q0 -90 -48 -167t-140 -118q135 -42 217 -152.5t82 -242.5q0 -122 -63 -222t-185.5 -161t-282.5 -61q-120 0 -220.5 35.5t-167 96t-103.5 141t-37 171.5q0 132 82 242.5t217 152.5q-92 41 -140 118t-48 167q0 149 121 249.5 t296 100.5zM371 1096q0 -89 69 -152t178 -63q110 0 180 63t70 152t-71.5 151t-178.5 62t-177 -62t-70 -151zM618 131q151 0 254 86.5t103 212.5t-102.5 216.5t-254.5 90.5q-151 0 -252.5 -90t-101.5 -217q0 -126 102 -212.5t252 -86.5z"/>
<glyph glyph-name="nine" unicode="9" horiz-adv-x="1239" d="M98 969q0 213 146 349t372 136q229 0 376 -149t147 -408q0 -136 -42 -265t-112.5 -230.5t-161 -187t-188 -142t-193.5 -88t-178 -31.5q-96 0 -96 76q0 64 74 71q65 9 137.5 32.5t154 68t153.5 102.5t135 142.5t98 181.5q-47 -59 -139.5 -100.5t-196.5 -41.5 q-214 0 -350 137.5t-136 346.5zM616 1305q-154 0 -249 -94t-95 -242q0 -147 95 -240.5t243 -93.5t245 93t97 243q0 147 -92 240.5t-244 93.5z"/>
<glyph glyph-name="colon" unicode=":" horiz-adv-x="612" d="M133 152q0 73 51 123.5t123 50.5t122 -50.5t50 -123.5q0 -72 -50 -122t-122 -50t-123 50t-51 122zM133 817q0 72 51 123t123 51t122 -51t50 -123t-50 -123t-122 -51t-123 51t-51 123z"/>
<glyph glyph-name="semicolon" unicode=";" horiz-adv-x="634" d="M145 150q0 71 50.5 121.5t126.5 50.5q84 0 139 -62.5t55 -167.5q0 -147 -106 -290t-244 -191q-21 -14 -45 -14q-33 0 -53.5 16.5t-20.5 48.5q0 43 43 62q93 42 160.5 112t81.5 154q-3 0 -9.5 -1t-9.5 -1q-77 0 -122.5 44.5t-45.5 117.5zM145 817q0 72 51 123t123 51 t123.5 -51t51.5 -123t-51.5 -123t-123.5 -51t-123 51t-51 123z"/>
<glyph glyph-name="less" unicode="<" horiz-adv-x="1378" d="M1329 584q0 -34 -23 -56t-57 -22h-917l368 -365q33 -26 33 -65q0 -35 -23.5 -59.5t-60.5 -24.5t-63 26l-502 502q-29 29 -29 64q0 34 29 63l502 502q27 27 63 27q37 0 60.5 -24.5t23.5 -59.5q0 -40 -33 -66l-368 -364h917q34 0 57 -22t23 -56z"/>
<glyph glyph-name="equal" unicode="=" horiz-adv-x="1249" d="M981 436h-713q-34 0 -56 22t-22 54q0 31 22.5 52.5t55.5 21.5h713q32 0 54 -21.5t22 -52.5q0 -32 -22 -54t-54 -22zM981 819h-713q-33 0 -55.5 22.5t-22.5 53.5q0 32 22 54t56 22h713q32 0 54 -22t22 -54q0 -31 -22 -53.5t-54 -22.5z"/>
<glyph glyph-name="greater" unicode=">" horiz-adv-x="1378" d="M55 584q0 34 23 56t57 22h918l-369 364q-33 26 -33 66q0 35 23.5 59.5t60.5 24.5t64 -27l501 -502q29 -29 29 -63q0 -35 -29 -64l-501 -502q-26 -26 -64 -26q-37 0 -60.5 24.5t-23.5 59.5q0 39 33 65l369 365h-918q-34 0 -57 22t-23 56z"/>
<glyph glyph-name="question" unicode="?" horiz-adv-x="1036" d="M547 672v-103q0 -34 -24 -57t-58 -23t-58 23t-24 57v154q0 38 17.5 57t54.5 25q38 7 60.5 11.5t60 14.5t61 21.5t52 31.5t44.5 44t27.5 58.5t11.5 76.5q0 116 -73.5 182t-192.5 66q-80 0 -138 -31t-87 -66q40 -14 64 -47.5t24 -79.5q0 -59 -40.5 -97t-101.5 -38 q-70 0 -114.5 50t-44.5 114q0 144 127 241t311 97q200 0 319 -110.5t119 -278.5q0 -159 -101.5 -263t-295.5 -130zM305 154q0 72 51 122t123 50t122 -50t50 -122t-50 -123t-122 -51t-123 51t-51 123z"/>
<glyph glyph-name="at" unicode="@" horiz-adv-x="2134" d="M1305 268v181q-39 2 -119 2q-42 0 -71 -0.5t-72.5 -4.5t-73.5 -10.5t-64 -19.5t-54.5 -31t-34 -46t-13.5 -63q0 -75 55 -116t141 -41q95 0 184.5 42.5t121.5 106.5zM1305 590v53q0 199 -226 199q-130 0 -235 -58q-64 -28 -80 -30q-37 0 -57.5 21t-20.5 52q0 49 64 86 q55 32 151 55t189 23q177 0 277.5 -90t100.5 -254v-364q0 -88 37.5 -125t104.5 -37q119 0 180 113t61 313q0 324 -204 526.5t-543 202.5q-133 0 -255.5 -34t-227 -102t-182 -164t-121.5 -228.5t-44 -286.5q0 -168 53.5 -309.5t155 -245.5t258 -162.5t351.5 -58.5 q227 0 446 88q72 28 88 28q30 0 49 -21t19 -52q0 -48 -52 -76q-83 -47 -243 -85t-322 -38q-209 0 -389.5 67.5t-310 187.5t-203.5 295t-74 382q0 278 126.5 498.5t353.5 344t514 123.5q152 0 290.5 -36.5t254.5 -109.5t201.5 -175.5t133 -243t47.5 -303.5 q0 -120 -26.5 -223.5t-77.5 -183.5t-134 -126t-188 -46q-106 0 -166 36.5t-96 104.5q-60 -69 -154 -105t-192 -36q-153 0 -252.5 76.5t-99.5 217.5q0 74 29 131t74.5 91t109.5 56t127 30t133 8h197z"/>
<glyph glyph-name="A" unicode="A" horiz-adv-x="1478" d="M1096 154l-123 364h-471l-125 -364h174q34 0 57 -22t23 -54q0 -34 -23 -56t-57 -22h-477q-34 0 -57 22t-23 56q0 32 23 54t57 22h133l444 1267q24 66 88 66q33 0 55.5 -18t30.5 -44l447 -1271h133q34 0 57 -22t23 -54q0 -34 -23 -56t-57 -22h-477q-34 0 -58 22.5 t-24 55.5q0 32 24 54t58 22h168zM737 1229l-190 -565h379z"/>
<glyph glyph-name="B" unicode="B" horiz-adv-x="1355" d="M752 0h-598q-34 0 -57 22t-23 56q0 32 23 54t57 22h176v1124h-176q-34 0 -57 23t-23 55t23 55t57 23h577q97 0 175.5 -21t129.5 -55t85 -81t48.5 -96.5t14.5 -103.5q0 -114 -63 -200.5t-158 -118.5q129 -32 213 -127t84 -232q0 -98 -40.5 -175t-110.5 -125.5t-161 -73.5 t-196 -25zM498 1278v-465h245q120 0 194.5 72.5t74.5 175.5q0 97 -68.5 157t-218.5 60h-227zM750 659h-252v-505h239q72 0 131.5 13t109 41t77.5 78.5t28 119.5q0 65 -27.5 115t-75 79.5t-105.5 44t-125 14.5z"/>
<glyph glyph-name="C" unicode="C" horiz-adv-x="1310" d="M1202 426q0 -31 -15.5 -81t-54.5 -114.5t-95.5 -119.5t-149.5 -93t-205 -38q-260 0 -414.5 200t-154.5 527q0 224 73 395t198.5 261.5t281.5 90.5q218 0 319 -145l-6 67q-3 32 19 55t55 23q34 0 56.5 -20t25.5 -52l49 -442q3 -33 -20 -55.5t-62 -22.5q-62 0 -80 66 q-14 51 -24.5 85t-27.5 77t-34 71.5t-42 58t-54 46.5t-67.5 28t-84.5 11q-185 0 -294 -164t-109 -430q0 -260 111.5 -421t299.5 -161q63 0 115.5 19t87 47.5t65 75t48.5 86.5t39 98q19 51 71 51q38 0 59 -22.5t21 -57.5z"/>
<glyph glyph-name="D" unicode="D" horiz-adv-x="1523" d="M1241 729q0 43 -4 84.5t-18 98.5t-36.5 105t-65 98t-98.5 84.5t-140.5 56.5t-188.5 22h-192v-1124h192q104 0 188.5 23.5t140.5 60.5t98.5 89.5t65 103.5t36.5 110.5t18 102t4 85.5zM154 1434h542q333 0 525 -185t192 -520q0 -336 -193.5 -532.5t-523.5 -196.5h-542 q-34 0 -57 22t-23 56q0 32 23 54t57 22h176v1124h-176q-34 0 -57 23t-23 55t23 55t57 23z"/>
<glyph glyph-name="E" unicode="E" horiz-adv-x="1435" d="M758 823v142q0 34 25 58t59 24q35 0 59.5 -24t24.5 -58v-437q0 -35 -24.5 -58.5t-59.5 -23.5q-34 0 -59 23.5t-25 58.5v140h-260v-514h645l47 245q6 33 29.5 51.5t54.5 18.5q37 0 63 -26.5t19 -65.5l-58 -311q-6 -29 -31 -47.5t-55 -18.5h-1058q-34 0 -57 22t-23 56 q0 32 23 54t57 22h176v1124h-176q-34 0 -57 23t-23 55t23 55t57 23h1007q34 0 58.5 -21t25.5 -55l17 -283q1 -36 -23.5 -60t-60.5 -24q-35 0 -58 21.5t-26 54.5l-15 211h-581v-455h260z"/>
<glyph glyph-name="F" unicode="F" horiz-adv-x="1347" d="M1112 1278h-602v-496h281v121q0 34 24 58t59 24t61 -24t26 -58v-407q0 -34 -26 -58t-61 -24t-59 24t-24 58v131h-281v-473h246q34 0 57 -22t23 -54q0 -34 -23 -56t-57 -22h-590q-34 0 -57 22t-23 56q0 32 23 54t57 22h176v1124h-176q-34 0 -57 23t-23 55t23 55t57 23 h1028q34 0 58.5 -21t25.5 -55l16 -283q1 -36 -23.5 -60t-60.5 -24q-35 0 -58 21.5t-26 54.5z"/>
<glyph glyph-name="G" unicode="G" horiz-adv-x="1386" d="M1098 -2q-38 0 -61 23t-23 59v57q-58 -75 -149 -116t-197 -41q-170 0 -296 92t-191.5 256t-65.5 379q0 341 156.5 544t396.5 203q216 0 317 -145q-8 63 -8 73q0 31 24.5 51.5t53.5 20.5q35 0 56 -19.5t26 -52.5l47 -442q3 -33 -20 -55.5t-62 -22.5q-63 0 -78 66 q-17 69 -33.5 118t-44.5 101.5t-61.5 84.5t-85 52.5t-115.5 20.5q-182 0 -289.5 -164.5t-107.5 -429.5q0 -259 107.5 -419.5t289.5 -160.5q119 0 204.5 59.5t121.5 137.5v159h-299q-34 0 -57 23t-23 55t23 55t57 23h581q34 0 57 -23t23 -55t-23 -55t-57 -23h-112v-407 q0 -36 -23 -59t-59 -23z"/>
<glyph glyph-name="H" unicode="H" horiz-adv-x="1728" d="M1231 154v514h-733v-514h176q34 0 57 -22t23 -54q0 -34 -23 -56t-57 -22h-520q-34 0 -57 22t-23 56q0 32 23 54t57 22h176v1124h-176q-34 0 -57 23t-23 55t23 55t57 23h520q34 0 57 -23t23 -55t-23 -55t-57 -23h-176v-455h733v455h-176q-34 0 -57 23t-23 55t23 55t57 23 h520q34 0 57 -23t23 -55t-23 -55t-57 -23h-176v-1124h176q34 0 57 -22t23 -54q0 -34 -23 -56t-57 -22h-520q-34 0 -57 22t-23 56q0 32 23 54t57 22h176z"/>
<glyph glyph-name="I" unicode="I" horiz-adv-x="974" d="M403 154v1124h-270q-32 0 -55 23t-23 55t23 55t55 23h709q32 0 55 -23t23 -55t-23 -55t-55 -23h-271v-1124h271q32 0 55 -22t23 -54q0 -33 -22.5 -55.5t-55.5 -22.5h-709q-33 0 -55.5 22.5t-22.5 55.5q0 32 23 54t55 22h270z"/>
<glyph glyph-name="J" unicode="J" horiz-adv-x="1275" d="M821 471v807h-551q-32 0 -54.5 23t-22.5 55t22.5 55t54.5 23h865q33 0 56 -23t23 -55t-23 -55t-56 -23h-146v-811q0 -223 -125 -355t-370 -132q-108 0 -193 31t-133.5 80.5t-73 104.5t-24.5 109q0 82 48 133t122 51q63 0 108 -39.5t45 -107.5q0 -95 -88 -141 q25 -31 74 -52.5t119 -21.5q167 0 245 92t78 252z"/>
<glyph glyph-name="K" unicode="K" horiz-adv-x="1589" d="M1434 1278h-107l-485 -453l532 -671h121q34 0 57 -22t23 -54q0 -34 -23 -56t-57 -22h-457q-34 0 -57 22t-23 56q0 32 23 54t57 22h129l-444 565l-225 -213v-352h176q32 0 55 -22t23 -54q0 -33 -22.5 -55.5t-55.5 -22.5h-520q-34 0 -57 22t-23 56q0 32 23 54t57 22h176 v1124h-176q-34 0 -57 23t-23 55t23 55t57 23h499q32 0 55 -23t23 -55t-23 -55t-55 -23h-155v-580l606 580h-127q-34 0 -57 23t-23 55t23 55t57 23h457q34 0 56.5 -23t22.5 -55t-22.5 -55t-56.5 -23z"/>
<glyph glyph-name="L" unicode="L" horiz-adv-x="1374" d="M1122 154l47 245q6 33 29.5 51.5t54.5 18.5q37 0 63 -26.5t19 -65.5l-57 -311q-6 -29 -31 -47.5t-55 -18.5h-1038q-34 0 -57 22t-23 56q0 32 23 54t57 22h176v1124h-176q-34 0 -57 23t-23 55t23 55t57 23h571q34 0 57 -23t23 -55t-23 -55t-57 -23h-227v-1124h624z"/>
<glyph glyph-name="M" unicode="M" horiz-adv-x="1988" d="M1489 1235l-418 -993q-22 -54 -78 -54q-61 0 -82 52l-419 995v-1081h176q34 0 57 -22t23 -54q0 -34 -23 -56t-57 -22h-514q-34 0 -57 22t-23 56q0 32 23 54t57 22h176v1124h-176q-34 0 -57 23t-23 55t23 55t57 23h364q28 0 53 -15t35 -41l389 -944l389 942 q10 27 36.5 42.5t56.5 15.5h358q32 0 55 -23t23 -55t-23 -55t-55 -23h-176v-1124h176q32 0 55 -22t23 -54q0 -33 -22.5 -55.5t-55.5 -22.5h-520q-34 0 -57 22t-23 56q0 32 23 54t57 22h174v1081z"/>
<glyph glyph-name="N" unicode="N" horiz-adv-x="1636" d="M1335 1278v-1192q0 -40 -25 -65t-69 -25q-58 0 -100 65l-649 1170v-1077h217q32 0 54.5 -22t22.5 -54q0 -34 -22 -56t-55 -22h-555q-34 0 -57 22t-23 56q0 32 23 54t57 22h176v1124h-176q-34 0 -57 23t-23 55t23 55t57 23h333q68 0 95 -50l592 -1077v971h-175 q-33 0 -56 23t-23 55t23 55t56 23h471q34 0 57 -23t23 -55t-23 -55t-57 -23h-135z"/>
<glyph glyph-name="O" unicode="O" horiz-adv-x="1372" d="M686 1454q125 0 233 -58.5t182 -158t116.5 -235t42.5 -287.5t-42.5 -287t-117 -234t-182 -156.5t-232.5 -57.5q-167 0 -299.5 98.5t-204 266t-71.5 370.5t71.5 371.5t204 268t299.5 99.5zM686 129q116 0 208.5 78.5t142.5 212t50 295.5q0 163 -50.5 297t-142.5 212.5 t-208 78.5q-117 0 -209.5 -78.5t-143 -212.5t-50.5 -297q0 -162 50 -295.5t143 -212t210 -78.5z"/>
<glyph glyph-name="P" unicode="P" horiz-adv-x="1282" d="M154 1434h602q97 0 176 -23t130 -60.5t85.5 -88.5t49.5 -104.5t15 -110.5q0 -76 -27 -147.5t-78.5 -131.5t-138 -96.5t-194.5 -36.5h-276v-481h243q34 0 57 -22t23 -54q0 -34 -23 -56t-57 -22h-587q-34 0 -57 22t-23 56q0 32 23 54t57 22h176v1124h-176q-34 0 -57 23 t-23 55t23 55t57 23zM1038 1044q0 45 -15.5 85t-47.5 74.5t-89 54.5t-134 20h-254v-487h272q68 0 121 22t84 59t47 81t16 91z"/>
<glyph glyph-name="Q" unicode="Q" horiz-adv-x="1372" d="M686 1454q125 0 233 -58t182 -157.5t116.5 -234.5t42.5 -287q0 -186 -61 -344t-173 -260t-256 -125v-107q0 -85 29.5 -129.5t99.5 -44.5q61 0 89 32t28 79q0 110 84 110q37 0 59.5 -21.5t22.5 -82.5q0 -50 -16 -95t-49 -84t-91 -62t-135 -23q-141 0 -215 84t-74 219v125 q-145 23 -257.5 125.5t-173 260t-60.5 343.5q0 203 71.5 371t204 267t299.5 99zM686 129q116 0 208.5 78.5t142.5 212.5t50 297q0 162 -50.5 295.5t-142.5 212t-208 78.5t-209 -78.5t-143.5 -212t-50.5 -295.5q0 -163 50 -297t143 -212.5t210 -78.5z"/>
<glyph glyph-name="R" unicode="R" horiz-adv-x="1503" d="M1147 51l-139 316q-47 103 -108 172.5t-118 95.5h-284v-481h221q35 0 58.5 -22t23.5 -54q0 -34 -23.5 -56t-58.5 -22h-565q-34 0 -57 22t-23 56q0 32 23 54t57 22h176v1124h-176q-34 0 -57 23t-23 55t23 55t57 23h622q97 0 176 -22.5t131 -59t87 -85.5t50 -101t15 -107 q0 -54 -15.5 -107t-48 -104t-90 -91.5t-133.5 -60.5q64 -36 117 -99.5t106 -176.5l125 -266h160q35 0 58.5 -22t23.5 -54q0 -34 -23.5 -56t-58.5 -22h-229q-26 0 -47.5 14t-32.5 37zM1059 1049q0 43 -15.5 82t-47.5 73t-90 54t-134 20h-274v-487h280q130 0 205.5 78 t75.5 180z"/>
<glyph glyph-name="S" unicode="S" horiz-adv-x="1280" d="M1176 383q0 -174 -119.5 -288.5t-331.5 -114.5q-136 0 -241.5 50.5t-166.5 133.5l7 -96q0 -39 -22 -63.5t-58 -24.5q-35 0 -58 20.5t-26 54.5l-35 404q-3 36 20 63t62 27q27 0 49.5 -16t32.5 -44q2 -6 8 -21q12 -34 20.5 -54.5t29 -60.5t40.5 -66.5t54.5 -60t72.5 -53.5 t92 -34t115 -14q135 0 206.5 72t71.5 176q0 62 -29 109t-78 76.5t-112.5 53t-134 43t-140.5 40.5t-133.5 52.5t-112.5 73t-78 106.5t-29 148q0 167 114 273t301 106q101 0 190.5 -37.5t141.5 -109.5l-8 65q-4 36 20 58t56 22q34 0 58 -19.5t28 -54.5l43 -368 q0 -30 -21.5 -52t-62.5 -22q-27 0 -48 20.5t-37.5 54t-34 73.5t-42.5 79.5t-57.5 73t-85 54t-119.5 20.5q-114 0 -188 -58.5t-74 -162.5q0 -60 29 -105.5t78.5 -75t113 -52.5t134 -43t141 -42t134 -54.5t113 -75t78.5 -108.5t29 -151z"/>
<glyph glyph-name="T" unicode="T" horiz-adv-x="1361" d="M596 1278h-340l-25 -231q-3 -33 -25 -52.5t-59 -19.5q-38 0 -63.5 24t-22.5 60l33 305q3 34 25.5 52t56.5 18h1010q34 0 56.5 -18t25.5 -52l32 -305q3 -36 -22.5 -60t-63.5 -24q-37 0 -59 19.5t-25 52.5l-24 231h-340v-1124h254q35 0 58.5 -22t23.5 -54q0 -34 -23.5 -56 t-58.5 -22h-678q-35 0 -58.5 22t-23.5 56q0 32 23.5 54t58.5 22h254v1124z"/>
<glyph glyph-name="U" unicode="U" horiz-adv-x="1648" d="M1362 1278v-748q0 -132 -38.5 -233.5t-95.5 -160t-133 -95t-142 -49t-132 -12.5q-69 0 -135.5 12.5t-141 49.5t-129.5 94.5t-91.5 156.5t-36.5 227v758h-156q-34 0 -57 23t-23 55t23 55t57 23h500q34 0 57 -23t23 -55t-23 -55t-57 -23h-176v-754q0 -191 100.5 -295 t269.5 -104q170 0 272.5 105.5t102.5 297.5v750h-182q-34 0 -57 23t-23 55t23 55t57 23h500q34 0 56.5 -23t22.5 -55t-22.5 -55t-56.5 -23h-156z"/>
<glyph glyph-name="V" unicode="V" horiz-adv-x="1495" d="M750 266l356 1012h-162q-34 0 -57 23t-23 55t23 55t57 23h479q34 0 57 -23t23 -55t-23 -55t-57 -23h-143l-449 -1235q-24 -61 -83 -61q-67 0 -86 59l-449 1237h-143q-32 0 -55 23t-23 55t23 55t55 23h481q34 0 57 -23t23 -55t-23 -55t-57 -23h-158z"/>
<glyph glyph-name="W" unicode="W" horiz-adv-x="2246" d="M1501 266l359 1012h-164q-34 0 -57 23t-23 55t23 55t57 23h479q34 0 57 -23t23 -55t-23 -55t-57 -23h-143l-449 -1235q-24 -61 -84 -61q-67 0 -86 59l-293 821l-286 -819q-8 -26 -30.5 -43.5t-55.5 -17.5q-65 0 -84 59l-449 1237h-143q-32 0 -56 23t-24 55t24 55t56 23 h1261q34 0 57 -23t23 -55t-23 -55t-57 -23h-188zM395 1278l355 -1012l288 811l-73 201h-570z"/>
<glyph glyph-name="X" unicode="X" horiz-adv-x="1482" d="M451 1278l303 -453l288 453h-139q-34 0 -57 23t-23 55t23 55t57 23h451q34 0 57 -23t23 -55t-23 -55t-57 -23h-129l-377 -576l389 -548h139q32 0 55 -22t23 -54q0 -33 -22.5 -55.5t-55.5 -22.5h-467q-34 0 -57 22t-23 56q0 32 23 54t57 22h127l-307 444l-289 -444h178 q32 0 55 -22t23 -54q0 -33 -22.5 -55.5t-55.5 -22.5h-507q-34 0 -57 22t-23 56q0 32 23 54t57 22h137l385 575l-379 549h-131q-32 0 -55 23t-23 55t23 55t55 23h459q34 0 57 -23t23 -55t-23 -55t-57 -23h-131z"/>
<glyph glyph-name="Y" unicode="Y" horiz-adv-x="1458" d="M385 1278l348 -610l352 610h-153q-34 0 -57 23t-23 55t23 55t57 23h450q34 0 57 -23t23 -55t-23 -55t-57 -23h-118l-453 -768v-356h195q34 0 56.5 -22t22.5 -54q0 -34 -22.5 -56t-56.5 -22h-562q-32 0 -54.5 22t-22.5 56q0 32 22.5 54t54.5 22h197v362l-446 762h-119 q-33 0 -55.5 22.5t-22.5 55.5t22.5 55.5t55.5 22.5h456q34 0 57 -23t23 -55t-23 -55t-57 -23h-147z"/>
<glyph glyph-name="Z" unicode="Z" horiz-adv-x="1331" d="M1034 154v288q0 34 24 58t60 24q34 0 58 -24t24 -58v-364q0 -35 -23.5 -56.5t-58.5 -21.5h-938q-36 0 -57 22t-21 52q0 33 21 61l860 1143h-678v-225q0 -35 -24.5 -58.5t-59.5 -23.5t-58.5 23.5t-23.5 58.5v299q0 34 24.5 58t59.5 24h905q36 0 60 -23.5t24 -56.5 q0 -36 -20 -62l-854 -1138h696z"/>
<glyph glyph-name="bracketleft" unicode="[" horiz-adv-x="716" d="M90 -281v1842q0 32 23 54.5t55 22.5h379q34 0 57 -22.5t23 -54.5t-23 -55t-57 -23h-289v-1686h289q34 0 57 -23t23 -55t-23 -54.5t-57 -22.5h-379q-32 0 -55 22.5t-23 54.5z"/>
<glyph glyph-name="backslash" unicode="\" horiz-adv-x="946" d="M938 -293l-1038 1878q-17 31 -17 55q0 31 24 52.5t56 21.5q44 0 66 -39l1044 -1888q14 -25 14 -47q0 -34 -23.5 -54t-55.5 -20q-50 0 -70 41z"/>
<glyph glyph-name="bracketright" unicode="]" horiz-adv-x="716" d="M627 1561v-1842q0 -32 -23 -54.5t-55 -22.5h-379q-34 0 -57 22.5t-23 54.5t23 55t57 23h289v1686h-289q-34 0 -57 23t-23 55t23 54.5t57 22.5h379q32 0 55 -22.5t23 -54.5z"/>
<glyph glyph-name="asciicircum" unicode="^" horiz-adv-x="1249" d="M625 1454q48 0 67 -43l348 -731q21 -47 21 -68q0 -35 -23 -55t-57 -20q-53 0 -72 45l-284 630l-285 -630q-22 -45 -72 -45q-34 0 -57 20t-23 55q0 21 21 68l348 731q19 43 68 43z"/>
<glyph glyph-name="underscore" unicode="_" horiz-adv-x="872" d="M717 -319h-561q-33 0 -55.5 21.5t-22.5 53.5t23 54t55 22h561q31 0 54.5 -22t23.5 -54t-23.5 -53.5t-54.5 -21.5z"/>
<glyph glyph-name="grave" unicode="`" horiz-adv-x="921" d="M643 1122l-450 246q-41 21 -41 70q0 33 22.5 54t54.5 21q23 0 39 -8l459 -256q39 -20 39 -65q0 -30 -22 -52t-54 -22q-25 0 -47 12z"/>
<glyph glyph-name="a" unicode="a" horiz-adv-x="1107" d="M748 76v37q-60 -68 -144.5 -100.5t-177.5 -32.5q-153 0 -252.5 76.5t-99.5 217.5q0 74 29 131t74.5 91t109.5 56t127 30t133 8l194 -4v57q0 199 -225 199q-132 0 -237 -58q-64 -28 -80 -30q-37 0 -57.5 21t-20.5 52q0 49 63 86q55 32 151 55t191 23q177 0 279 -90 t102 -254v-495h109q32 0 56 -21.5t24 -52.5q0 -32 -22 -55t-62 -23h-185q-34 0 -56.5 22t-22.5 54zM741 268v181q-39 2 -118 2q-42 0 -71 -0.5t-72.5 -4.5t-73.5 -10.5t-64 -19.5t-54.5 -31t-34 -46t-13.5 -63q0 -75 55 -116t141 -41q95 0 184 42.5t121 106.5z"/>
<glyph glyph-name="b" unicode="b" horiz-adv-x="1183" d="M6 1434h240q32 0 55 -22.5t23 -53.5v-522q50 72 134.5 113.5t184.5 41.5q139 0 243 -68t157 -181.5t53 -254.5q0 -219 -125.5 -363t-331.5 -144q-103 0 -184.5 40t-128.5 113v-74q0 -34 -24.5 -56.5t-59.5 -22.5t-58.5 22.5t-23.5 56.5v1223h-154q-33 2 -55.5 23 t-22.5 53q0 31 23.5 53.5t54.5 22.5zM926 483q0 150 -80 253.5t-219 103.5t-221 -104t-82 -253q0 -148 81 -251t220 -103t220 103t81 251z"/>
<glyph glyph-name="c" unicode="c" horiz-adv-x="1062" d="M580 991q157 0 267.5 -78t110.5 -188q0 -69 -42 -112.5t-105 -43.5q-60 0 -102.5 40t-42.5 98q0 70 55 106q-55 37 -139 37q-132 0 -229 -99.5t-97 -263.5q0 -154 86 -256t242 -102q96 0 157 42t109 112q24 36 68 36q31 0 53 -20.5t22 -54.5q0 -42 -55 -111 q-129 -153 -371 -153q-219 0 -351 141.5t-132 361.5q0 116 40.5 213t108.5 161t158 99t189 35z"/>
<glyph glyph-name="d" unicode="d" horiz-adv-x="1267" d="M858 72v67q-49 -78 -132.5 -118.5t-186.5 -40.5q-206 0 -329.5 142.5t-123.5 360.5q0 142 55 257t160.5 183t243.5 68q99 0 180.5 -41.5t132.5 -113.5v446h-149q-34 0 -57 22t-23 54q0 31 23.5 53.5t56.5 22.5h235q33 0 56.5 -22.5t23.5 -53.5v-1206h154q32 -1 53.5 -23 t21.5 -53q0 -32 -21.5 -54t-53.5 -22h-244q-33 0 -54.5 20t-21.5 52zM258 483q0 -148 80 -251t219 -103t220 103t81 251q0 150 -81 253.5t-220 103.5t-219 -103.5t-80 -253.5z"/>
<glyph glyph-name="e" unicode="e" horiz-adv-x="1081" d="M934 133q-68 -78 -166 -115.5t-203 -37.5q-214 0 -346.5 143t-132.5 358q0 226 135 368t340 142q99 0 183 -37.5t138.5 -99.5t84.5 -139t30 -158q0 -88 -88 -88h-651q0 -87 36 -163t108.5 -125.5t166.5 -49.5q175 0 277 150q25 38 69 38q31 0 52.5 -20.5t21.5 -54.5 q0 -52 -55 -111zM557 850q-106 0 -183.5 -67t-99.5 -169h547q-15 105 -87 170.5t-177 65.5z"/>
<glyph glyph-name="f" unicode="f" horiz-adv-x="960" d="M502 1073v-102h309q35 0 57.5 -21t22.5 -55q0 -31 -22.5 -53.5t-57.5 -22.5h-309v-667h299q35 0 57.5 -21.5t22.5 -54.5t-22.5 -54.5t-57.5 -21.5h-680q-34 0 -56 22t-22 54t22 54t56 22h217v667h-197q-33 0 -55.5 22.5t-22.5 53.5q0 34 22 55t56 21h197v110 q0 219 122.5 347t323.5 128q165 0 269 -80t104 -192q0 -67 -43.5 -111.5t-105.5 -44.5q-61 0 -104.5 40t-43.5 96q0 33 17 64t47 48q-51 37 -133 37q-129 0 -209 -83.5t-80 -256.5z"/>
<glyph glyph-name="g" unicode="g" horiz-adv-x="1157" d="M877 877l186 206q27 27 59 27q31 0 54.5 -22.5t23.5 -51.5q0 -36 -49 -88l-188 -209q16 -59 16 -118q0 -165 -117 -266t-293 -101q-71 0 -141.5 15.5t-89.5 15.5q-32 0 -61 -21.5t-29 -60.5q0 -90 123 -121q111 18 221 18q279 0 420 -80.5t141 -220.5q0 -145 -154 -234 t-434 -89q-265 0 -405 84.5t-140 222.5q0 79 54 145t145 90q-49 21 -87 67.5t-38 113.5q0 79 57 127.5t115 52.5q-45 38 -76.5 106.5t-31.5 135.5q0 164 114 267t299 103q90 0 170.5 -28.5t135.5 -85.5zM197 -211q0 -84 105 -130t280 -46q178 0 288.5 47t110.5 133 q0 83 -102.5 124.5t-284.5 41.5q-183 0 -290 -42t-107 -128zM324 621q0 -106 69.5 -168t177.5 -62t177 61t69 166q0 108 -69 170t-177 62q-109 0 -178 -61.5t-69 -167.5z"/>
<glyph glyph-name="h" unicode="h" horiz-adv-x="1316" d="M236 152v1128h-136q-33 0 -56.5 22.5t-23.5 53.5q0 34 23 56t57 22h222q32 0 54.5 -22t22.5 -56v-551q52 91 141.5 138.5t190.5 47.5q160 0 257 -90.5t97 -263.5v-485h134q33 0 56 -23t23 -53q0 -32 -22.5 -54t-56.5 -22h-406q-32 0 -55 22t-23 54t23 54t55 22h109v489 q0 54 -18 95t-48.5 63.5t-65 33.5t-71.5 11q-129 0 -224.5 -103.5t-95.5 -283.5v-305h146q33 0 55.5 -22.5t22.5 -53.5q0 -32 -23 -54t-55 -22h-443q-30 0 -53.5 22.5t-23.5 53.5q0 32 22.5 54t54.5 22h134z"/>
<glyph glyph-name="i" unicode="i" horiz-adv-x="862" d="M530 893v-741h242q32 0 54 -22t22 -54t-22 -54t-54 -22h-647q-32 0 -54 22t-22 54t22 54t54 22h242v667h-230q-32 0 -55 22.5t-23 53.5q0 33 22.5 54.5t55.5 21.5h316q33 0 55 -22.5t22 -55.5zM264 1292q0 66 48 114t114 48t114 -48t48 -114t-48 -114t-114 -48t-114 48 t-48 114z"/>
<glyph glyph-name="j" unicode="j" horiz-adv-x="667" d="M506 893v-1024q0 -176 -108 -278.5t-283 -102.5q-85 0 -156.5 25.5t-118.5 79.5t-47 128q0 72 45.5 118t110.5 46q68 0 104.5 -39.5t36.5 -93.5q0 -64 -51 -102q27 -21 84 -21q92 0 155.5 60.5t63.5 185.5v944h-254q-32 0 -55 22.5t-23 53.5q0 33 22.5 54.5t55.5 21.5 h340q34 0 56 -22t22 -56zM240 1292q0 66 47.5 114t113.5 48t114 -48t48 -114t-48 -114t-114 -48t-113.5 48t-47.5 114z"/>
<glyph glyph-name="k" unicode="k" horiz-adv-x="1345" d="M911 45l-307 432l-196 -170v-155h145q32 0 54 -22.5t22 -53.5q0 -32 -22 -54t-56 -22h-451q-34 0 -57 22t-23 54t23 54t57 22h142v1128h-146q-32 0 -55 22.5t-23 53.5q0 33 22.5 55.5t55.5 22.5h232q34 0 57 -22t23 -56v-877l395 340h-158q-32 0 -55 22.5t-23 53.5 q0 33 22.5 54.5t55.5 21.5h555q34 0 56 -21t22 -55q0 -31 -22.5 -53.5t-55.5 -22.5h-180l-289 -246l309 -421h191q32 0 55 -22t23 -54t-23 -54t-55 -22h-207q-82 0 -113 45z"/>
<glyph glyph-name="l" unicode="l" horiz-adv-x="825" d="M496 1356v-1204h239q32 0 55 -22t23 -54t-23 -54t-55 -22h-645q-32 0 -55 22t-23 54t23 54t55 22h240v1128h-230q-32 0 -54.5 22.5t-22.5 53.5q0 34 22.5 56t54.5 22h316q34 0 57 -22t23 -56z"/>
<glyph glyph-name="m" unicode="m" horiz-adv-x="1990" d="M1065 778q53 103 143.5 158t200.5 55q157 0 253.5 -90.5t96.5 -261.5v-487h133q33 0 56.5 -23t23.5 -53q0 -32 -23 -54t-57 -22h-405q-32 0 -55 22t-23 54t23 54t55 22h108v489q0 104 -59.5 153.5t-140.5 49.5q-124 0 -207.5 -98t-83.5 -275v-319h131q33 0 56.5 -23 t23.5 -53q0 -32 -23 -54t-57 -22h-401q-34 0 -56 22t-22 54t22 54t56 22h106v489q0 105 -57.5 154t-141.5 49q-128 0 -215.5 -102.5t-87.5 -284.5v-305h135q33 0 55.5 -23t22.5 -53q0 -32 -23 -54t-55 -22h-432q-32 0 -55 22t-23 54t23 54t55 22h133v667h-135 q-33 0 -56.5 22.5t-23.5 53.5q0 33 23 54.5t57 21.5h215q34 0 57 -22t23 -56v-90q46 90 133.5 139t188.5 49q116 0 195.5 -54.5t113.5 -158.5z"/>
<glyph glyph-name="n" unicode="n" horiz-adv-x="1355" d="M141 152h133v667h-135q-30 0 -55 23t-25 53q0 33 23 54.5t57 21.5h215q34 0 57 -22t23 -56v-90q50 91 142 139.5t194 48.5q160 0 257 -90.5t97 -263.5v-485h133q30 0 55 -23t25 -53q0 -32 -23 -54t-57 -22h-405q-30 0 -54 22.5t-24 53.5q0 32 23 54t55 22h109v489 q0 54 -18 95t-48.5 63.5t-65 33.5t-71.5 11q-129 0 -224.5 -103.5t-95.5 -283.5v-305h146q33 0 55.5 -22.5t22.5 -53.5q0 -32 -23 -54t-55 -22h-443q-30 0 -54 22.5t-24 53.5q0 32 23 54t55 22z"/>
<glyph glyph-name="o" unicode="o" horiz-adv-x="1107" d="M553 991q138 0 245.5 -67.5t164.5 -183t57 -257.5q0 -141 -57 -255.5t-164.5 -181t-245.5 -66.5t-245 66.5t-164.5 181t-57.5 255.5q0 217 130 362.5t337 145.5zM553 129q140 0 220.5 102.5t80.5 251.5q0 150 -80.5 253.5t-220.5 103.5q-139 0 -219 -103.5t-80 -253.5 q0 -148 80 -251t219 -103z"/>
<glyph glyph-name="p" unicode="p" horiz-adv-x="1267" d="M406 829q51 76 136.5 119t186.5 43q138 0 242 -68t157.5 -182t53.5 -254q0 -219 -126 -363t-333 -144q-102 0 -182.5 39.5t-130.5 113.5v-473h211q35 -1 57 -22.5t22 -53.5q0 -33 -22 -54.5t-57 -21.5h-519q-34 0 -55.5 22t-21.5 54t21.5 54t55.5 22h144v1159h-146 q-34 2 -57 23.5t-23 52.5q0 33 23 54.5t57 21.5h228q32 0 55 -22.5t23 -53.5v-66zM711 129q139 0 219 103t80 251q0 150 -80 253.5t-219 103.5t-220 -103.5t-81 -253.5q0 -148 81 -251t220 -103z"/>
<glyph glyph-name="q" unicode="q" horiz-adv-x="1181" d="M858 836v77q0 31 24.5 54.5t57.5 23.5t57.5 -23.5t24.5 -54.5v-1253h139q32 0 55 -21.5t23 -52.5q0 -33 -22.5 -55.5t-55.5 -22.5h-530q-35 0 -57.5 22t-22.5 56q0 31 22.5 52.5t57.5 21.5h227v479q-49 -78 -132.5 -118.5t-186.5 -40.5q-206 0 -329.5 142.5t-123.5 360.5 q0 142 55 257t160.5 183t243.5 68q99 0 180.5 -41.5t132.5 -113.5zM258 483q0 -148 80 -251t219 -103t220 103t81 251q0 150 -81 253.5t-220 103.5t-219 -103.5t-80 -253.5z"/>
<glyph glyph-name="r" unicode="r" horiz-adv-x="1064" d="M279 819h-136q-30 0 -55 23t-25 53q0 33 23 54.5t57 21.5h215q34 0 57 -22t23 -56v-78q46 79 131 127.5t189 48.5q112 0 190 -60.5t78 -154.5q0 -72 -44 -115t-105 -43q-60 0 -102 35.5t-42 94.5q0 61 47 90q-32 16 -80 16q-103 0 -179.5 -98t-76.5 -275v-329h238 q33 0 55.5 -22.5t22.5 -53.5q0 -32 -23 -54t-55 -22h-545q-30 0 -54 22.5t-24 53.5q0 32 23 54t55 22h142v667z"/>
<glyph glyph-name="s" unicode="s" horiz-adv-x="1026" d="M981 279q0 -132 -100.5 -215.5t-278.5 -83.5q-121 0 -208.5 38.5t-137.5 94.5v-56q0 -33 -24 -53t-56 -20q-35 0 -58.5 21.5t-23.5 55.5v244q0 34 19 58t57 24q31 0 53 -25q9 -9 27 -34.5t35.5 -50.5t48.5 -55t65.5 -52.5t86 -37.5t110.5 -15q109 0 161 43.5t52 109.5 q0 54 -40 86t-108 45.5t-141 22t-155.5 26.5t-135.5 48q-118 67 -118 215q0 124 90.5 201t253.5 77q89 0 170 -31t129 -90l-2 39q0 36 19 59t60 23q34 0 58 -23t24 -55v-202q0 -33 -21 -56.5t-54 -23.5q-55 0 -78 45q-9 17 -19.5 33.5t-37 46.5t-57.5 51.5t-80 38t-105 16.5 q-90 0 -136 -37t-46 -100q0 -43 25 -70.5t74 -41.5t98 -21.5t122 -16.5t121 -20q262 -61 262 -276z"/>
<glyph glyph-name="t" unicode="t" horiz-adv-x="974" d="M428 1339v-368h375q33 0 54.5 -21.5t21.5 -54.5q0 -31 -22 -53.5t-54 -22.5h-375v-540q0 -64 45 -106t111 -42q67 0 109 42t42 106v108q0 34 25.5 57t60.5 23q34 0 57 -23t23 -57v-108q0 -131 -90 -215t-231 -84q-138 0 -227 79.5t-89 219.5v540h-176q-32 0 -55 22.5 t-23 53.5q0 33 22.5 54.5t55.5 21.5h176v368q0 33 23.5 56.5t58.5 23.5q34 0 58 -24t24 -56z"/>
<glyph glyph-name="u" unicode="u" horiz-adv-x="1331" d="M1079 893v-741h152q34 0 57 -22t23 -54t-23 -54t-57 -22h-234q-34 0 -56.5 22t-22.5 54v84q-54 -86 -145.5 -133t-192.5 -47q-157 0 -248.5 90t-91.5 264v485h-144q-33 0 -56.5 22.5t-23.5 53.5q0 33 23 54.5t57 21.5h230q33 0 55 -21.5t22 -54.5v-567q0 -57 16.5 -98 t45.5 -62.5t60.5 -31t68.5 -9.5q61 0 117 24t101.5 70t73 121t27.5 168v309h-155q-32 0 -54 22.5t-22 53.5q0 34 22 55t56 21h239q34 0 57 -22t23 -56z"/>
<glyph glyph-name="v" unicode="v" horiz-adv-x="1263" d="M631 -23q-68 0 -92 56l-351 786h-102q-32 0 -55 22.5t-23 53.5q0 33 22.5 54.5t55.5 21.5h401q33 0 55.5 -21.5t22.5 -54.5q0 -31 -23 -53.5t-55 -22.5h-116l264 -614l264 614h-115q-32 0 -55.5 22.5t-23.5 53.5q0 33 23 54.5t56 21.5h394q32 0 53.5 -21.5t21.5 -54.5 q0 -31 -21.5 -53.5t-53.5 -22.5h-105l-352 -786q-24 -56 -90 -56z"/>
<glyph glyph-name="w" unicode="w" horiz-adv-x="1830" d="M1004 911l264 -698l200 606h-141q-32 0 -55 22.5t-23 53.5q0 33 22.5 54.5t55.5 21.5h418q33 0 55.5 -21.5t22.5 -54.5q0 -31 -23 -53.5t-55 -22.5h-103l-286 -786q-9 -25 -35 -40.5t-55 -15.5q-31 0 -56.5 15.5t-35.5 42.5l-256 682l-263 -682q-10 -27 -34.5 -42.5 t-55.5 -15.5q-33 0 -58 14.5t-34 41.5l-285 786h-104q-32 0 -54 22.5t-22 53.5q0 33 21.5 54.5t54.5 21.5h424q32 0 55 -21.5t23 -54.5q0 -31 -23.5 -53.5t-54.5 -22.5h-141l200 -606l269 698q21 58 84 58q28 0 51 -15t33 -43z"/>
<glyph glyph-name="x" unicode="x" horiz-adv-x="1249" d="M133 152h82l295 346l-295 321h-82q-33 0 -55.5 22.5t-22.5 53.5q0 32 23 54t55 22h375q30 0 54 -22.5t24 -53.5q0 -32 -23 -54t-55 -22h-90l225 -250l207 250h-86q-33 0 -55.5 22.5t-22.5 53.5q0 32 23 54t55 22h358q30 0 54 -22.5t24 -53.5q0 -32 -23 -54t-55 -22h-90 l-293 -346l297 -321h86q32 3 55 -20t23 -56q0 -31 -24 -53.5t-54 -22.5h-358q-33 0 -55.5 21t-22.5 53t22.5 55.5t55.5 22.5h67l-225 249l-207 -249h109q32 0 55 -23t23 -55q0 -31 -24 -52.5t-54 -21.5h-375q-33 0 -55.5 21t-22.5 53q0 31 22.5 54.5t55.5 23.5z"/>
<glyph glyph-name="y" unicode="y" horiz-adv-x="1269" d="M201 -512q-123 0 -205 64t-82 163q0 70 45.5 115t108.5 45q61 0 100 -38.5t39 -100.5q0 -26 -13.5 -54.5t-33.5 -43.5q21 -9 61 -9q30 0 58 8t50.5 19.5t45.5 34t39 40t35.5 50.5t30.5 52.5t28.5 58.5t24.5 56.5t24 57.5l-360 813h-113q-32 0 -55 21.5t-23 52.5 q0 33 22.5 55.5t55.5 22.5h414q32 0 54.5 -22.5t22.5 -55.5q0 -31 -22.5 -52.5t-54.5 -21.5h-117l270 -631l267 631h-125q-32 0 -56 21.5t-24 52.5q0 33 23.5 55.5t56.5 22.5h393q32 0 54 -22t22 -56q0 -31 -22 -52.5t-54 -21.5h-105l-426 -985q-149 -346 -454 -346z"/>
<glyph glyph-name="z" unicode="z" horiz-adv-x="1116" d="M850 152v200q0 34 24 57t58 23t58 -23t24 -57v-276q0 -34 -22.5 -55t-57.5 -21h-764q-36 0 -60 24t-24 58q0 41 37 78l643 659h-490v-182q0 -34 -24 -57t-59 -23t-58.5 23t-23.5 57v258q0 33 23 54.5t59 21.5h720q42 0 67.5 -23.5t25.5 -58.5q0 -40 -39 -82l-639 -655 h522z"/>
<glyph glyph-name="braceleft" unicode="{" horiz-adv-x="716" d="M287 629q67 -17 110.5 -63.5t58.5 -95.5t15 -103q0 -58 -26.5 -207t-26.5 -215q0 -52 12.5 -88.5t32.5 -55.5t43.5 -31t47.5 -19.5t44 -16t32.5 -25.5t12.5 -43q0 -72 -94 -72q-53 0 -106.5 20.5t-100.5 60t-76.5 106t-29.5 149.5q0 65 30.5 221.5t30.5 229.5 q0 49 -10.5 81.5t-34.5 49.5t-45.5 24.5t-61.5 14.5q-73 15 -73 78t73 78q40 7 61.5 14.5t45.5 24.5t34.5 49.5t10.5 81.5q0 73 -30.5 229t-30.5 221q0 83 29.5 149.5t76.5 106t100.5 60t106.5 20.5q94 0 94 -72q0 -26 -12.5 -43t-32.5 -25.5t-44 -15.5t-47.5 -19.5 t-43.5 -31t-32.5 -55t-12.5 -88.5q0 -66 26.5 -215t26.5 -207q0 -54 -15 -103t-58.5 -95.5t-110.5 -63.5z"/>
<glyph glyph-name="bar" unicode="|" horiz-adv-x="716" d="M276 -381v2073q0 33 23.5 56.5t58.5 23.5q32 0 57 -24t25 -56v-2073q0 -33 -24.5 -56.5t-57.5 -23.5q-35 0 -58.5 23t-23.5 57z"/>
<glyph glyph-name="braceright" unicode="}" horiz-adv-x="716" d="M428 629q-67 17 -110.5 63.5t-58.5 95.5t-15 103q0 58 26.5 207t26.5 215q0 52 -12.5 88.5t-32.5 55t-44 31t-47.5 19.5t-43.5 15.5t-32.5 25.5t-12.5 43q0 72 94 72q53 0 106.5 -20.5t100.5 -60t76.5 -106t29.5 -149.5q0 -65 -30.5 -221t-30.5 -229q0 -49 10.5 -81.5 t34 -49.5t45 -24.5t61.5 -14.5q74 -15 74 -78t-74 -78q-40 -7 -61.5 -14.5t-45 -24.5t-34 -49.5t-10.5 -81.5q0 -73 30.5 -229.5t30.5 -221.5q0 -83 -29.5 -149.5t-76.5 -106t-100.5 -60t-106.5 -20.5q-94 0 -94 72q0 26 12.5 43t32.5 25.5t43.5 16t47.5 19.5t44 31 t32.5 55.5t12.5 88.5q0 66 -26.5 215t-26.5 207q0 54 15 103t58.5 95.5t110.5 63.5z"/>
<glyph glyph-name="asciitilde" unicode="~" horiz-adv-x="1249" d="M406 686q-18 0 -33 -7.5t-20 -12.5t-15 -17q-25 -38 -41.5 -52.5t-46.5 -14.5q-32 0 -52 22t-20 55q0 60 61 121.5t164 61.5q74 0 231.5 -53.5t199.5 -53.5q29 0 50 16.5t30.5 36t28 36t44.5 16.5q37 0 55.5 -21.5t18.5 -56.5q0 -64 -64 -123t-161 -59q-61 0 -152 26.5 t-169 53t-109 26.5z"/>
<glyph glyph-name="exclamdown" unicode="" horiz-adv-x="614" d="M307 473q28 0 52 -19t28 -61q70 -651 70 -733q0 -62 -40 -102.5t-110 -40.5q-71 0 -110 40t-39 103q0 36 17 219.5t35 348.5l17 165q3 42 27.5 61t52.5 19zM133 817q0 72 51 123t123 51t122 -51t50 -123t-50 -122t-122 -50t-123 50t-51 122z"/>
<glyph glyph-name="cent" unicode="" horiz-adv-x="1413" d="M551 -373l35 373q-157 42 -246.5 172.5t-89.5 310.5q0 211 122 346t306 158l33 379q3 29 23 49.5t54 20.5q37 0 59 -23t19 -53l-35 -377q127 -20 210 -92.5t83 -165.5q0 -69 -42 -112.5t-105 -43.5q-60 0 -103 40t-43 98q0 69 56 106q-29 18 -68 29l-67 -713 q95 0 155.5 42t108.5 112q24 36 67 36q31 0 53.5 -20.5t22.5 -54.5q0 -42 -55 -111q-127 -149 -367 -153l-32 -359q-3 -26 -25 -44.5t-51 -18.5q-34 0 -57.5 20.5t-20.5 48.5zM422 487q0 -111 45.5 -198t132.5 -129l64 678q-104 -29 -173 -122t-69 -229z"/>
<glyph glyph-name="sterling" unicode="" horiz-adv-x="1413" d="M612 801h320q32 0 54 -22t22 -54t-22 -54t-54 -22h-311q2 -47 2 -141q0 -95 -13 -156q164 -112 231 -147q132 -70 236 -70q89 0 138 41.5t49 106.5q0 51 -28 82t-67 38q-54 9 -85 27t-31 57q0 84 98 84q113 0 200 -83t87 -205q0 -58 -20 -110.5t-61.5 -97.5t-115 -71.5 t-170.5 -26.5q-68 0 -128 13t-119.5 42.5t-94.5 51t-99 65.5q-15 10 -22 15l-53 37q-92 -217 -305 -217q-125 0 -199 73t-74 181q0 113 79 188.5t208 75.5q44 0 85 -12t75 -29l35 -17q4 20 4 76q0 15 -1 36t-2.5 49t-2.5 44h-170q-32 0 -54 22t-22 54t22 54t54 22h162 q-7 137 -7 139q0 80 15 152.5t49.5 138.5t85.5 113.5t128.5 75.5t172.5 28q159 0 264 -79t105 -187q0 -68 -42 -112t-104 -44q-61 0 -102 37.5t-41 97.5q0 68 53 103q-55 41 -133 41q-77 0 -133.5 -33.5t-88 -92.5t-46.5 -130t-15 -156q0 -16 1 -47t1 -45zM426 291 q-81 61 -152 61q-60 0 -95.5 -31t-35.5 -81q0 -46 31 -79.5t88 -33.5q113 0 164 164z"/>
<glyph glyph-name="currency" unicode="" horiz-adv-x="1341" d="M672 1153q138 0 252 -74l131 129q26 23 53 23q31 0 55.5 -24.5t24.5 -55.5q0 -35 -23 -55l-127 -123q78 -116 78 -256q0 -138 -72 -248l119 -117q25 -22 25 -55q0 -31 -24.5 -55.5t-55.5 -24.5q-30 0 -53 23l-123 118q-116 -77 -260 -77t-260 77l-123 -118 q-23 -23 -53 -23q-31 0 -55.5 24.5t-24.5 55.5q0 34 24 55l119 117q-72 110 -72 248q0 140 78 256l-127 123q-22 19 -22 55q0 31 24.5 55.5t55.5 24.5q27 0 53 -23l131 -129q114 74 252 74zM672 1004q-133 0 -207 -84.5t-74 -202.5q0 -76 30 -139.5t95.5 -105.5t155.5 -42 q68 0 122.5 24t88.5 64.5t51.5 91.5t17.5 107q0 118 -73.5 202.5t-206.5 84.5z"/>
<glyph glyph-name="yen" unicode="" horiz-adv-x="1413" d="M362 1278l349 -610l352 610h-154q-34 0 -57 23t-23 55t23 55t57 23h424q34 0 57 -23t23 -55t-23 -55t-57 -23h-92l-174 -293h147q31 0 53.5 -22t22.5 -54q0 -31 -22 -53t-54 -22h-235l-129 -218h364q31 0 53.5 -21.5t22.5 -51.5q0 -32 -22 -54t-54 -22h-426v-313h195 q34 0 57 -22t23 -54q0 -34 -23 -56t-57 -22h-561q-33 0 -55.5 22.5t-22.5 55.5q0 32 23 54t55 22h196v313h-417q-31 0 -54.5 21.5t-23.5 54.5q0 31 23 52t55 21h358l-127 218h-231q-28 0 -53 22t-25 53q0 32 23 54t55 22h141l-170 293h-94q-33 0 -55.5 22.5t-22.5 55.5 t22.5 55.5t55.5 22.5h432q34 0 57 -23t23 -55t-23 -55t-57 -23h-148z"/>
<glyph glyph-name="brokenbar" unicode="" horiz-adv-x="716" d="M276 838v854q0 33 23.5 56.5t58.5 23.5q32 0 57 -24t25 -56v-854q0 -33 -24.5 -56.5t-57.5 -23.5q-35 0 -58.5 23t-23.5 57zM276 -381v885q0 33 23.5 56.5t58.5 23.5q32 0 57 -24t25 -56v-885q0 -33 -24.5 -56.5t-57.5 -23.5q-35 0 -58.5 23t-23.5 57z"/>
<glyph glyph-name="section" unicode="" horiz-adv-x="1234" d="M1151 637q0 -52 -20.5 -101t-75 -97t-137.5 -72q116 -81 116 -236q0 -71 -31 -129t-82 -95t-115.5 -57t-133.5 -20q-86 0 -166.5 31.5t-136.5 87.5v-27q0 -37 -21.5 -61.5t-62.5 -24.5q-35 0 -57.5 22.5t-22.5 57.5v234q0 37 21 61.5t57 24.5q25 0 46.5 -16t32.5 -40 q10 -22 22 -42.5t38.5 -52t56.5 -54t76.5 -39.5t99.5 -17q81 0 146 40t65 120q0 53 -33 91.5t-87.5 59t-124 39.5t-141.5 32t-141.5 38t-124 56.5t-87.5 87.5t-33 131q0 97 55 167.5t166 106.5q-60 30 -101.5 95t-41.5 145q0 78 33 138.5t87.5 96t118 53t130.5 17.5 q165 0 288 -113v17q0 41 21.5 63.5t60.5 22.5q86 0 86 -113v-197q0 -37 -21 -61.5t-58 -24.5q-25 0 -46 16t-30 40q-7 14 -11.5 22t-24 38.5t-42.5 52t-55.5 46.5t-76 38.5t-91.5 13.5q-84 0 -143.5 -40.5t-59.5 -117.5q0 -59 45 -100t116.5 -64t158 -42t173.5 -43.5 t158.5 -59t116.5 -97t45 -149.5zM979 627q0 30 -14.5 54.5t-44.5 43.5t-62 34t-79.5 28t-85 22t-91 21t-84.5 20h-47q-97 0 -154 -44.5t-57 -109.5q0 -49 31.5 -85t89 -58.5t114 -37t131 -31.5t115.5 -31q69 10 118.5 30.5t74 46.5t35 49.5t10.5 47.5z"/>
<glyph glyph-name="dieresis" unicode="" horiz-adv-x="921" d="M88 1296q0 65 47 111.5t113 46.5q64 0 111 -47t47 -111q0 -66 -46.5 -112.5t-111.5 -46.5q-66 0 -113 46.5t-47 112.5zM514 1296q0 65 47 111.5t113 46.5q64 0 110.5 -46.5t46.5 -111.5q0 -66 -46 -112.5t-111 -46.5q-66 0 -113 46.5t-47 112.5z"/>
<glyph glyph-name="copyright" unicode="" horiz-adv-x="1802" d="M1284 543q0 -24 -11.5 -61.5t-41.5 -85.5t-73 -88.5t-114 -68.5t-157 -28q-200 0 -319 142.5t-119 375.5q0 236 120.5 383.5t311.5 147.5q129 0 221 -80v18q0 22 18 42t47 20q27 0 46 -13t22 -37q9 -77 18 -158.5t13 -120.5t4 -38q0 -28 -18 -45t-50 -17q-55 0 -67 56 q-34 109 -94.5 173t-145.5 64q-139 0 -219 -105.5t-80 -287.5q0 -179 78.5 -283t218.5 -104q48 0 88 14t65 33t47 51.5t34 57.5t26 63q15 45 66 45q32 0 48.5 -17.5t16.5 -47.5zM1698 731q0 -165 -61.5 -313t-167 -255t-253.5 -170t-315 -63q-168 0 -316.5 63t-254 170 t-167 255t-61.5 313t61.5 313t167 255t254 170t316.5 63q167 0 315 -63t253.5 -170t167 -255t61.5 -313zM242 731q0 -185 85 -338.5t236.5 -243.5t337.5 -90q185 0 336.5 90t236.5 243.5t85 338.5t-85 338.5t-236.5 243.5t-336.5 90q-186 0 -337.5 -90t-236.5 -243.5 t-85 -338.5z"/>
<glyph glyph-name="ordfeminine" unicode="" horiz-adv-x="946" d="M584 911v136h-56q-46 0 -76 -1t-70 -5t-65.5 -12.5t-50 -22.5t-36 -37t-11.5 -54q0 -54 38 -82t101 -28q69 0 135.5 30.5t90.5 75.5zM584 1159v33q0 145 -164 145q-55 0 -105.5 -14.5t-85.5 -29.5t-51 -15q-28 0 -43.5 15.5t-15.5 39.5q0 49 94 87t215 38q135 0 212 -67 t77 -191v-375h86q27 0 45 -17t18 -42q0 -28 -17.5 -46t-45.5 -18h-127q-28 0 -57 25t-29 57q-95 -98 -242 -98q-115 0 -189.5 59.5t-74.5 167.5q0 49 15.5 88t39 64t61 43.5t72 28t82 15t80.5 6.5t78 1h72z"/>
<glyph glyph-name="guillemotleft" unicode="" horiz-adv-x="1087" d="M35 494q0 26 26 59l349 410q30 34 69 34q37 0 59.5 -23.5t22.5 -51.5q0 -36 -22 -64l-306 -364l306 -365q22 -25 22 -61q0 -29 -22.5 -53.5t-59.5 -24.5q-39 0 -69 37l-349 409q-26 29 -26 58zM479 494q0 25 27 59l348 410q30 34 70 34q37 0 59.5 -23.5t22.5 -51.5 q0 -35 -23 -64l-305 -364l305 -365q23 -26 23 -61q0 -29 -22.5 -53.5t-59.5 -24.5q-40 0 -70 37l-348 409q-27 30 -27 58z"/>
<glyph glyph-name="logicalnot" unicode="" horiz-adv-x="1249" d="M1057 920v-338q0 -33 -23.5 -55.5t-58.5 -22.5q-34 0 -57 23t-23 55v262h-627q-34 0 -56 22t-22 54t22 53.5t56 21.5h713q32 0 54 -21.5t22 -53.5z"/>
<glyph glyph-name="uni00AD" unicode="" horiz-adv-x="0"/>
<glyph glyph-name="registered" unicode="" horiz-adv-x="1802" d="M1698 731q0 -165 -61.5 -313t-167 -255t-253.5 -170t-315 -63q-168 0 -316.5 63t-254 170t-167 255t-61.5 313t61.5 313t167 255t254 170t316.5 63q167 0 315 -63t253.5 -170t167 -255t61.5 -313zM901 1403q-228 0 -401 -133h413q87 0 153 -26t103.5 -69t55.5 -91.5 t18 -100.5q0 -73 -49.5 -148t-132.5 -112q80 -76 133 -182l94 -193h156q115 169 115 383q0 185 -85 338.5t-236.5 243.5t-336.5 90zM242 731q0 -139 50 -263t140 -216q-4 16 -4 27q0 31 19.5 50t50.5 19h94v785h-86q-31 0 -50.5 19t-19.5 50v12q-92 -94 -143 -218.5 t-51 -264.5zM498 211q-19 0 -27 4q183 -156 430 -156q233 0 420 152h-82q-43 0 -63 41l-123 254h-2q-63 126 -138 164h-178v-322h119q31 0 50.5 -19t19.5 -50q0 -29 -19.5 -48.5t-50.5 -19.5h-356zM1096 981q0 64 -45.5 108t-139.5 44h-176v-328h174q86 0 136.5 52.5 t50.5 123.5z"/>
<glyph glyph-name="macron" unicode="" horiz-adv-x="950" d="M731 1180h-512q-32 0 -54 21.5t-22 53.5t22 54t54 22h512q32 0 54 -22t22 -54t-22 -53.5t-54 -21.5z"/>
<glyph glyph-name="degree" unicode="" horiz-adv-x="872" d="M799 1090q0 -152 -98.5 -253.5t-264.5 -101.5q-167 0 -265.5 101t-98.5 254q0 151 98.5 252.5t265.5 101.5q166 0 264.5 -101.5t98.5 -252.5zM236 1087q0 -91 50.5 -149.5t149.5 -58.5q98 0 149.5 59t51.5 149q0 92 -51.5 152.5t-149.5 60.5q-99 0 -149.5 -60t-50.5 -153 z"/>
<glyph glyph-name="plusminus" unicode="" horiz-adv-x="1249" d="M1081 0h-915q-34 0 -57 23t-23 55q0 31 23.5 53.5t56.5 22.5h915q33 0 56.5 -22.5t23.5 -53.5q0 -32 -23 -55t-57 -23zM707 707v-365q0 -35 -24.5 -59.5t-59.5 -24.5t-58.5 24.5t-23.5 59.5v365h-375q-31 0 -55.5 22.5t-24.5 52.5q0 32 23 54t57 22h375v365 q0 35 23.5 59.5t58.5 24.5t59.5 -24.5t24.5 -59.5v-365h374q31 0 55.5 -23t24.5 -53q0 -32 -23 -53.5t-57 -21.5h-374z"/>
<glyph glyph-name="twosuperior" unicode="" d="M610 690v80q0 26 20 45t46 19t43.5 -18.5t17.5 -45.5v-141q0 -26 -17 -42t-44 -16h-463q-33 0 -47 15t-14 51q0 120 170 262q35 29 83 64t77 57t58 50t42.5 58t13.5 66q0 57 -44.5 100t-111.5 43q-47 0 -87.5 -18t-61.5 -51q24 -12 39.5 -38t15.5 -54q0 -37 -29 -65 t-71 -28q-44 0 -74.5 33.5t-30.5 87.5q0 98 88 170t213 72q123 0 204 -70.5t81 -181.5q0 -60 -26.5 -112.5t-67 -88.5t-91.5 -74t-98 -68.5t-89 -73t-62 -87.5h317z"/>
<glyph glyph-name="threesuperior" unicode="" d="M707 1317l-193 -182q103 -24 167 -95.5t64 -177.5q0 -134 -95 -221.5t-238 -87.5q-117 0 -199 51t-82 133q0 53 32 83t73 30q43 0 71.5 -28.5t28.5 -67.5q0 -17 -9.5 -37.5t-19.5 -30.5q39 -20 99 -20q90 0 148 53t58 139q0 80 -54.5 127t-131.5 55l-51 -49 q-21 -18 -47 -18q-25 0 -41.5 17t-16.5 40q0 26 19 45l241 232h-303q-28 0 -44.5 16.5t-16.5 42.5t16.5 42.5t44.5 16.5h443q23 0 41 -15t18 -40q0 -34 -22 -53z"/>
<glyph glyph-name="acute" unicode="" horiz-adv-x="921" d="M725 1368l-451 -246q-22 -12 -47 -12q-32 0 -53.5 22t-21.5 52q0 45 38 65l459 256q16 8 39 8q32 0 55 -21t23 -54q0 -49 -41 -70z"/>
<glyph glyph-name="mu" unicode="" horiz-adv-x="1327" d="M399 41v-463q0 -34 -23.5 -57t-58.5 -23t-58 23t-23 57v1241h-134q-34 0 -56.5 21.5t-22.5 52.5q0 34 22.5 56t56.5 22h220q32 0 54.5 -22.5t22.5 -55.5v-569q0 -56 18.5 -97t49.5 -62.5t64.5 -31.5t70.5 -10q127 0 217 98t90 279v319h-155q-32 0 -54 21.5t-22 52.5 q0 34 22 56t56 22h239q34 0 57 -22t23 -56v-741h152q34 0 57 -22t23 -54t-23 -54t-57 -22h-234q-34 0 -57 22t-23 54v80q-107 -176 -309 -176q-136 0 -205 61z"/>
<glyph glyph-name="paragraph" unicode="" horiz-adv-x="1681" d="M649 -70v500q-144 0 -265.5 65t-193 180t-71.5 255q0 144 75 260.5t200 180t274 63.5h860q32 0 55 -23t23 -55q0 -31 -23 -54.5t-55 -23.5h-240v-1124h240q32 0 55 -22.5t23 -53.5q0 -32 -23 -55t-55 -23h-332q-32 0 -54 22t-22 54v1202h-303v-1280q0 -522 -436 -522 q-100 0 -177 27t-119 70.5t-62.5 90t-20.5 92.5q0 72 45 123t107 51t105.5 -39.5t43.5 -105.5q0 -86 -76 -125q48 -39 152 -39q127 0 198.5 80.5t71.5 228.5z"/>
<glyph glyph-name="periodcentered" unicode="" horiz-adv-x="653" d="M133 725q0 72 51 122t123 50t122 -50t50 -122t-50 -123t-122 -51t-123 51t-51 123z"/>
<glyph glyph-name="cedilla" unicode="" horiz-adv-x="866" d="M336 27h143q-12 -27 -33.5 -80.5t-31.5 -77.5q299 0 299 -219q0 -82 -46 -139.5t-115 -82t-155 -24.5q-127 0 -213 43q-45 22 -45 70q0 32 21 53.5t53 21.5q10 0 62.5 -20.5t105.5 -20.5q84 0 123 26.5t39 68.5q0 86 -135 86q-19 0 -48.5 -2t-40.5 -2q-35 0 -56 20 t-21 49q0 27 14 56z"/>
<glyph glyph-name="onesuperior" unicode="" d="M514 1378v-688h156q27 0 44 -17t17 -42q0 -27 -16.5 -43.5t-44.5 -16.5h-451q-27 0 -44 16.5t-17 43.5q0 25 17 42t44 17h168v529l-125 -164q-19 -25 -49 -25q-27 0 -46.5 17t-19.5 43q0 17 15 38l225 289q26 29 59 29q28 0 48 -18.5t20 -49.5z"/>
<glyph glyph-name="ordmasculine" unicode="" horiz-adv-x="862" d="M786 1073q0 -164 -99 -274.5t-257 -110.5t-256 110t-98 275t98 275t256 110t257 -110.5t99 -274.5zM211 1073q0 -109 58.5 -184.5t160.5 -75.5t160.5 75.5t58.5 184.5q0 110 -58.5 186t-160.5 76t-160.5 -76t-58.5 -186z"/>
<glyph glyph-name="guillemotright" unicode="" horiz-adv-x="1087" d="M608 494q0 -29 -26 -58l-349 -409q-30 -37 -69 -37q-37 0 -59.5 24.5t-22.5 53.5q0 36 22 61l306 365l-306 364q-22 28 -22 64q0 28 22.5 51.5t59.5 23.5q39 0 69 -34l349 -410q26 -33 26 -59zM1053 494q0 -28 -27 -58l-348 -409q-30 -37 -70 -37q-37 0 -59.5 24.5 t-22.5 53.5q0 35 23 61l305 365l-305 364q-23 29 -23 64q0 28 22.5 51.5t59.5 23.5q40 0 70 -34l348 -410q27 -34 27 -59z"/>
<glyph glyph-name="onequarter" unicode="" horiz-adv-x="2211" d="M1784 1354l-1258 -1346q-25 -28 -57 -28q-26 0 -42.5 16.5t-16.5 38.5q0 27 16 43l1262 1352q21 24 51 24q25 0 43 -17t18 -40q0 -24 -16 -43zM541 1378v-688h155q27 0 44.5 -17t17.5 -42q0 -26 -17 -43t-45 -17h-450q-28 0 -45 17t-17 43q0 25 17.5 42t44.5 17h168v529 l-125 -164q-19 -25 -49 -25q-27 0 -46.5 17t-19.5 43q0 18 14 38l226 289q26 29 59 29q28 0 48 -18.5t20 -49.5zM2046 305q0 -29 -17 -44t-47 -15h-114v-191q0 -25 -19 -42t-45 -17q-27 0 -45 16.5t-18 42.5v191h-369q-28 0 -43.5 18t-15.5 43t33 62q99 112 167.5 214.5 t114.5 221.5l17 43q16 37 53 37q29 0 44 -19t15 -49q-19 -100 -95 -226t-169 -229h248v160q0 36 15.5 60t47.5 24q33 0 48.5 -24t15.5 -60v-160h114q29 0 46.5 -15.5t17.5 -41.5z"/>
<glyph glyph-name="onehalf" unicode="" horiz-adv-x="2211" d="M1784 1354l-1258 -1346q-25 -28 -57 -28q-26 0 -42.5 16.5t-16.5 38.5q0 27 16 43l1262 1352q21 24 51 24q25 0 43 -17t18 -40q0 -24 -16 -43zM541 1378v-688h155q27 0 44.5 -17t17.5 -42q0 -26 -17 -43t-45 -17h-450q-28 0 -45 17t-17 43q0 25 17.5 42t44.5 17h168v529 l-125 -164q-19 -25 -49 -25q-27 0 -46.5 17t-19.5 43q0 18 14 38l226 289q26 29 59 29q28 0 48 -18.5t20 -49.5zM1911 119v80q0 26 19.5 44.5t45.5 18.5t44 -18.5t18 -44.5v-142q0 -26 -17.5 -41.5t-44.5 -15.5h-463q-33 0 -47 15t-14 51q0 120 170 262q35 29 83 64t77 57 t58 50t42.5 58t13.5 66q0 57 -44 100t-111 43q-47 0 -88 -18.5t-62 -51.5q25 -12 40.5 -38t15.5 -54q0 -37 -29.5 -64.5t-71.5 -27.5q-44 0 -74 33.5t-30 87.5q0 98 88 169.5t213 71.5q123 0 204 -70t81 -181q0 -71 -36.5 -130.5t-92.5 -102.5t-115 -82t-113.5 -88 t-77.5 -101h318z"/>
<glyph glyph-name="threequarters" unicode="" horiz-adv-x="2211" d="M1784 1354l-1258 -1346q-25 -28 -57 -28q-26 0 -42.5 16.5t-16.5 38.5q0 27 16 43l1262 1352q21 24 51 24q25 0 43 -17t18 -40q0 -24 -16 -43zM2046 305q0 -29 -17 -44t-47 -15h-114v-191q0 -25 -19 -42t-45 -17q-27 0 -45 16.5t-18 42.5v191h-369q-28 0 -43.5 18 t-15.5 43t33 62q99 112 167.5 214.5t114.5 221.5l17 43q16 37 53 37q29 0 44 -19t15 -49q-19 -100 -95 -226t-169 -229h248v160q0 36 15.5 60t47.5 24q33 0 48.5 -24t15.5 -60v-160h114q29 0 46.5 -15.5t17.5 -41.5zM754 1317l-193 -182q103 -24 167.5 -95.5t64.5 -177.5 q0 -134 -95.5 -221.5t-238.5 -87.5q-117 0 -199 51t-82 133q0 53 32 83t73 30q43 0 71.5 -28.5t28.5 -67.5q0 -17 -9.5 -37.5t-19.5 -30.5q39 -20 99 -20q90 0 148 53t58 139q0 80 -54.5 127t-131.5 55l-51 -49q-21 -18 -47 -18q-25 0 -41.5 17t-16.5 40q0 26 19 45l242 232 h-304q-28 0 -44.5 16.5t-16.5 42.5t16.5 42.5t44.5 16.5h443q23 0 41 -15t18 -40q0 -34 -22 -53z"/>
<glyph glyph-name="questiondown" unicode="" horiz-adv-x="1046" d="M487 299v102q0 34 24 57t58 23t58 -23t24 -57v-153q0 -38 -17 -57t-54 -25q-38 -7 -60.5 -11.5t-60 -14.5t-61 -21.5t-52.5 -31.5t-45 -44t-27.5 -58.5t-11.5 -76.5q0 -116 73.5 -182t192.5 -66q80 0 139 31t87 65q-40 14 -64 47.5t-24 79.5q0 59 40 97t101 38 q70 0 115 -49.5t45 -113.5q0 -144 -127.5 -241t-311.5 -97q-200 0 -319 110.5t-119 278.5q0 159 101.5 263t295.5 130zM729 817q0 -72 -51 -122t-123 -50t-122 50t-50 122t50 123t122 51t123 -51t51 -123z"/>
<glyph glyph-name="Agrave" unicode="" horiz-adv-x="1478" d="M1096 154l-123 364h-471l-125 -364h174q34 0 57 -22t23 -54q0 -34 -23 -56t-57 -22h-477q-34 0 -57 22t-23 56q0 32 23 54t57 22h133l444 1267q24 66 88 66q33 0 55.5 -18t30.5 -44l447 -1271h133q34 0 57 -22t23 -54q0 -34 -23 -56t-57 -22h-477q-34 0 -58 22.5 t-24 55.5q0 32 24 54t58 22h168zM737 1229l-190 -565h379zM924 1585l-451 246q-41 21 -41 70q0 33 23 54t55 21q23 0 39 -8l459 -256q39 -20 39 -65q0 -30 -22 -52t-54 -22q-25 0 -47 12z"/>
<glyph glyph-name="Aacute" unicode="" horiz-adv-x="1478" d="M1096 154l-123 364h-471l-125 -364h174q34 0 57 -22t23 -54q0 -34 -23 -56t-57 -22h-477q-34 0 -57 22t-23 56q0 32 23 54t57 22h133l444 1267q24 66 88 66q33 0 55.5 -18t30.5 -44l447 -1271h133q34 0 57 -22t23 -54q0 -34 -23 -56t-57 -22h-477q-34 0 -58 22.5 t-24 55.5q0 32 24 54t58 22h168zM737 1229l-190 -565h379zM1006 1831l-451 -246q-22 -12 -47 -12q-32 0 -54 22t-22 52q0 45 39 65l459 256q16 8 39 8q32 0 55 -21t23 -54q0 -49 -41 -70z"/>
<glyph glyph-name="Acircumflex" unicode="" horiz-adv-x="1478" d="M1096 154l-123 364h-471l-125 -364h174q34 0 57 -22t23 -54q0 -34 -23 -56t-57 -22h-477q-34 0 -57 22t-23 56q0 32 23 54t57 22h133l444 1267q24 66 88 66q33 0 55.5 -18t30.5 -44l447 -1271h133q34 0 57 -22t23 -54q0 -34 -23 -56t-57 -22h-477q-34 0 -58 22.5 t-24 55.5q0 32 24 54t58 22h168zM737 1229l-190 -565h379zM741 1999q23 0 47 -21l308 -254q19 -16 26.5 -23.5t16 -22.5t8.5 -31q0 -32 -23.5 -56t-54.5 -24q-32 0 -57 22l-271 226l-270 -226q-25 -22 -57 -22q-31 0 -54.5 24t-23.5 56q0 16 8.5 31t16 22.5t26.5 23.5 l307 254q24 21 47 21z"/>
<glyph glyph-name="Atilde" unicode="" horiz-adv-x="1478" d="M1096 154l-123 364h-471l-125 -364h174q34 0 57 -22t23 -54q0 -34 -23 -56t-57 -22h-477q-34 0 -57 22t-23 56q0 32 23 54t57 22h133l444 1267q24 66 88 66q33 0 55.5 -18t30.5 -44l447 -1271h133q34 0 57 -22t23 -54q0 -34 -23 -56t-57 -22h-477q-34 0 -58 22.5 t-24 55.5q0 32 24 54t58 22h168zM737 1229l-190 -565h379zM575 1696q-26 0 -45 -13.5t-41 -46.5q-24 -32 -61 -32q-32 0 -53 23t-21 54q0 59 58.5 118t150.5 59q65 0 187.5 -45.5t158.5 -45.5q30 0 48 15t24.5 32.5t23.5 32.5t46 15q31 0 54 -20t23 -52q0 -61 -55.5 -121.5 t-154.5 -60.5q-57 0 -127 22t-128.5 44t-87.5 22z"/>
<glyph glyph-name="Adieresis" unicode="" horiz-adv-x="1478" d="M1096 154l-123 364h-471l-125 -364h174q34 0 57 -22t23 -54q0 -34 -23 -56t-57 -22h-477q-34 0 -57 22t-23 56q0 32 23 54t57 22h133l444 1267q24 66 88 66q33 0 55.5 -18t30.5 -44l447 -1271h133q34 0 57 -22t23 -54q0 -34 -23 -56t-57 -22h-477q-34 0 -58 22.5 t-24 55.5q0 32 24 54t58 22h168zM737 1229l-190 -565h379zM367 1759q0 65 46.5 111.5t112.5 46.5q64 0 111 -46.5t47 -111.5q0 -66 -46.5 -113t-111.5 -47q-66 0 -112.5 47t-46.5 113zM793 1759q0 65 46.5 111.5t112.5 46.5q64 0 111 -46.5t47 -111.5q0 -66 -46.5 -113 t-111.5 -47q-66 0 -112.5 47t-46.5 113z"/>
<glyph glyph-name="Aring" unicode="" horiz-adv-x="1478" d="M575 1548q0 -69 48 -117.5t114 -48.5t114 48.5t48 117.5q0 68 -48 117t-114 49t-114 -49t-48 -117zM600 1282q-76 36 -122 106.5t-46 157.5q0 126 89.5 213.5t215.5 87.5t215.5 -87.5t89.5 -213.5q0 -86 -45 -157t-120 -107l395 -1128h133q34 0 57 -22t23 -54 q0 -34 -23 -56t-57 -22h-477q-34 0 -58 22.5t-24 55.5q0 32 24 54t58 22h168l-123 364h-471l-125 -364h174q34 0 57 -22t23 -54q0 -34 -23 -56t-57 -22h-477q-34 0 -57 22t-23 56q0 32 23 54t57 22h133zM737 1229l-190 -565h379z"/>
<glyph glyph-name="AE" unicode="" horiz-adv-x="2197" d="M1262 823h241v152q0 34 25 58t59 24q35 0 59.5 -24t24.5 -58v-457q0 -35 -24.5 -58.5t-59.5 -23.5q-34 0 -59 23.5t-25 58.5v150h-241v-514h647l45 245q6 33 30 51.5t56 18.5q34 0 57 -21t23 -57v-14q-4 -27 -29 -157.5t-29 -153.5q-6 -29 -30.5 -47.5t-53.5 -18.5h-1058 q-34 0 -58 22.5t-24 55.5q0 32 24 54t58 22h176v378h-492l-229 -378h227q34 0 57 -22t23 -54q0 -34 -23 -56t-57 -22h-551q-34 0 -56 22t-22 56q0 32 22 54t56 22h137l701 1124h-197q-34 0 -57 23t-23 55t23 55t57 23h1235q32 0 56.5 -21t27.5 -55l19 -285q0 -36 -25 -59 t-61 -23t-58.5 21.5t-25.5 54.5l-17 211h-581v-455zM1096 1278h-43l-363 -592h406v592z"/>
<glyph glyph-name="Ccedilla" unicode="" horiz-adv-x="1310" d="M1202 426q0 -31 -15.5 -80.5t-54.5 -114t-94.5 -119t-147.5 -93t-202 -39.5q-24 -56 -45 -111q299 0 299 -219q0 -82 -45.5 -139.5t-114.5 -82t-155 -24.5q-127 0 -213 43q-45 22 -45 70q0 32 20.5 53.5t52.5 21.5q10 0 62.5 -20.5t105.5 -20.5q84 0 123 26.5t39 68.5 q0 86 -135 86q-19 0 -48 -2t-40 -2q-36 0 -57 20t-21 49q0 27 14 56l66 143q-204 47 -321 238t-117 473q0 224 73 395t198.5 261.5t281.5 90.5q218 0 319 -145l-6 67q-3 32 19 55t55 23q34 0 56.5 -20t25.5 -52l49 -442q3 -33 -20 -55.5t-62 -22.5q-62 0 -80 66 q-14 51 -24.5 85t-27.5 77t-34 71.5t-42 58t-54 46.5t-67.5 28t-84.5 11q-185 0 -294 -164t-109 -430q0 -260 111.5 -421t299.5 -161q63 0 115.5 19t87 47.5t65 75t48.5 86.5t39 98q19 51 71 51q38 0 59 -22.5t21 -57.5z"/>
<glyph glyph-name="Egrave" unicode="" horiz-adv-x="1435" d="M758 823v142q0 34 25 58t59 24q35 0 59.5 -24t24.5 -58v-437q0 -35 -24.5 -58.5t-59.5 -23.5q-34 0 -59 23.5t-25 58.5v140h-260v-514h645l47 245q6 33 29.5 51.5t54.5 18.5q37 0 63 -26.5t19 -65.5l-58 -311q-6 -29 -31 -47.5t-55 -18.5h-1058q-34 0 -57 22t-23 56 q0 32 23 54t57 22h176v1124h-176q-34 0 -57 23t-23 55t23 55t57 23h1007q34 0 58.5 -21t25.5 -55l17 -283q1 -36 -23.5 -60t-60.5 -24q-35 0 -58 21.5t-26 54.5l-15 211h-581v-455h260zM901 1585l-450 246q-41 21 -41 70q0 33 22.5 54t54.5 21q23 0 39 -8l459 -256 q39 -20 39 -65q0 -30 -22 -52t-54 -22q-25 0 -47 12z"/>
<glyph glyph-name="Eacute" unicode="" horiz-adv-x="1435" d="M758 823v142q0 34 25 58t59 24q35 0 59.5 -24t24.5 -58v-437q0 -35 -24.5 -58.5t-59.5 -23.5q-34 0 -59 23.5t-25 58.5v140h-260v-514h645l47 245q6 33 29.5 51.5t54.5 18.5q37 0 63 -26.5t19 -65.5l-58 -311q-6 -29 -31 -47.5t-55 -18.5h-1058q-34 0 -57 22t-23 56 q0 32 23 54t57 22h176v1124h-176q-34 0 -57 23t-23 55t23 55t57 23h1007q34 0 58.5 -21t25.5 -55l17 -283q1 -36 -23.5 -60t-60.5 -24q-35 0 -58 21.5t-26 54.5l-15 211h-581v-455h260zM983 1831l-451 -246q-22 -12 -47 -12q-32 0 -53.5 22t-21.5 52q0 45 39 65l458 256 q16 8 39 8q32 0 55 -21t23 -54q0 -49 -41 -70z"/>
<glyph glyph-name="Ecircumflex" unicode="" horiz-adv-x="1435" d="M758 823v142q0 34 25 58t59 24q35 0 59.5 -24t24.5 -58v-437q0 -35 -24.5 -58.5t-59.5 -23.5q-34 0 -59 23.5t-25 58.5v140h-260v-514h645l47 245q6 33 29.5 51.5t54.5 18.5q37 0 63 -26.5t19 -65.5l-58 -311q-6 -29 -31 -47.5t-55 -18.5h-1058q-34 0 -57 22t-23 56 q0 32 23 54t57 22h176v1124h-176q-34 0 -57 23t-23 55t23 55t57 23h1007q34 0 58.5 -21t25.5 -55l17 -283q1 -36 -23.5 -60t-60.5 -24q-35 0 -58 21.5t-26 54.5l-15 211h-581v-455h260zM719 1999q23 0 47 -21l307 -254q19 -16 26.5 -23.5t16 -22.5t8.5 -31q0 -32 -23 -56 t-54 -24q-33 0 -58 22l-270 226l-270 -226q-25 -22 -58 -22q-31 0 -54.5 24t-23.5 56q0 16 9 31.5t16 22t27 23.5l307 254q24 21 47 21z"/>
<glyph glyph-name="Edieresis" unicode="" horiz-adv-x="1435" d="M758 823v142q0 34 25 58t59 24q35 0 59.5 -24t24.5 -58v-437q0 -35 -24.5 -58.5t-59.5 -23.5q-34 0 -59 23.5t-25 58.5v140h-260v-514h645l47 245q6 33 29.5 51.5t54.5 18.5q37 0 63 -26.5t19 -65.5l-58 -311q-6 -29 -31 -47.5t-55 -18.5h-1058q-34 0 -57 22t-23 56 q0 32 23 54t57 22h176v1124h-176q-34 0 -57 23t-23 55t23 55t57 23h1007q34 0 58.5 -21t25.5 -55l17 -283q1 -36 -23.5 -60t-60.5 -24q-35 0 -58 21.5t-26 54.5l-15 211h-581v-455h260zM346 1759q0 65 47 111.5t113 46.5q64 0 111 -46.5t47 -111.5q0 -66 -46.5 -113 t-111.5 -47q-66 0 -113 47t-47 113zM772 1759q0 65 47 111.5t113 46.5q64 0 111 -46.5t47 -111.5q0 -66 -46.5 -113t-111.5 -47q-66 0 -113 47t-47 113z"/>
<glyph glyph-name="Igrave" unicode="" horiz-adv-x="974" d="M403 154v1124h-270q-32 0 -55 23t-23 55t23 55t55 23h709q32 0 55 -23t23 -55t-23 -55t-55 -23h-271v-1124h271q32 0 55 -22t23 -54q0 -33 -22.5 -55.5t-55.5 -22.5h-709q-33 0 -55.5 22.5t-22.5 55.5q0 32 23 54t55 22h270zM672 1585l-451 246q-41 21 -41 70q0 33 23 54 t55 21q23 0 39 -8l459 -256q39 -20 39 -65q0 -30 -22 -52t-54 -22q-25 0 -47 12z"/>
<glyph glyph-name="Iacute" unicode="" horiz-adv-x="974" d="M403 154v1124h-270q-32 0 -55 23t-23 55t23 55t55 23h709q32 0 55 -23t23 -55t-23 -55t-55 -23h-271v-1124h271q32 0 55 -22t23 -54q0 -33 -22.5 -55.5t-55.5 -22.5h-709q-33 0 -55.5 22.5t-22.5 55.5q0 32 23 54t55 22h270zM754 1831l-451 -246q-22 -12 -47 -12 q-32 0 -54 22t-22 52q0 45 39 65l459 256q16 8 39 8q32 0 55 -21t23 -54q0 -49 -41 -70z"/>
<glyph glyph-name="Icircumflex" unicode="" horiz-adv-x="974" d="M403 154v1124h-270q-32 0 -55 23t-23 55t23 55t55 23h709q32 0 55 -23t23 -55t-23 -55t-55 -23h-271v-1124h271q32 0 55 -22t23 -54q0 -33 -22.5 -55.5t-55.5 -22.5h-709q-33 0 -55.5 22.5t-22.5 55.5q0 32 23 54t55 22h270zM489 1999q24 0 48 -21l307 -254 q19 -16 26.5 -23.5t16 -22.5t8.5 -31q0 -32 -23.5 -56t-54.5 -24q-32 0 -57 22l-271 226l-270 -226q-25 -22 -57 -22q-31 0 -54.5 24t-23.5 56q0 16 8.5 31t16 22.5t26.5 23.5l307 254q24 21 47 21z"/>
<glyph glyph-name="Idieresis" unicode="" horiz-adv-x="974" d="M403 154v1124h-270q-32 0 -55 23t-23 55t23 55t55 23h709q32 0 55 -23t23 -55t-23 -55t-55 -23h-271v-1124h271q32 0 55 -22t23 -54q0 -33 -22.5 -55.5t-55.5 -22.5h-709q-33 0 -55.5 22.5t-22.5 55.5q0 32 23 54t55 22h270zM115 1759q0 65 46.5 111.5t112.5 46.5 q64 0 111 -46.5t47 -111.5q0 -66 -46.5 -113t-111.5 -47q-66 0 -112.5 47t-46.5 113zM541 1759q0 65 46.5 111.5t112.5 46.5q64 0 111 -46.5t47 -111.5q0 -66 -46.5 -113t-111.5 -47q-66 0 -112.5 47t-46.5 113z"/>
<glyph glyph-name="Eth" unicode="" horiz-adv-x="1525" d="M156 1434h542q333 0 524 -185t191 -520q0 -337 -192.5 -533t-522.5 -196h-542q-34 0 -57 22t-23 56q0 32 23 54t57 22h174v514h-174q-34 0 -57 22.5t-23 54.5t23 55t57 23h174v455h-174q-34 0 -57 23t-23 55t23 55t57 23zM860 668h-360v-514h190q104 0 189 23.5t141 60.5 t98 89.5t65 103.5t36.5 110.5t17.5 101.5t4 86q0 43 -4 84.5t-17.5 98.5t-36.5 105t-65 98t-98 84.5t-141 56.5t-189 22h-190v-455h360q34 0 57 -23t23 -55t-23 -54.5t-57 -22.5z"/>
<glyph glyph-name="Ntilde" unicode="" horiz-adv-x="1636" d="M1335 1278v-1192q0 -40 -25 -65t-69 -25q-58 0 -100 65l-649 1170v-1077h217q32 0 54.5 -22t22.5 -54q0 -34 -22 -56t-55 -22h-555q-34 0 -57 22t-23 56q0 32 23 54t57 22h176v1124h-176q-34 0 -57 23t-23 55t23 55t57 23h333q68 0 95 -50l592 -1077v971h-175 q-33 0 -56 23t-23 55t23 55t56 23h471q34 0 57 -23t23 -55t-23 -55t-57 -23h-135zM653 1696q-26 0 -45 -13.5t-41 -46.5q-24 -32 -61 -32q-32 0 -53 23t-21 54q0 59 58.5 118t150.5 59q65 0 187.5 -45.5t158.5 -45.5q30 0 48 15t24 32.5t23 32.5t46 15q31 0 54.5 -20 t23.5 -52q0 -61 -56 -121.5t-155 -60.5q-57 0 -126.5 22t-128 44t-87.5 22z"/>
<glyph glyph-name="Ograve" unicode="" horiz-adv-x="1372" d="M686 1454q125 0 233 -58.5t182 -158t116.5 -235t42.5 -287.5t-42.5 -287t-117 -234t-182 -156.5t-232.5 -57.5q-167 0 -299.5 98.5t-204 266t-71.5 370.5t71.5 371.5t204 268t299.5 99.5zM686 129q116 0 208.5 78.5t142.5 212t50 295.5q0 163 -50.5 297t-142.5 212.5 t-208 78.5q-117 0 -209.5 -78.5t-143 -212.5t-50.5 -297q0 -162 50 -295.5t143 -212t210 -78.5zM870 1585l-450 246q-41 21 -41 70q0 33 23 54t55 21q23 0 39 -8l458 -256q39 -20 39 -65q0 -30 -21.5 -52t-53.5 -22q-26 0 -48 12z"/>
<glyph glyph-name="Oacute" unicode="" horiz-adv-x="1372" d="M686 1454q125 0 233 -58.5t182 -158t116.5 -235t42.5 -287.5t-42.5 -287t-117 -234t-182 -156.5t-232.5 -57.5q-167 0 -299.5 98.5t-204 266t-71.5 370.5t71.5 371.5t204 268t299.5 99.5zM686 129q116 0 208.5 78.5t142.5 212t50 295.5q0 163 -50.5 297t-142.5 212.5 t-208 78.5q-117 0 -209.5 -78.5t-143 -212.5t-50.5 -297q0 -162 50 -295.5t143 -212t210 -78.5zM952 1831l-450 -246q-22 -12 -47 -12q-32 0 -54 22t-22 52q0 45 39 65l459 256q16 8 38 8q32 0 55 -21t23 -54q0 -49 -41 -70z"/>
<glyph glyph-name="Ocircumflex" unicode="" horiz-adv-x="1372" d="M686 1454q125 0 233 -58.5t182 -158t116.5 -235t42.5 -287.5t-42.5 -287t-117 -234t-182 -156.5t-232.5 -57.5q-167 0 -299.5 98.5t-204 266t-71.5 370.5t71.5 371.5t204 268t299.5 99.5zM686 129q116 0 208.5 78.5t142.5 212t50 295.5q0 163 -50.5 297t-142.5 212.5 t-208 78.5q-117 0 -209.5 -78.5t-143 -212.5t-50.5 -297q0 -162 50 -295.5t143 -212t210 -78.5zM688 1999q23 0 47 -21l307 -254q20 -17 27 -23.5t16 -22t9 -31.5q0 -32 -23.5 -56t-54.5 -24q-33 0 -58 22l-270 226l-270 -226q-25 -22 -58 -22q-31 0 -54 24t-23 56 q0 16 8.5 31t16 22.5t26.5 23.5l307 254q24 21 47 21z"/>
<glyph glyph-name="Otilde" unicode="" horiz-adv-x="1372" d="M686 1454q125 0 233 -58.5t182 -158t116.5 -235t42.5 -287.5t-42.5 -287t-117 -234t-182 -156.5t-232.5 -57.5q-167 0 -299.5 98.5t-204 266t-71.5 370.5t71.5 371.5t204 268t299.5 99.5zM686 129q116 0 208.5 78.5t142.5 212t50 295.5q0 163 -50.5 297t-142.5 212.5 t-208 78.5q-117 0 -209.5 -78.5t-143 -212.5t-50.5 -297q0 -162 50 -295.5t143 -212t210 -78.5zM522 1696q-26 0 -45 -13.5t-41 -46.5q-24 -32 -61 -32q-32 0 -53 23t-21 54q0 59 58.5 118t150.5 59q65 0 187.5 -45.5t158.5 -45.5q30 0 48 15t24 32.5t23 32.5t46 15 q31 0 54.5 -20t23.5 -52q0 -61 -56 -121.5t-155 -60.5q-57 0 -126.5 22t-128 44t-87.5 22z"/>
<glyph glyph-name="Odieresis" unicode="" horiz-adv-x="1372" d="M686 1454q125 0 233 -58.5t182 -158t116.5 -235t42.5 -287.5t-42.5 -287t-117 -234t-182 -156.5t-232.5 -57.5q-167 0 -299.5 98.5t-204 266t-71.5 370.5t71.5 371.5t204 268t299.5 99.5zM686 129q116 0 208.5 78.5t142.5 212t50 295.5q0 163 -50.5 297t-142.5 212.5 t-208 78.5q-117 0 -209.5 -78.5t-143 -212.5t-50.5 -297q0 -162 50 -295.5t143 -212t210 -78.5zM313 1759q0 65 47 111.5t113 46.5q65 0 111.5 -46.5t46.5 -111.5q0 -66 -46.5 -113t-111.5 -47q-66 0 -113 47t-47 113zM739 1759q0 65 47 111.5t113 46.5q65 0 111.5 -46.5 t46.5 -111.5q0 -66 -46.5 -113t-111.5 -47q-66 0 -113 47t-47 113z"/>
<glyph glyph-name="multiply" unicode="" horiz-adv-x="1249" d="M735 725l369 -352q22 -22 22 -54q0 -31 -24 -54t-55 -23q-30 0 -52 22l-372 357l-371 -357q-22 -22 -51 -22q-31 0 -55.5 23.5t-24.5 53.5q0 32 22 54l369 352l-369 354q-22 22 -22 54q0 30 24.5 53.5t55.5 23.5q29 0 51 -22l371 -357l372 357q22 22 52 22q31 0 55 -23 t24 -54q0 -32 -22 -54z"/>
<glyph glyph-name="Oslash" unicode="" horiz-adv-x="1374" d="M686 1454q50 0 115 -14l76 278q7 25 27 38t44 13q34 0 59 -19.5t25 -51.5q0 -17 -4 -33l-80 -287q145 -89 228.5 -266.5t83.5 -396.5q0 -152 -42.5 -287t-117 -234t-182 -156.5t-232.5 -57.5q-61 0 -123 16l-78 -289q-15 -53 -75 -53q-36 0 -57 21t-21 51q0 16 4 28 l82 301q-143 91 -225 267.5t-82 392.5q0 203 71.5 371.5t204 268t299.5 99.5zM684 129q117 0 210 78t143 211t50 295q0 160 -49.5 291.5t-136.5 207.5l-295 -1071q38 -12 78 -12zM283 715q0 -159 48.5 -290t133.5 -206l295 1073q-46 11 -76 11q-116 0 -208 -78.5 t-142.5 -212.5t-50.5 -297z"/>
<glyph glyph-name="Ugrave" unicode="" horiz-adv-x="1648" d="M1362 1278v-748q0 -132 -38.5 -233.5t-95.5 -160t-133 -95t-142 -49t-132 -12.5q-69 0 -135.5 12.5t-141 49.5t-129.5 94.5t-91.5 156.5t-36.5 227v758h-156q-34 0 -57 23t-23 55t23 55t57 23h500q34 0 57 -23t23 -55t-23 -55t-57 -23h-176v-754q0 -191 100.5 -295 t269.5 -104q170 0 272.5 105.5t102.5 297.5v750h-182q-34 0 -57 23t-23 55t23 55t57 23h500q34 0 56.5 -23t22.5 -55t-22.5 -55t-56.5 -23h-156zM1008 1585l-451 246q-41 21 -41 70q0 33 23 54t55 21q23 0 39 -8l459 -256q38 -20 38 -65q0 -30 -21.5 -52t-53.5 -22 q-25 0 -47 12z"/>
<glyph glyph-name="Uacute" unicode="" horiz-adv-x="1648" d="M1362 1278v-748q0 -132 -38.5 -233.5t-95.5 -160t-133 -95t-142 -49t-132 -12.5q-69 0 -135.5 12.5t-141 49.5t-129.5 94.5t-91.5 156.5t-36.5 227v758h-156q-34 0 -57 23t-23 55t23 55t57 23h500q34 0 57 -23t23 -55t-23 -55t-57 -23h-176v-754q0 -191 100.5 -295 t269.5 -104q170 0 272.5 105.5t102.5 297.5v750h-182q-34 0 -57 23t-23 55t23 55t57 23h500q34 0 56.5 -23t22.5 -55t-22.5 -55t-56.5 -23h-156zM1090 1831l-451 -246q-22 -12 -47 -12q-32 0 -54 22t-22 52q0 45 39 65l459 256q16 8 39 8q32 0 54.5 -21t22.5 -54 q0 -49 -40 -70z"/>
<glyph glyph-name="Ucircumflex" unicode="" horiz-adv-x="1648" d="M1362 1278v-748q0 -132 -38.5 -233.5t-95.5 -160t-133 -95t-142 -49t-132 -12.5q-69 0 -135.5 12.5t-141 49.5t-129.5 94.5t-91.5 156.5t-36.5 227v758h-156q-34 0 -57 23t-23 55t23 55t57 23h500q34 0 57 -23t23 -55t-23 -55t-57 -23h-176v-754q0 -191 100.5 -295 t269.5 -104q170 0 272.5 105.5t102.5 297.5v750h-182q-34 0 -57 23t-23 55t23 55t57 23h500q34 0 56.5 -23t22.5 -55t-22.5 -55t-56.5 -23h-156zM823 1999q23 0 47 -21l308 -254q19 -16 26.5 -23.5t16 -22.5t8.5 -31q0 -32 -23.5 -56t-54.5 -24q-32 0 -57 22l-271 226 l-270 -226q-25 -22 -57 -22q-31 0 -54.5 24t-23.5 56q0 16 8.5 31t16 22.5t26.5 23.5l307 254q24 21 47 21z"/>
<glyph glyph-name="Udieresis" unicode="" horiz-adv-x="1648" d="M1362 1278v-748q0 -132 -38.5 -233.5t-95.5 -160t-133 -95t-142 -49t-132 -12.5q-69 0 -135.5 12.5t-141 49.5t-129.5 94.5t-91.5 156.5t-36.5 227v758h-156q-34 0 -57 23t-23 55t23 55t57 23h500q34 0 57 -23t23 -55t-23 -55t-57 -23h-176v-754q0 -191 100.5 -295 t269.5 -104q170 0 272.5 105.5t102.5 297.5v750h-182q-34 0 -57 23t-23 55t23 55t57 23h500q34 0 56.5 -23t22.5 -55t-22.5 -55t-56.5 -23h-156zM453 1759q0 65 46.5 111.5t112.5 46.5q64 0 111 -46.5t47 -111.5q0 -66 -46.5 -113t-111.5 -47q-66 0 -112.5 47t-46.5 113z M879 1759q0 65 46.5 111.5t112.5 46.5q64 0 111 -46.5t47 -111.5q0 -66 -46.5 -113t-111.5 -47q-66 0 -112.5 47t-46.5 113z"/>
<glyph glyph-name="Yacute" unicode="" horiz-adv-x="1458" d="M385 1278l348 -610l352 610h-153q-34 0 -57 23t-23 55t23 55t57 23h450q34 0 57 -23t23 -55t-23 -55t-57 -23h-118l-453 -768v-356h195q34 0 56.5 -22t22.5 -54q0 -34 -22.5 -56t-56.5 -22h-562q-32 0 -54.5 22t-22.5 56q0 32 22.5 54t54.5 22h197v362l-446 762h-119 q-33 0 -55.5 22.5t-22.5 55.5t22.5 55.5t55.5 22.5h456q34 0 57 -23t23 -55t-23 -55t-57 -23h-147zM993 1831l-450 -246q-22 -12 -47 -12q-32 0 -54 22t-22 52q0 45 39 65l459 256q16 8 38 8q32 0 55 -21t23 -54q0 -49 -41 -70z"/>
<glyph glyph-name="Thorn" unicode="" horiz-adv-x="1368" d="M330 154v1126h-176q-34 0 -57 23t-23 55t23 55t57 23h587q34 0 57 -23t23 -55t-23 -55t-57 -23h-243v-158h340q98 0 177 -23t130 -60.5t85.5 -88.5t49 -104.5t14.5 -110.5q0 -76 -27 -147t-78.5 -131t-138 -96.5t-194.5 -36.5h-358v-170h243q34 0 57 -22t23 -54 q0 -34 -23 -56t-57 -22h-587q-34 0 -57 22t-23 56q0 32 23 54t57 22h176zM1122 733q0 97 -68.5 165.5t-215.5 68.5h-340v-488h358q87 0 149.5 39t89.5 95t27 120z"/>
<glyph glyph-name="germandbls" unicode="" horiz-adv-x="1372" d="M811 248q10 -23 19.5 -39t28.5 -37t49.5 -32t70.5 -11q70 0 115 39.5t45 112.5q0 50 -28 101t-67.5 95t-79.5 89t-68 100t-28 110q0 60 35 137.5l70 155t35 137.5q0 78 -58.5 135.5t-169.5 57.5q-132 0 -207 -84.5t-75 -261.5v-977q0 -32 -23 -54t-57 -22h-293 q-32 0 -54 22t-22 54t22 54t54 22h207v665h-205q-33 0 -55.5 22.5t-22.5 53.5q0 34 22 56t56 22h205v88q0 222 122 354.5t328 132.5q177 0 282 -97.5t105 -238.5q0 -56 -20.5 -121.5t-45 -113.5t-45 -99.5t-20.5 -82.5q0 -37 27.5 -81t67 -87.5t79.5 -92t67.5 -110.5 t27.5 -127q0 -39 -8.5 -78t-31.5 -82.5t-59.5 -76.5t-98 -54.5t-140.5 -21.5q-74 0 -134.5 21.5t-97 55.5t-56 72.5t-19.5 75.5q0 40 22 62t57 22q49 0 70 -43z"/>
<glyph glyph-name="agrave" unicode="" horiz-adv-x="1107" d="M748 76v37q-60 -68 -144.5 -100.5t-177.5 -32.5q-153 0 -252.5 76.5t-99.5 217.5q0 74 29 131t74.5 91t109.5 56t127 30t133 8l194 -4v57q0 199 -225 199q-132 0 -237 -58q-64 -28 -80 -30q-37 0 -57.5 21t-20.5 52q0 49 63 86q55 32 151 55t191 23q177 0 279 -90 t102 -254v-495h109q32 0 56 -21.5t24 -52.5q0 -32 -22 -55t-62 -23h-185q-34 0 -56.5 22t-22.5 54zM741 268v181q-39 2 -118 2q-42 0 -71 -0.5t-72.5 -4.5t-73.5 -10.5t-64 -19.5t-54.5 -31t-34 -46t-13.5 -63q0 -75 55 -116t141 -41q95 0 184 42.5t121 106.5zM737 1122 l-450 246q-41 21 -41 70q0 33 23 54t55 21q22 0 38 -8l459 -256q39 -20 39 -65q0 -30 -22 -52t-54 -22q-25 0 -47 12z"/>
<glyph glyph-name="aacute" unicode="" horiz-adv-x="1107" d="M748 76v37q-60 -68 -144.5 -100.5t-177.5 -32.5q-153 0 -252.5 76.5t-99.5 217.5q0 74 29 131t74.5 91t109.5 56t127 30t133 8l194 -4v57q0 199 -225 199q-132 0 -237 -58q-64 -28 -80 -30q-37 0 -57.5 21t-20.5 52q0 49 63 86q55 32 151 55t191 23q177 0 279 -90 t102 -254v-495h109q32 0 56 -21.5t24 -52.5q0 -32 -22 -55t-62 -23h-185q-34 0 -56.5 22t-22.5 54zM741 268v181q-39 2 -118 2q-42 0 -71 -0.5t-72.5 -4.5t-73.5 -10.5t-64 -19.5t-54.5 -31t-34 -46t-13.5 -63q0 -75 55 -116t141 -41q95 0 184 42.5t121 106.5zM819 1368 l-450 -246q-22 -12 -47 -12q-32 0 -54 22t-22 52q0 45 39 65l458 256q16 8 39 8q32 0 55 -21t23 -54q0 -49 -41 -70z"/>
<glyph glyph-name="acircumflex" unicode="" horiz-adv-x="1107" d="M748 76v37q-60 -68 -144.5 -100.5t-177.5 -32.5q-153 0 -252.5 76.5t-99.5 217.5q0 74 29 131t74.5 91t109.5 56t127 30t133 8l194 -4v57q0 199 -225 199q-132 0 -237 -58q-64 -28 -80 -30q-37 0 -57.5 21t-20.5 52q0 49 63 86q55 32 151 55t191 23q177 0 279 -90 t102 -254v-495h109q32 0 56 -21.5t24 -52.5q0 -32 -22 -55t-62 -23h-185q-34 0 -56.5 22t-22.5 54zM553 1536q24 0 47 -20l307 -254q18 -15 26.5 -23.5t16.5 -23.5t8 -31q0 -32 -23 -56t-54 -24q-33 0 -58 22l-270 226l-270 -226q-25 -22 -58 -22q-31 0 -54.5 24t-23.5 56 q0 16 8.5 31.5t16.5 23t27 23.5l307 254q23 20 47 20zM741 268v181q-39 2 -118 2q-42 0 -71 -0.5t-72.5 -4.5t-73.5 -10.5t-64 -19.5t-54.5 -31t-34 -46t-13.5 -63q0 -75 55 -116t141 -41q95 0 184 42.5t121 106.5z"/>
<glyph glyph-name="atilde" unicode="" horiz-adv-x="1107" d="M748 76v37q-60 -68 -144.5 -100.5t-177.5 -32.5q-153 0 -252.5 76.5t-99.5 217.5q0 74 29 131t74.5 91t109.5 56t127 30t133 8l194 -4v57q0 199 -225 199q-132 0 -237 -58q-64 -28 -80 -30q-37 0 -57.5 21t-20.5 52q0 49 63 86q55 32 151 55t191 23q177 0 279 -90 t102 -254v-495h109q32 0 56 -21.5t24 -52.5q0 -32 -22 -55t-62 -23h-185q-34 0 -56.5 22t-22.5 54zM741 268v181q-39 2 -118 2q-42 0 -71 -0.5t-72.5 -4.5t-73.5 -10.5t-64 -19.5t-54.5 -31t-34 -46t-13.5 -63q0 -75 55 -116t141 -41q95 0 184 42.5t121 106.5zM387 1233 q-26 0 -45 -13t-41 -46q-25 -33 -61 -33q-32 0 -53 23t-21 55q0 59 58.5 117.5t150.5 58.5q65 0 187.5 -45t158.5 -45q25 0 40.5 9.5t23.5 23.5t15.5 28t22.5 23.5t39 9.5q31 0 54.5 -20t23.5 -52q0 -61 -56 -121.5t-155 -60.5q-57 0 -126.5 22t-128 44t-87.5 22z"/>
<glyph glyph-name="adieresis" unicode="" horiz-adv-x="1107" d="M748 76v37q-60 -68 -144.5 -100.5t-177.5 -32.5q-153 0 -252.5 76.5t-99.5 217.5q0 74 29 131t74.5 91t109.5 56t127 30t133 8l194 -4v57q0 199 -225 199q-132 0 -237 -58q-64 -28 -80 -30q-37 0 -57.5 21t-20.5 52q0 49 63 86q55 32 151 55t191 23q177 0 279 -90 t102 -254v-495h109q32 0 56 -21.5t24 -52.5q0 -32 -22 -55t-62 -23h-185q-34 0 -56.5 22t-22.5 54zM741 268v181q-39 2 -118 2q-42 0 -71 -0.5t-72.5 -4.5t-73.5 -10.5t-64 -19.5t-54.5 -31t-34 -46t-13.5 -63q0 -75 55 -116t141 -41q95 0 184 42.5t121 106.5zM182 1296 q0 65 47 111.5t113 46.5q64 0 111 -47t47 -111q0 -66 -46.5 -112.5t-111.5 -46.5q-66 0 -113 46.5t-47 112.5zM608 1296q0 65 47 111.5t113 46.5q64 0 111 -47t47 -111q0 -66 -46.5 -112.5t-111.5 -46.5q-66 0 -113 46.5t-47 112.5z"/>
<glyph glyph-name="aring" unicode="" horiz-adv-x="1107" d="M748 76v37q-60 -68 -144.5 -100.5t-177.5 -32.5q-153 0 -252.5 76.5t-99.5 217.5q0 74 29 131t74.5 91t109.5 56t127 30t133 8l194 -4v57q0 199 -225 199q-132 0 -237 -58q-64 -28 -80 -30q-37 0 -57.5 21t-20.5 52q0 49 63 86q55 32 151 55t191 23q177 0 279 -90 t102 -254v-495h109q32 0 56 -21.5t24 -52.5q0 -32 -22 -55t-62 -23h-185q-34 0 -56.5 22t-22.5 54zM553 1688q127 0 216 -87t89 -212t-89 -212t-216 -87t-216 87t-89 212t89 212t216 87zM741 268v181q-39 2 -118 2q-42 0 -71 -0.5t-72.5 -4.5t-73.5 -10.5t-64 -19.5 t-54.5 -31t-34 -46t-13.5 -63q0 -75 55 -116t141 -41q95 0 184 42.5t121 106.5zM553 1223q67 0 114.5 49t47.5 117t-47.5 116.5t-114.5 48.5t-114.5 -48.5t-47.5 -116.5t47.5 -117t114.5 -49z"/>
<glyph glyph-name="ae" unicode="" horiz-adv-x="1773" d="M528 842q-77 0 -147 -21.5t-113 -43t-55 -21.5q-34 0 -55 21.5t-21 51.5q0 64 121 113t279 49q122 0 214.5 -43t135.5 -129q62 84 155.5 128t202.5 44q192 0 315 -117t123 -292q0 -49 -19 -70t-58 -23l-666 -40q8 -136 99.5 -227t238.5 -91q53 0 97 13t76 38t52.5 47 t42.5 54q24 36 68 36q31 0 53.5 -20.5t22.5 -54.5q0 -41 -56 -111q-69 -81 -167 -117t-205 -36q-254 0 -388 176q-190 -176 -450 -176q-157 0 -254.5 74t-97.5 208q0 66 27 119t69.5 85.5t99 54t111 30t110.5 8.5q188 15 281 21v69q0 36 -12 68.5t-38 61.5t-75.5 46 t-116.5 17zM770 438q-329 -16 -425.5 -43t-96.5 -129q0 -70 53 -106.5t135 -36.5q99 0 201 43.5t168 112.5q-29 75 -35 159zM948 592l568 37q-13 105 -88 161t-181 56q-124 0 -207.5 -75.5t-91.5 -178.5z"/>
<glyph glyph-name="ccedilla" unicode="" horiz-adv-x="1062" d="M580 991q157 0 267.5 -78t110.5 -188q0 -69 -42 -112.5t-105 -43.5q-60 0 -102.5 40t-42.5 98q0 70 55 106q-55 37 -139 37q-132 0 -229 -99.5t-97 -263.5q0 -154 86 -256t242 -102q96 0 157 42t109 112q24 36 68 36q31 0 53 -20.5t22 -54.5q0 -42 -55 -111 q-129 -153 -371 -153h-4q-24 -56 -45 -111q299 0 299 -219q0 -82 -45.5 -139.5t-114.5 -82t-155 -24.5q-127 0 -213 43q-45 22 -45 70q0 32 20.5 53.5t52.5 21.5q10 0 62.5 -20.5t105.5 -20.5q84 0 123 26.5t39 68.5q0 86 -135 86q-19 0 -48 -2t-40 -2q-36 0 -57 20t-21 49 q0 27 14 56l66 145q-159 43 -250.5 173.5t-91.5 311.5q0 116 40.5 213t108.5 161t158 99t189 35z"/>
<glyph glyph-name="egrave" unicode="" horiz-adv-x="1081" d="M934 133q-68 -78 -166 -115.5t-203 -37.5q-214 0 -346.5 143t-132.5 358q0 226 135 368t340 142q99 0 183 -37.5t138.5 -99.5t84.5 -139t30 -158q0 -88 -88 -88h-651q0 -87 36 -163t108.5 -125.5t166.5 -49.5q175 0 277 150q25 38 69 38q31 0 52.5 -20.5t21.5 -54.5 q0 -52 -55 -111zM557 850q-106 0 -183.5 -67t-99.5 -169h547q-15 105 -87 170.5t-177 65.5zM725 1122l-451 246q-41 21 -41 70q0 33 23 54t55 21q23 0 39 -8l459 -256q39 -20 39 -65q0 -30 -22 -52t-54 -22q-25 0 -47 12z"/>
<glyph glyph-name="eacute" unicode="" horiz-adv-x="1081" d="M934 133q-68 -78 -166 -115.5t-203 -37.5q-214 0 -346.5 143t-132.5 358q0 226 135 368t340 142q99 0 183 -37.5t138.5 -99.5t84.5 -139t30 -158q0 -88 -88 -88h-651q0 -87 36 -163t108.5 -125.5t166.5 -49.5q175 0 277 150q25 38 69 38q31 0 52.5 -20.5t21.5 -54.5 q0 -52 -55 -111zM557 850q-106 0 -183.5 -67t-99.5 -169h547q-15 105 -87 170.5t-177 65.5zM807 1368l-451 -246q-22 -12 -47 -12q-32 0 -54 22t-22 52q0 45 39 65l459 256q16 8 39 8q32 0 55 -21t23 -54q0 -49 -41 -70z"/>
<glyph glyph-name="ecircumflex" unicode="" horiz-adv-x="1081" d="M934 133q-68 -78 -166 -115.5t-203 -37.5q-214 0 -346.5 143t-132.5 358q0 226 135 368t340 142q99 0 183 -37.5t138.5 -99.5t84.5 -139t30 -158q0 -88 -88 -88h-651q0 -87 36 -163t108.5 -125.5t166.5 -49.5q175 0 277 150q25 38 69 38q31 0 52.5 -20.5t21.5 -54.5 q0 -52 -55 -111zM557 850q-106 0 -183.5 -67t-99.5 -169h547q-15 105 -87 170.5t-177 65.5zM541 1536q24 0 47 -20l307 -254q18 -15 26.5 -23.5t16.5 -23.5t8 -31q0 -32 -23.5 -56t-54.5 -24q-32 0 -57 22l-270 226l-271 -226q-25 -22 -57 -22q-31 0 -54.5 24t-23.5 56 q0 16 8 31t16.5 23.5t26.5 23.5l308 254q23 20 47 20z"/>
<glyph glyph-name="edieresis" unicode="" horiz-adv-x="1081" d="M934 133q-68 -78 -166 -115.5t-203 -37.5q-214 0 -346.5 143t-132.5 358q0 226 135 368t340 142q99 0 183 -37.5t138.5 -99.5t84.5 -139t30 -158q0 -88 -88 -88h-651q0 -87 36 -163t108.5 -125.5t166.5 -49.5q175 0 277 150q25 38 69 38q31 0 52.5 -20.5t21.5 -54.5 q0 -52 -55 -111zM557 850q-106 0 -183.5 -67t-99.5 -169h547q-15 105 -87 170.5t-177 65.5zM168 1296q0 65 47 111.5t113 46.5q64 0 110.5 -46.5t46.5 -111.5q0 -66 -46 -112.5t-111 -46.5q-66 0 -113 46.5t-47 112.5zM594 1296q0 65 47 111.5t113 46.5q64 0 110.5 -46.5 t46.5 -111.5q0 -66 -46 -112.5t-111 -46.5q-66 0 -113 46.5t-47 112.5z"/>
<glyph glyph-name="igrave" unicode="" horiz-adv-x="862" d="M530 893v-741h242q32 0 54 -22t22 -54t-22 -54t-54 -22h-647q-32 0 -54 22t-22 54t22 54t54 22h242v665h-230q-32 0 -55 22.5t-23 53.5q0 33 22.5 55.5t55.5 22.5h316q33 0 55 -22.5t22 -55.5zM616 1122l-450 246q-41 21 -41 70q0 33 23 54t55 21q23 0 39 -8l458 -256 q39 -20 39 -65q0 -30 -21.5 -52t-53.5 -22q-26 0 -48 12z"/>
<glyph glyph-name="iacute" unicode="" horiz-adv-x="862" d="M530 893v-741h242q32 0 54 -22t22 -54t-22 -54t-54 -22h-647q-32 0 -54 22t-22 54t22 54t54 22h242v665h-230q-32 0 -55 22.5t-23 53.5q0 33 22.5 55.5t55.5 22.5h316q33 0 55 -22.5t22 -55.5zM698 1368l-450 -246q-22 -12 -47 -12q-32 0 -54 22t-22 52q0 45 39 65 l459 256q16 8 39 8q32 0 54.5 -21t22.5 -54q0 -49 -41 -70z"/>
<glyph glyph-name="icircumflex" unicode="" horiz-adv-x="862" d="M530 893v-741h242q32 0 54 -22t22 -54t-22 -54t-54 -22h-647q-32 0 -54 22t-22 54t22 54t54 22h242v665h-230q-32 0 -55 22.5t-23 53.5q0 33 22.5 55.5t55.5 22.5h316q33 0 55 -22.5t22 -55.5zM432 1536q24 0 47 -20l307 -254q19 -16 27 -23.5t16.5 -23t8.5 -31.5 q0 -32 -23.5 -56t-54.5 -24q-33 0 -58 22l-270 226l-270 -226q-25 -22 -58 -22q-31 0 -54 24t-23 56q0 16 8 31t16.5 23.5t26.5 23.5l307 254q23 20 47 20z"/>
<glyph glyph-name="idieresis" unicode="" horiz-adv-x="862" d="M530 893v-741h242q32 0 54 -22t22 -54t-22 -54t-54 -22h-647q-32 0 -54 22t-22 54t22 54t54 22h242v665h-230q-32 0 -55 22.5t-23 53.5q0 33 22.5 55.5t55.5 22.5h316q33 0 55 -22.5t22 -55.5zM59 1296q0 65 47 111.5t113 46.5q65 0 111.5 -47t46.5 -111 q0 -66 -46.5 -112.5t-111.5 -46.5q-66 0 -113 46.5t-47 112.5zM485 1296q0 65 47 111.5t113 46.5q65 0 111.5 -47t46.5 -111q0 -66 -46.5 -112.5t-111.5 -46.5q-66 0 -113 46.5t-47 112.5z"/>
<glyph glyph-name="eth" unicode="" horiz-adv-x="1128" d="M1020 522q0 -128 -37 -232t-101 -171t-149 -103t-182 -36q-208 0 -336.5 144t-128.5 361q0 141 56.5 256t161 182.5t237.5 67.5q61 0 120.5 -21.5t102.5 -56.5q-104 201 -287 324l-133 -133q-21 -19 -49 -19q-24 0 -48 19t-24 53q0 31 23 51l102 101q-31 15 -64 27.5 t-53.5 19t-40.5 14t-30.5 14.5t-16.5 19.5t-6 30.5q0 36 24 54.5t64 18.5q29 0 77 -17t167 -69l98 101q2 2 7 6.5t7 6.5t7 6t8.5 6t8.5 4.5t9.5 4t10.5 2.5t12 1q31 0 53.5 -21.5t22.5 -48.5q0 -35 -27 -59l-92 -91q194 -141 310 -359t116 -458zM254 485q0 -150 80 -252 t219 -102t220 103t81 251q0 149 -82 252t-221 103t-218 -102.5t-79 -252.5z"/>
<glyph glyph-name="ntilde" unicode="" horiz-adv-x="1355" d="M141 152h133v667h-135q-30 0 -55 23t-25 53q0 33 23 54.5t57 21.5h215q34 0 57 -22t23 -56v-90q50 91 142 139.5t194 48.5q160 0 257 -90.5t97 -263.5v-485h133q30 0 55 -23t25 -53q0 -32 -23 -54t-57 -22h-405q-30 0 -54 22.5t-24 53.5q0 32 23 54t55 22h109v489 q0 54 -18 95t-48.5 63.5t-65 33.5t-71.5 11q-129 0 -224.5 -103.5t-95.5 -283.5v-305h146q33 0 55.5 -22.5t22.5 -53.5q0 -32 -23 -54t-55 -22h-443q-30 0 -54 22.5t-24 53.5q0 32 23 54t55 22zM512 1233q-26 0 -45 -13t-41 -46q-25 -33 -61 -33q-32 0 -53 23t-21 55 q0 59 58.5 117.5t150.5 58.5q65 0 187.5 -45t158.5 -45q25 0 40.5 9.5t23.5 23.5t15.5 28t22.5 23.5t39 9.5q31 0 54.5 -20t23.5 -52q0 -61 -56 -121.5t-155 -60.5q-57 0 -126.5 22t-128 44t-87.5 22z"/>
<glyph glyph-name="ograve" unicode="" horiz-adv-x="1107" d="M553 991q138 0 245.5 -67.5t164.5 -183t57 -257.5q0 -141 -57 -255.5t-164.5 -181t-245.5 -66.5t-245 66.5t-164.5 181t-57.5 255.5q0 217 130 362.5t337 145.5zM553 129q140 0 220.5 102.5t80.5 251.5q0 150 -80.5 253.5t-220.5 103.5q-139 0 -219 -103.5t-80 -253.5 q0 -148 80 -251t219 -103zM737 1122l-450 246q-41 21 -41 70q0 33 23 54t55 21q22 0 38 -8l459 -256q39 -20 39 -65q0 -30 -22 -52t-54 -22q-25 0 -47 12z"/>
<glyph glyph-name="oacute" unicode="" horiz-adv-x="1107" d="M553 991q138 0 245.5 -67.5t164.5 -183t57 -257.5q0 -141 -57 -255.5t-164.5 -181t-245.5 -66.5t-245 66.5t-164.5 181t-57.5 255.5q0 217 130 362.5t337 145.5zM553 129q140 0 220.5 102.5t80.5 251.5q0 150 -80.5 253.5t-220.5 103.5q-139 0 -219 -103.5t-80 -253.5 q0 -148 80 -251t219 -103zM819 1368l-450 -246q-22 -12 -47 -12q-32 0 -54 22t-22 52q0 45 39 65l458 256q16 8 39 8q32 0 55 -21t23 -54q0 -49 -41 -70z"/>
<glyph glyph-name="ocircumflex" unicode="" horiz-adv-x="1107" d="M553 991q138 0 245.5 -67.5t164.5 -183t57 -257.5q0 -141 -57 -255.5t-164.5 -181t-245.5 -66.5t-245 66.5t-164.5 181t-57.5 255.5q0 217 130 362.5t337 145.5zM553 129q140 0 220.5 102.5t80.5 251.5q0 150 -80.5 253.5t-220.5 103.5q-139 0 -219 -103.5t-80 -253.5 q0 -148 80 -251t219 -103zM553 1536q24 0 47 -20l307 -254q18 -15 26.5 -23.5t16.5 -23.5t8 -31q0 -32 -23 -56t-54 -24q-33 0 -58 22l-270 226l-270 -226q-25 -22 -58 -22q-31 0 -54.5 24t-23.5 56q0 16 8.5 31.5t16.5 23t27 23.5l307 254q23 20 47 20z"/>
<glyph glyph-name="otilde" unicode="" horiz-adv-x="1107" d="M553 991q138 0 245.5 -67.5t164.5 -183t57 -257.5q0 -141 -57 -255.5t-164.5 -181t-245.5 -66.5t-245 66.5t-164.5 181t-57.5 255.5q0 217 130 362.5t337 145.5zM553 129q140 0 220.5 102.5t80.5 251.5q0 150 -80.5 253.5t-220.5 103.5q-139 0 -219 -103.5t-80 -253.5 q0 -148 80 -251t219 -103zM387 1233q-26 0 -45 -13t-41 -46q-25 -33 -61 -33q-32 0 -53 23t-21 55q0 59 58.5 117.5t150.5 58.5q65 0 187.5 -45t158.5 -45q25 0 40.5 9.5t23.5 23.5t15.5 28t22.5 23.5t39 9.5q31 0 54.5 -20t23.5 -52q0 -61 -56 -121.5t-155 -60.5 q-57 0 -126.5 22t-128 44t-87.5 22z"/>
<glyph glyph-name="odieresis" unicode="" horiz-adv-x="1107" d="M553 991q138 0 245.5 -67.5t164.5 -183t57 -257.5q0 -141 -57 -255.5t-164.5 -181t-245.5 -66.5t-245 66.5t-164.5 181t-57.5 255.5q0 217 130 362.5t337 145.5zM553 129q140 0 220.5 102.5t80.5 251.5q0 150 -80.5 253.5t-220.5 103.5q-139 0 -219 -103.5t-80 -253.5 q0 -148 80 -251t219 -103zM182 1296q0 65 47 111.5t113 46.5q64 0 111 -47t47 -111q0 -66 -46.5 -112.5t-111.5 -46.5q-66 0 -113 46.5t-47 112.5zM608 1296q0 65 47 111.5t113 46.5q64 0 111 -47t47 -111q0 -66 -46.5 -112.5t-111.5 -46.5q-66 0 -113 46.5t-47 112.5z"/>
<glyph glyph-name="divide" unicode="" horiz-adv-x="1249" d="M459 346q0 70 48.5 118t117.5 48q71 0 118.5 -48t47.5 -118t-47.5 -118t-118.5 -48q-69 0 -117.5 48t-48.5 118zM459 1055q0 70 48.5 119t117.5 49q70 0 118 -48.5t48 -119.5q0 -69 -48 -117.5t-118 -48.5q-69 0 -117.5 48.5t-48.5 117.5zM991 627h-733q-33 0 -55.5 21.5 t-22.5 53.5t23 54t55 22h733q31 0 54.5 -22t23.5 -54t-23.5 -53.5t-54.5 -21.5z"/>
<glyph glyph-name="oslash" unicode="" horiz-adv-x="1107" d="M918 1180l-107 -265q99 -68 154 -181.5t55 -250.5q0 -216 -129 -359.5t-336 -143.5q-63 0 -119 16l-94 -234q-9 -22 -28.5 -34.5t-43.5 -12.5q-32 0 -54.5 20.5t-22.5 51.5q0 17 6 35l96 233q-98 66 -153.5 179t-55.5 249q0 217 130 362.5t337 145.5q50 0 115 -14 l108 268q18 49 72 49q33 0 56.5 -20t23.5 -53q0 -18 -10 -41zM254 483q0 -180 104 -274l250 622q-4 1 -20 4t-27 3q-144 0 -225.5 -100.5t-81.5 -254.5zM852 483q0 178 -104 279l-252 -627q21 -6 51 -6q142 0 223.5 101t81.5 253z"/>
<glyph glyph-name="ugrave" unicode="" horiz-adv-x="1331" d="M1079 893v-741h152q34 0 57 -22t23 -54t-23 -54t-57 -22h-234q-34 0 -56.5 22t-22.5 54v84q-54 -86 -145.5 -133t-192.5 -47q-157 0 -248.5 90t-91.5 264v485h-144q-33 0 -56.5 22.5t-23.5 53.5q0 33 23 54.5t57 21.5h230q33 0 55 -21.5t22 -54.5v-567q0 -57 16.5 -98 t45.5 -62.5t60.5 -31t68.5 -9.5q61 0 117 24t101.5 70t73 121t27.5 168v309h-155q-32 0 -54 22.5t-22 53.5q0 34 22 55t56 21h239q34 0 57 -22t23 -56zM850 1122l-451 246q-41 21 -41 70q0 33 23 54t55 21q23 0 39 -8l459 -256q39 -20 39 -65q0 -30 -22 -52t-54 -22 q-25 0 -47 12z"/>
<glyph glyph-name="uacute" unicode="" horiz-adv-x="1331" d="M1079 893v-741h152q34 0 57 -22t23 -54t-23 -54t-57 -22h-234q-34 0 -56.5 22t-22.5 54v84q-54 -86 -145.5 -133t-192.5 -47q-157 0 -248.5 90t-91.5 264v485h-144q-33 0 -56.5 22.5t-23.5 53.5q0 33 23 54.5t57 21.5h230q33 0 55 -21.5t22 -54.5v-567q0 -57 16.5 -98 t45.5 -62.5t60.5 -31t68.5 -9.5q61 0 117 24t101.5 70t73 121t27.5 168v309h-155q-32 0 -54 22.5t-22 53.5q0 34 22 55t56 21h239q34 0 57 -22t23 -56zM932 1368l-451 -246q-22 -12 -47 -12q-32 0 -54 22t-22 52q0 45 39 65l459 256q16 8 39 8q32 0 55 -21t23 -54 q0 -49 -41 -70z"/>
<glyph glyph-name="ucircumflex" unicode="" horiz-adv-x="1331" d="M1079 893v-741h152q34 0 57 -22t23 -54t-23 -54t-57 -22h-234q-34 0 -56.5 22t-22.5 54v84q-54 -86 -145.5 -133t-192.5 -47q-157 0 -248.5 90t-91.5 264v485h-144q-33 0 -56.5 22.5t-23.5 53.5q0 33 23 54.5t57 21.5h230q33 0 55 -21.5t22 -54.5v-567q0 -57 16.5 -98 t45.5 -62.5t60.5 -31t68.5 -9.5q61 0 117 24t101.5 70t73 121t27.5 168v309h-155q-32 0 -54 22.5t-22 53.5q0 34 22 55t56 21h239q34 0 57 -22t23 -56zM666 1536q24 0 47 -20l307 -254q18 -15 26.5 -23.5t16.5 -23.5t8 -31q0 -32 -23.5 -56t-54.5 -24q-32 0 -57 22l-270 226 l-271 -226q-25 -22 -57 -22q-31 0 -54.5 24t-23.5 56q0 16 8 31t16.5 23.5t26.5 23.5l307 254q23 20 48 20z"/>
<glyph glyph-name="udieresis" unicode="" horiz-adv-x="1331" d="M1079 893v-741h152q34 0 57 -22t23 -54t-23 -54t-57 -22h-234q-34 0 -56.5 22t-22.5 54v84q-54 -86 -145.5 -133t-192.5 -47q-157 0 -248.5 90t-91.5 264v485h-144q-33 0 -56.5 22.5t-23.5 53.5q0 33 23 54.5t57 21.5h230q33 0 55 -21.5t22 -54.5v-567q0 -57 16.5 -98 t45.5 -62.5t60.5 -31t68.5 -9.5q61 0 117 24t101.5 70t73 121t27.5 168v309h-155q-32 0 -54 22.5t-22 53.5q0 34 22 55t56 21h239q34 0 57 -22t23 -56zM293 1296q0 65 47 111.5t113 46.5q64 0 110.5 -46.5t46.5 -111.5q0 -66 -46 -112.5t-111 -46.5q-66 0 -113 46.5 t-47 112.5zM719 1296q0 65 47 111.5t113 46.5q64 0 110.5 -46.5t46.5 -111.5q0 -66 -46 -112.5t-111 -46.5q-66 0 -113 46.5t-47 112.5z"/>
<glyph glyph-name="yacute" unicode="" horiz-adv-x="1269" d="M201 -512q-123 0 -205 64t-82 163q0 70 45.5 115t108.5 45q61 0 100 -38.5t39 -100.5q0 -26 -13.5 -54.5t-33.5 -43.5q21 -9 61 -9q30 0 58 8t50.5 19.5t45.5 34t39 40t35.5 50.5t30.5 52.5t28.5 58.5t24.5 56.5t24 57.5l-360 813h-113q-32 0 -55 21.5t-23 52.5 q0 33 22.5 55.5t55.5 22.5h414q32 0 54.5 -22.5t22.5 -55.5q0 -31 -22.5 -52.5t-54.5 -21.5h-117l270 -631l267 631h-125q-32 0 -56 21.5t-24 52.5q0 33 23.5 55.5t56.5 22.5h393q32 0 54 -22t22 -56q0 -31 -22 -52.5t-54 -21.5h-105l-426 -985q-149 -346 -454 -346z M901 1368l-450 -246q-22 -12 -48 -12q-32 0 -53.5 22t-21.5 52q0 45 39 65l458 256q16 8 39 8q32 0 55 -21t23 -54q0 -49 -41 -70z"/>
<glyph glyph-name="thorn" unicode="" horiz-adv-x="1185" d="M328 836q51 75 133 115t184 40q139 0 243 -68t157 -181.5t53 -254.5q0 -219 -125.5 -363t-331.5 -144q-103 0 -184.5 40t-128.5 113v-473h180q34 -2 56 -23t22 -53t-22 -54t-56 -22h-490q-32 0 -54.5 22t-22.5 54t22.5 54t54.5 22h144v1620h-146q-32 2 -54.5 23.5 t-22.5 52.5q0 34 22.5 56t54.5 22h232q32 0 56 -22.5t24 -53.5v-522zM627 129q139 0 220 103t81 251q0 150 -80 253.5t-219 103.5t-221 -104t-82 -253q0 -148 81 -251t220 -103z"/>
<glyph glyph-name="ydieresis" unicode="" horiz-adv-x="1269" d="M201 -512q-123 0 -205 64t-82 163q0 70 45.5 115t108.5 45q61 0 100 -38.5t39 -100.5q0 -26 -13.5 -54.5t-33.5 -43.5q21 -9 61 -9q30 0 58 8t50.5 19.5t45.5 34t39 40t35.5 50.5t30.5 52.5t28.5 58.5t24.5 56.5t24 57.5l-360 813h-113q-32 0 -55 21.5t-23 52.5 q0 33 22.5 55.5t55.5 22.5h414q32 0 54.5 -22.5t22.5 -55.5q0 -31 -22.5 -52.5t-54.5 -21.5h-117l270 -631l267 631h-125q-32 0 -56 21.5t-24 52.5q0 33 23.5 55.5t56.5 22.5h393q32 0 54 -22t22 -56q0 -31 -22 -52.5t-54 -21.5h-105l-426 -985q-149 -346 -454 -346z M262 1296q0 65 47 111.5t113 46.5q64 0 111 -47t47 -111q0 -66 -46.5 -112.5t-111.5 -46.5q-66 0 -113 46.5t-47 112.5zM688 1296q0 65 47 111.5t113 46.5q64 0 111 -47t47 -111q0 -66 -46.5 -112.5t-111.5 -46.5q-66 0 -113 46.5t-47 112.5z"/>
<glyph glyph-name="Amacron" unicode="" horiz-adv-x="1478" d="M1096 154l-123 364h-471l-125 -364h174q34 0 57 -22t23 -54q0 -34 -23 -56t-57 -22h-477q-34 0 -57 22t-23 56q0 32 23 54t57 22h133l444 1267q24 66 88 66q33 0 55.5 -18t30.5 -44l447 -1271h133q34 0 57 -22t23 -54q0 -34 -23 -56t-57 -22h-477q-34 0 -58 22.5 t-24 55.5q0 32 24 54t58 22h168zM737 1229l-190 -565h379zM995 1642h-512q-32 0 -53.5 22t-21.5 54t21.5 54t53.5 22h512q32 0 54 -22t22 -54t-22 -54t-54 -22z"/>
<glyph glyph-name="amacron" unicode="" horiz-adv-x="1107" d="M748 76v37q-60 -68 -144.5 -100.5t-177.5 -32.5q-153 0 -252.5 76.5t-99.5 217.5q0 74 29 131t74.5 91t109.5 56t127 30t133 8l194 -4v57q0 199 -225 199q-132 0 -237 -58q-64 -28 -80 -30q-37 0 -57.5 21t-20.5 52q0 49 63 86q55 32 151 55t191 23q177 0 279 -90 t102 -254v-495h109q32 0 56 -21.5t24 -52.5q0 -32 -22 -55t-62 -23h-185q-34 0 -56.5 22t-22.5 54zM741 268v181q-39 2 -118 2q-42 0 -71 -0.5t-72.5 -4.5t-73.5 -10.5t-64 -19.5t-54.5 -31t-34 -46t-13.5 -63q0 -75 55 -116t141 -41q95 0 184 42.5t121 106.5zM809 1180 h-512q-32 0 -54 21.5t-22 53.5t22 54t54 22h512q32 0 54 -22t22 -54t-22 -53.5t-54 -21.5z"/>
<glyph glyph-name="Abreve" unicode="" horiz-adv-x="1478" d="M1096 154l-123 364h-471l-125 -364h174q34 0 57 -22t23 -54q0 -34 -23 -56t-57 -22h-477q-34 0 -57 22t-23 56q0 32 23 54t57 22h133l444 1267q24 66 88 66q33 0 55.5 -18t30.5 -44l447 -1271h133q34 0 57 -22t23 -54q0 -34 -23 -56t-57 -22h-477q-34 0 -58 22.5 t-24 55.5q0 32 24 54t58 22h168zM737 1229l-190 -565h379zM739 1571q-62 0 -113 17.5t-83.5 46t-55.5 66t-33.5 75.5t-11.5 77q-1 49 20.5 71t57.5 22q35 0 53.5 -22.5t24.5 -70.5q16 -139 141 -139q124 0 140 139q12 93 77 93q81 0 78 -93q-1 -49 -17.5 -96.5t-49.5 -90 t-92 -69t-136 -26.5z"/>
<glyph glyph-name="abreve" unicode="" horiz-adv-x="1107" d="M748 76v37q-60 -68 -144.5 -100.5t-177.5 -32.5q-153 0 -252.5 76.5t-99.5 217.5q0 74 29 131t74.5 91t109.5 56t127 30t133 8l194 -4v57q0 199 -225 199q-132 0 -237 -58q-64 -28 -80 -30q-37 0 -57.5 21t-20.5 52q0 49 63 86q55 32 151 55t191 23q177 0 279 -90 t102 -254v-495h109q32 0 56 -21.5t24 -52.5q0 -32 -22 -55t-62 -23h-185q-34 0 -56.5 22t-22.5 54zM741 268v181q-39 2 -118 2q-42 0 -71 -0.5t-72.5 -4.5t-73.5 -10.5t-64 -19.5t-54.5 -31t-34 -46t-13.5 -63q0 -75 55 -116t141 -41q95 0 184 42.5t121 106.5zM555 1108 q-77 0 -136 26.5t-92.5 69.5t-50 90.5t-18.5 96.5q-3 92 78 92q35 0 53.5 -22t24.5 -70q16 -140 141 -140q123 0 139 140q12 92 78 92q81 0 78 -92q-1 -49 -17.5 -96.5t-49.5 -90.5t-92 -69.5t-136 -26.5z"/>
<glyph glyph-name="Aogonek" unicode="" horiz-adv-x="1478" d="M942 -268q0 88 55 156t138 112h-207q-34 0 -58 22.5t-24 55.5q0 32 24 54t58 22h168l-123 364h-471l-125 -364h174q34 0 57 -22t23 -54q0 -34 -23 -56t-57 -22h-477q-34 0 -57 22t-23 56q0 32 23 54t57 22h133l444 1267q24 66 88 66q33 0 55.5 -18t30.5 -44l447 -1271 h133q34 0 57 -22t23 -54q0 -34 -23 -56t-57 -22h-84q-4 0 -4 -2q-77 -31 -140 -99.5t-63 -142.5q0 -48 31 -83t96 -35q47 0 102 21.5t70 21.5q27 0 49.5 -17.5t22.5 -54.5q0 -17 -12 -36t-39 -39t-80.5 -33t-124.5 -13q-138 0 -212.5 66t-74.5 178zM737 1229l-190 -565h379z "/>
<glyph glyph-name="aogonek" unicode="" horiz-adv-x="1107" d="M594 -268q0 92 58.5 162t144.5 112q-49 16 -49 70v37q-60 -68 -144.5 -100.5t-177.5 -32.5q-153 0 -252.5 76.5t-99.5 217.5q0 74 29 131t74.5 91t109.5 56t127 30t133 8l194 -4v57q0 199 -225 199q-132 0 -237 -58q-64 -28 -80 -30q-37 0 -57.5 21t-20.5 52q0 49 63 86 q55 32 151 55t191 23q177 0 279 -90t102 -254v-495h109q32 0 56 -21.5t24 -52.5q0 -32 -22 -55t-62 -23h-39q-4 0 -4 -2q-77 -31 -140 -99.5t-63 -142.5q0 -48 31 -83t96 -35q47 0 102 21.5t70 21.5q27 0 49.5 -17.5t22.5 -54.5q0 -17 -12 -36t-39 -39t-80.5 -33t-124.5 -13 q-138 0 -212.5 66t-74.5 178zM741 268v181q-39 2 -118 2q-42 0 -71 -0.5t-72.5 -4.5t-73.5 -10.5t-64 -19.5t-54.5 -31t-34 -46t-13.5 -63q0 -75 55 -116t141 -41q95 0 184 42.5t121 106.5z"/>
<glyph glyph-name="Cacute" unicode="" horiz-adv-x="1310" d="M1202 426q0 -31 -15.5 -81t-54.5 -114.5t-95.5 -119.5t-149.5 -93t-205 -38q-260 0 -414.5 200t-154.5 527q0 224 73 395t198.5 261.5t281.5 90.5q218 0 319 -145l-6 67q-3 32 19 55t55 23q34 0 56.5 -20t25.5 -52l49 -442q3 -33 -20 -55.5t-62 -22.5q-62 0 -80 66 q-14 51 -24.5 85t-27.5 77t-34 71.5t-42 58t-54 46.5t-67.5 28t-84.5 11q-185 0 -294 -164t-109 -430q0 -260 111.5 -421t299.5 -161q63 0 115.5 19t87 47.5t65 75t48.5 86.5t39 98q19 51 71 51q38 0 59 -22.5t21 -57.5zM920 1831l-451 -246q-22 -12 -47 -12q-32 0 -54 22 t-22 52q0 45 39 65l459 256q16 8 39 8q32 0 55 -21t23 -54q0 -49 -41 -70z"/>
<glyph glyph-name="cacute" unicode="" horiz-adv-x="1062" d="M580 991q157 0 267.5 -78t110.5 -188q0 -69 -42 -112.5t-105 -43.5q-60 0 -102.5 40t-42.5 98q0 70 55 106q-55 37 -139 37q-132 0 -229 -99.5t-97 -263.5q0 -154 86 -256t242 -102q96 0 157 42t109 112q24 36 68 36q31 0 53 -20.5t22 -54.5q0 -42 -55 -111 q-129 -153 -371 -153q-219 0 -351 141.5t-132 361.5q0 116 40.5 213t108.5 161t158 99t189 35zM797 1368l-451 -246q-22 -12 -47 -12q-32 0 -54 22t-22 52q0 45 39 65l459 256q16 8 39 8q32 0 55 -21t23 -54q0 -49 -41 -70z"/>
<glyph glyph-name="Ccircumflex" unicode="" horiz-adv-x="1310" d="M1202 426q0 -31 -15.5 -81t-54.5 -114.5t-95.5 -119.5t-149.5 -93t-205 -38q-260 0 -414.5 200t-154.5 527q0 224 73 395t198.5 261.5t281.5 90.5q218 0 319 -145l-6 67q-3 32 19 55t55 23q34 0 56.5 -20t25.5 -52l49 -442q3 -33 -20 -55.5t-62 -22.5q-62 0 -80 66 q-14 51 -24.5 85t-27.5 77t-34 71.5t-42 58t-54 46.5t-67.5 28t-84.5 11q-185 0 -294 -164t-109 -430q0 -260 111.5 -421t299.5 -161q63 0 115.5 19t87 47.5t65 75t48.5 86.5t39 98q19 51 71 51q38 0 59 -22.5t21 -57.5zM653 1999q23 0 47 -21l308 -254q19 -16 26.5 -23.5 t16 -22.5t8.5 -31q0 -32 -23.5 -56t-54.5 -24q-32 0 -57 22l-271 226l-270 -226q-25 -22 -57 -22q-31 0 -54.5 24t-23.5 56q0 16 8.5 31t16 22.5t26.5 23.5l307 254q24 21 47 21z"/>
<glyph glyph-name="ccircumflex" unicode="" horiz-adv-x="1062" d="M580 991q157 0 267.5 -78t110.5 -188q0 -69 -42 -112.5t-105 -43.5q-60 0 -102.5 40t-42.5 98q0 70 55 106q-55 37 -139 37q-132 0 -229 -99.5t-97 -263.5q0 -154 86 -256t242 -102q96 0 157 42t109 112q24 36 68 36q31 0 53 -20.5t22 -54.5q0 -42 -55 -111 q-129 -153 -371 -153q-219 0 -351 141.5t-132 361.5q0 116 40.5 213t108.5 161t158 99t189 35zM530 1536q25 0 48 -20l307 -254q18 -15 26.5 -23.5t16.5 -23.5t8 -31q0 -32 -23.5 -56t-54.5 -24q-32 0 -57 22l-271 226l-270 -226q-25 -22 -57 -22q-31 0 -54.5 24t-23.5 56 q0 16 8 31t16.5 23.5t26.5 23.5l307 254q23 20 47 20z"/>
<glyph glyph-name="Cdotaccent" unicode="" horiz-adv-x="1310" d="M1202 426q0 -31 -15.5 -81t-54.5 -114.5t-95.5 -119.5t-149.5 -93t-205 -38q-260 0 -414.5 200t-154.5 527q0 224 73 395t198.5 261.5t281.5 90.5q218 0 319 -145l-6 67q-3 32 19 55t55 23q34 0 56.5 -20t25.5 -52l49 -442q3 -33 -20 -55.5t-62 -22.5q-62 0 -80 66 q-14 51 -24.5 85t-27.5 77t-34 71.5t-42 58t-54 46.5t-67.5 28t-84.5 11q-185 0 -294 -164t-109 -430q0 -260 111.5 -421t299.5 -161q63 0 115.5 19t87 47.5t65 75t48.5 86.5t39 98q19 51 71 51q38 0 59 -22.5t21 -57.5zM485 1749q0 68 49.5 118t118.5 50q67 0 117.5 -50.5 t50.5 -117.5q0 -69 -50 -118.5t-118 -49.5q-69 0 -118.5 49.5t-49.5 118.5z"/>
<glyph glyph-name="cdotaccent" unicode="" horiz-adv-x="1062" d="M580 991q157 0 267.5 -78t110.5 -188q0 -69 -42 -112.5t-105 -43.5q-60 0 -102.5 40t-42.5 98q0 70 55 106q-55 37 -139 37q-132 0 -229 -99.5t-97 -263.5q0 -154 86 -256t242 -102q96 0 157 42t109 112q24 36 68 36q31 0 53 -20.5t22 -54.5q0 -42 -55 -111 q-129 -153 -371 -153q-219 0 -351 141.5t-132 361.5q0 116 40.5 213t108.5 161t158 99t189 35zM362 1286q0 68 49.5 118t118.5 50q68 0 118 -50t50 -118q0 -69 -50 -118.5t-118 -49.5q-69 0 -118.5 49.5t-49.5 118.5z"/>
<glyph glyph-name="Ccaron" unicode="" horiz-adv-x="1310" d="M1202 426q0 -31 -15.5 -81t-54.5 -114.5t-95.5 -119.5t-149.5 -93t-205 -38q-260 0 -414.5 200t-154.5 527q0 224 73 395t198.5 261.5t281.5 90.5q218 0 319 -145l-6 67q-3 32 19 55t55 23q34 0 56.5 -20t25.5 -52l49 -442q3 -33 -20 -55.5t-62 -22.5q-62 0 -80 66 q-14 51 -24.5 85t-27.5 77t-34 71.5t-42 58t-54 46.5t-67.5 28t-84.5 11q-185 0 -294 -164t-109 -430q0 -260 111.5 -421t299.5 -161q63 0 115.5 19t87 47.5t65 75t48.5 86.5t39 98q19 51 71 51q38 0 59 -22.5t21 -57.5zM653 1567q-24 0 -47 20l-307 254q-18 15 -26.5 23.5 t-16.5 23.5t-8 31q0 32 23.5 56t54.5 24t57 -23l270 -225l271 225q26 23 57 23t54.5 -24t23.5 -56q0 -16 -8 -31t-16.5 -23.5t-26.5 -23.5l-308 -254q-23 -20 -47 -20z"/>
<glyph glyph-name="ccaron" unicode="" horiz-adv-x="1062" d="M580 991q157 0 267.5 -78t110.5 -188q0 -69 -42 -112.5t-105 -43.5q-60 0 -102.5 40t-42.5 98q0 70 55 106q-55 37 -139 37q-132 0 -229 -99.5t-97 -263.5q0 -154 86 -256t242 -102q96 0 157 42t109 112q24 36 68 36q31 0 53 -20.5t22 -54.5q0 -42 -55 -111 q-129 -153 -371 -153q-219 0 -351 141.5t-132 361.5q0 116 40.5 213t108.5 161t158 99t189 35zM530 1104q-24 0 -47 20l-307 254q-18 15 -26.5 23.5t-16.5 23.5t-8 31q0 32 23.5 56t54.5 24t57 -23l270 -225l271 225q26 23 57 23t54.5 -24t23.5 -56q0 -16 -8 -31 t-16.5 -23.5t-26.5 -23.5l-307 -254q-23 -20 -48 -20z"/>
<glyph glyph-name="Dcaron" unicode="" horiz-adv-x="1523" d="M1241 729q0 43 -4 84.5t-18 98.5t-36.5 105t-65 98t-98.5 84.5t-140.5 56.5t-188.5 22h-192v-1124h192q104 0 188.5 23.5t140.5 60.5t98.5 89.5t65 103.5t36.5 110.5t18 102t4 85.5zM154 1434h542q333 0 525 -185t192 -520q0 -336 -193.5 -532.5t-523.5 -196.5h-542 q-34 0 -57 22t-23 56q0 32 23 54t57 22h176v1124h-176q-34 0 -57 23t-23 55t23 55t57 23zM741 1567q-24 0 -47 20l-307 254q-18 15 -26.5 23.5t-16.5 23.5t-8 31q0 32 23.5 56t54.5 24t57 -23l270 -225l271 225q26 23 57 23t54.5 -24t23.5 -56q0 -16 -8 -31t-16.5 -23.5 t-26.5 -23.5l-308 -254q-23 -20 -47 -20z"/>
<glyph glyph-name="dcaron" unicode="" horiz-adv-x="1755" d="M858 72v67q-49 -78 -132.5 -118.5t-186.5 -40.5q-206 0 -329.5 142.5t-123.5 360.5q0 142 55 257t160.5 183t243.5 68q99 0 180.5 -41.5t132.5 -113.5v446h-149q-34 0 -57 22t-23 54q0 31 23.5 53.5t56.5 22.5h235q33 0 56.5 -22.5t23.5 -53.5v-1206h154q32 -1 53.5 -23 t21.5 -53q0 -32 -21.5 -54t-53.5 -22h-244q-33 0 -54.5 20t-21.5 52zM258 483q0 -148 80 -251t219 -103t220 103t81 251q0 150 -81 253.5t-220 103.5t-219 -103.5t-80 -253.5zM1264 1282q0 72 50 122t126 50q85 0 140.5 -63t55.5 -168q0 -143 -106 -283t-244 -199 q-30 -12 -49 -12q-30 0 -51 17.5t-21 48.5q0 42 43 61q94 43 160 110.5t84 155.5q-10 -2 -18 -2q-77 0 -123.5 45.5t-46.5 116.5z"/>
<glyph glyph-name="Dcroat" unicode="" horiz-adv-x="1525" d="M156 1434h542q333 0 524 -185t191 -520q0 -337 -192.5 -533t-522.5 -196h-542q-34 0 -57 22t-23 56q0 32 23 54t57 22h174v514h-174q-34 0 -57 22.5t-23 54.5t23 55t57 23h174v455h-174q-34 0 -57 23t-23 55t23 55t57 23zM860 668h-360v-514h190q104 0 189 23.5t141 60.5 t98 89.5t65 103.5t36.5 110.5t17.5 101.5t4 86q0 43 -4 84.5t-17.5 98.5t-36.5 105t-65 98t-98 84.5t-141 56.5t-189 22h-190v-455h360q34 0 57 -23t23 -55t-23 -54.5t-57 -22.5z"/>
<glyph glyph-name="dcroat" unicode="" horiz-adv-x="1267" d="M858 72v67q-49 -78 -132.5 -118.5t-186.5 -40.5q-206 0 -329.5 142.5t-123.5 360.5q0 142 55 257t160.5 183t243.5 68q99 0 180.5 -41.5t132.5 -113.5v446h-149q-34 0 -57 22t-23 54q0 31 23.5 53.5t56.5 22.5h235q33 0 56.5 -22.5t23.5 -53.5v-129h135q31 0 53.5 -22 t22.5 -54q0 -31 -22 -52.5t-54 -21.5h-135v-927h154q32 -1 53.5 -23t21.5 -53q0 -32 -21.5 -54t-53.5 -22h-244q-33 0 -54.5 20t-21.5 52zM258 483q0 -148 80 -251t219 -103t220 103t81 251q0 150 -81 253.5t-220 103.5t-219 -103.5t-80 -253.5z"/>
<glyph glyph-name="Emacron" unicode="" horiz-adv-x="1435" d="M758 823v142q0 34 25 58t59 24q35 0 59.5 -24t24.5 -58v-437q0 -35 -24.5 -58.5t-59.5 -23.5q-34 0 -59 23.5t-25 58.5v140h-260v-514h645l47 245q6 33 29.5 51.5t54.5 18.5q37 0 63 -26.5t19 -65.5l-58 -311q-6 -29 -31 -47.5t-55 -18.5h-1058q-34 0 -57 22t-23 56 q0 32 23 54t57 22h176v1124h-176q-34 0 -57 23t-23 55t23 55t57 23h1007q34 0 58.5 -21t25.5 -55l17 -283q1 -36 -23.5 -60t-60.5 -24q-35 0 -58 21.5t-26 54.5l-15 211h-581v-455h260zM973 1642h-512q-32 0 -54 22t-22 54t22 54t54 22h512q32 0 54 -22t22 -54t-22 -54 t-54 -22z"/>
<glyph glyph-name="emacron" unicode="" horiz-adv-x="1081" d="M934 133q-68 -78 -166 -115.5t-203 -37.5q-214 0 -346.5 143t-132.5 358q0 226 135 368t340 142q99 0 183 -37.5t138.5 -99.5t84.5 -139t30 -158q0 -88 -88 -88h-651q0 -87 36 -163t108.5 -125.5t166.5 -49.5q175 0 277 150q25 38 69 38q31 0 52.5 -20.5t21.5 -54.5 q0 -52 -55 -111zM557 850q-106 0 -183.5 -67t-99.5 -169h547q-15 105 -87 170.5t-177 65.5zM797 1180h-512q-32 0 -54 21.5t-22 53.5t22 54t54 22h512q32 0 53.5 -22t21.5 -54t-21.5 -53.5t-53.5 -21.5z"/>
<glyph glyph-name="Ebreve" unicode="" horiz-adv-x="1435" d="M758 823v142q0 34 25 58t59 24q35 0 59.5 -24t24.5 -58v-437q0 -35 -24.5 -58.5t-59.5 -23.5q-34 0 -59 23.5t-25 58.5v140h-260v-514h645l47 245q6 33 29.5 51.5t54.5 18.5q37 0 63 -26.5t19 -65.5l-58 -311q-6 -29 -31 -47.5t-55 -18.5h-1058q-34 0 -57 22t-23 56 q0 32 23 54t57 22h176v1124h-176q-34 0 -57 23t-23 55t23 55t57 23h1007q34 0 58.5 -21t25.5 -55l17 -283q1 -36 -23.5 -60t-60.5 -24q-35 0 -58 21.5t-26 54.5l-15 211h-581v-455h260zM719 1571q-62 0 -113 17.5t-83.5 46t-55.5 66t-33.5 75.5t-11.5 77q-1 49 20.5 71 t57.5 22q35 0 53.5 -22.5t24.5 -70.5q16 -139 141 -139q123 0 139 139q12 93 78 93q81 0 78 -93q-1 -49 -17.5 -96.5t-49.5 -90t-92 -69t-136 -26.5z"/>
<glyph glyph-name="ebreve" unicode="" horiz-adv-x="1081" d="M934 133q-68 -78 -166 -115.5t-203 -37.5q-214 0 -346.5 143t-132.5 358q0 226 135 368t340 142q99 0 183 -37.5t138.5 -99.5t84.5 -139t30 -158q0 -88 -88 -88h-651q0 -87 36 -163t108.5 -125.5t166.5 -49.5q175 0 277 150q25 38 69 38q31 0 52.5 -20.5t21.5 -54.5 q0 -52 -55 -111zM557 850q-106 0 -183.5 -67t-99.5 -169h547q-15 105 -87 170.5t-177 65.5zM541 1108q-77 0 -136 26.5t-92.5 69.5t-50 90.5t-18.5 96.5q-3 92 78 92q35 0 53 -22t24 -70q16 -140 142 -140q123 0 139 140q12 92 78 92q81 0 78 -92q-1 -49 -17.5 -96.5 t-49.5 -90.5t-92 -69.5t-136 -26.5z"/>
<glyph glyph-name="Edotaccent" unicode="" horiz-adv-x="1435" d="M758 823v142q0 34 25 58t59 24q35 0 59.5 -24t24.5 -58v-437q0 -35 -24.5 -58.5t-59.5 -23.5q-34 0 -59 23.5t-25 58.5v140h-260v-514h645l47 245q6 33 29.5 51.5t54.5 18.5q37 0 63 -26.5t19 -65.5l-58 -311q-6 -29 -31 -47.5t-55 -18.5h-1058q-34 0 -57 22t-23 56 q0 32 23 54t57 22h176v1124h-176q-34 0 -57 23t-23 55t23 55t57 23h1007q34 0 58.5 -21t25.5 -55l17 -283q1 -36 -23.5 -60t-60.5 -24q-35 0 -58 21.5t-26 54.5l-15 211h-581v-455h260zM549 1749q0 68 49.5 118t118.5 50q67 0 117.5 -50.5t50.5 -117.5q0 -69 -50 -118.5 t-118 -49.5q-69 0 -118.5 49.5t-49.5 118.5z"/>
<glyph glyph-name="edotaccent" unicode="" horiz-adv-x="1081" d="M934 133q-68 -78 -166 -115.5t-203 -37.5q-214 0 -346.5 143t-132.5 358q0 226 135 368t340 142q99 0 183 -37.5t138.5 -99.5t84.5 -139t30 -158q0 -88 -88 -88h-651q0 -87 36 -163t108.5 -125.5t166.5 -49.5q175 0 277 150q25 38 69 38q31 0 52.5 -20.5t21.5 -54.5 q0 -52 -55 -111zM557 850q-106 0 -183.5 -67t-99.5 -169h547q-15 105 -87 170.5t-177 65.5zM373 1286q0 68 49.5 118t118.5 50q67 0 117.5 -50t50.5 -118q0 -69 -50 -118.5t-118 -49.5q-69 0 -118.5 49.5t-49.5 118.5z"/>
<glyph glyph-name="Eogonek" unicode="" horiz-adv-x="1435" d="M823 -268q0 88 55 156t138 112h-862q-34 0 -57 22t-23 56q0 32 23 54t57 22h176v1124h-176q-34 0 -57 23t-23 55t23 55t57 23h1007q34 0 58.5 -21t25.5 -55l17 -283q1 -36 -23.5 -60t-60.5 -24q-35 0 -58 21.5t-26 54.5l-15 211h-581v-455h260v142q0 34 25 58t59 24 q35 0 59.5 -24t24.5 -58v-437q0 -35 -24.5 -58.5t-59.5 -23.5q-34 0 -59 23.5t-25 58.5v140h-260v-514h645l47 245q6 33 29.5 51.5t54.5 18.5q37 0 63 -26.5t19 -65.5l-58 -311q-6 -29 -31 -47.5t-55 -18.5h-10q-4 0 -4 -2q-77 -31 -140 -99.5t-63 -142.5q0 -48 31 -83 t96 -35q47 0 102 21.5t70 21.5q27 0 49.5 -17.5t22.5 -54.5q0 -17 -12 -36t-39 -39t-80.5 -33t-124.5 -13q-138 0 -212.5 66t-74.5 178z"/>
<glyph glyph-name="eogonek" unicode="" horiz-adv-x="1081" d="M276 -268q0 84 50.5 150.5t126.5 109.5q-168 37 -267.5 171t-99.5 318q0 226 135 368t340 142q99 0 183 -37.5t138.5 -99.5t84.5 -139t30 -158q0 -88 -88 -88h-651q0 -87 36 -163t108.5 -125.5t166.5 -49.5q175 0 277 150q25 38 69 38q31 0 52.5 -20.5t21.5 -54.5 q0 -52 -55 -111q-120 -134 -318 -151q-69 -37 -118 -98.5t-49 -127.5q0 -48 30.5 -83t95.5 -35q47 0 102.5 21.5t70.5 21.5q27 0 49 -17.5t22 -54.5q0 -17 -12 -36t-39 -39t-80.5 -33t-124.5 -13q-138 0 -212.5 66t-74.5 178zM557 850q-106 0 -183.5 -67t-99.5 -169h547 q-15 105 -87 170.5t-177 65.5z"/>
<glyph glyph-name="Ecaron" unicode="" horiz-adv-x="1435" d="M758 823v142q0 34 25 58t59 24q35 0 59.5 -24t24.5 -58v-437q0 -35 -24.5 -58.5t-59.5 -23.5q-34 0 -59 23.5t-25 58.5v140h-260v-514h645l47 245q6 33 29.5 51.5t54.5 18.5q37 0 63 -26.5t19 -65.5l-58 -311q-6 -29 -31 -47.5t-55 -18.5h-1058q-34 0 -57 22t-23 56 q0 32 23 54t57 22h176v1124h-176q-34 0 -57 23t-23 55t23 55t57 23h1007q34 0 58.5 -21t25.5 -55l17 -283q1 -36 -23.5 -60t-60.5 -24q-35 0 -58 21.5t-26 54.5l-15 211h-581v-455h260zM717 1567q-24 0 -47 20l-308 254q-18 15 -26.5 23.5t-16.5 23.5t-8 31q0 32 23.5 56 t54.5 24t57 -23l271 -225l270 225q26 23 57 23t54.5 -24t23.5 -56q0 -16 -8 -31t-16.5 -23.5t-26.5 -23.5l-307 -254q-23 -20 -47 -20z"/>
<glyph glyph-name="ecaron" unicode="" horiz-adv-x="1081" d="M934 133q-68 -78 -166 -115.5t-203 -37.5q-214 0 -346.5 143t-132.5 358q0 226 135 368t340 142q99 0 183 -37.5t138.5 -99.5t84.5 -139t30 -158q0 -88 -88 -88h-651q0 -87 36 -163t108.5 -125.5t166.5 -49.5q175 0 277 150q25 38 69 38q31 0 52.5 -20.5t21.5 -54.5 q0 -52 -55 -111zM557 850q-106 0 -183.5 -67t-99.5 -169h547q-15 105 -87 170.5t-177 65.5zM541 1104q-24 0 -47 20l-308 254q-18 15 -26.5 23.5t-16.5 23.5t-8 31q0 32 23.5 56t54.5 24t57 -23l271 -225l270 225q26 23 57 23t54.5 -24t23.5 -56q0 -16 -8 -31t-16.5 -23.5 t-26.5 -23.5l-307 -254q-23 -20 -47 -20z"/>
<glyph glyph-name="Gcircumflex" unicode="" horiz-adv-x="1386" d="M1098 -2q-38 0 -61 23t-23 59v57q-58 -75 -149 -116t-197 -41q-170 0 -296 92t-191.5 256t-65.5 379q0 341 156.5 544t396.5 203q216 0 317 -145q-8 63 -8 73q0 31 24.5 51.5t53.5 20.5q35 0 56 -19.5t26 -52.5l47 -442q3 -33 -20 -55.5t-62 -22.5q-63 0 -78 66 q-17 69 -33.5 118t-44.5 101.5t-61.5 84.5t-85 52.5t-115.5 20.5q-182 0 -289.5 -164.5t-107.5 -429.5q0 -259 107.5 -419.5t289.5 -160.5q119 0 204.5 59.5t121.5 137.5v159h-299q-34 0 -57 23t-23 55t23 55t57 23h581q34 0 57 -23t23 -55t-23 -55t-57 -23h-112v-407 q0 -36 -23 -59t-59 -23zM692 1999q23 0 47 -21l308 -254q19 -16 26.5 -23.5t16 -22.5t8.5 -31q0 -32 -23.5 -56t-54.5 -24q-32 0 -57 22l-271 226l-270 -226q-25 -22 -57 -22q-31 0 -54.5 24t-23.5 56q0 16 8.5 31t16 22.5t26.5 23.5l307 254q24 21 47 21z"/>
<glyph glyph-name="gcircumflex" unicode="" horiz-adv-x="1157" d="M877 877l186 206q27 27 59 27q31 0 54.5 -22.5t23.5 -51.5q0 -36 -49 -88l-188 -209q16 -59 16 -118q0 -165 -117 -266t-293 -101q-71 0 -141.5 15.5t-89.5 15.5q-32 0 -61 -21.5t-29 -60.5q0 -90 123 -121q111 18 221 18q279 0 420 -80.5t141 -220.5q0 -145 -154 -234 t-434 -89q-265 0 -405 84.5t-140 222.5q0 79 54 145t145 90q-49 21 -87 67.5t-38 113.5q0 79 57 127.5t115 52.5q-45 38 -76.5 106.5t-31.5 135.5q0 164 114 267t299 103q90 0 170.5 -28.5t135.5 -85.5zM197 -211q0 -84 105 -130t280 -46q178 0 288.5 47t110.5 133 q0 83 -102.5 124.5t-284.5 41.5q-183 0 -290 -42t-107 -128zM324 621q0 -106 69.5 -168t177.5 -62t177 61t69 166q0 108 -69 170t-177 62q-109 0 -178 -61.5t-69 -167.5zM567 1536q24 0 47 -20l308 -254q18 -15 26.5 -23.5t16.5 -23.5t8 -31q0 -32 -23.5 -56t-54.5 -24 q-32 0 -57 22l-271 226l-270 -226q-25 -22 -57 -22q-31 0 -54.5 24t-23.5 56q0 16 8 31t16.5 23.5t26.5 23.5l307 254q23 20 47 20z"/>
<glyph glyph-name="Gbreve" unicode="" horiz-adv-x="1386" d="M1098 -2q-38 0 -61 23t-23 59v57q-58 -75 -149 -116t-197 -41q-170 0 -296 92t-191.5 256t-65.5 379q0 341 156.5 544t396.5 203q216 0 317 -145q-8 63 -8 73q0 31 24.5 51.5t53.5 20.5q35 0 56 -19.5t26 -52.5l47 -442q3 -33 -20 -55.5t-62 -22.5q-63 0 -78 66 q-17 69 -33.5 118t-44.5 101.5t-61.5 84.5t-85 52.5t-115.5 20.5q-182 0 -289.5 -164.5t-107.5 -429.5q0 -259 107.5 -419.5t289.5 -160.5q119 0 204.5 59.5t121.5 137.5v159h-299q-34 0 -57 23t-23 55t23 55t57 23h581q34 0 57 -23t23 -55t-23 -55t-57 -23h-112v-407 q0 -36 -23 -59t-59 -23zM672 1571q-62 0 -113 17.5t-83.5 46t-55.5 66t-33.5 75.5t-11.5 77q-1 49 20.5 71t57.5 22q35 0 53 -22.5t24 -70.5q16 -139 142 -139q123 0 139 139q12 93 78 93q81 0 78 -93q-1 -49 -17.5 -96.5t-49.5 -90t-92 -69t-136 -26.5z"/>
<glyph glyph-name="gbreve" unicode="" horiz-adv-x="1157" d="M877 877l186 206q27 27 59 27q31 0 54.5 -22.5t23.5 -51.5q0 -36 -49 -88l-188 -209q16 -59 16 -118q0 -165 -117 -266t-293 -101q-71 0 -141.5 15.5t-89.5 15.5q-32 0 -61 -21.5t-29 -60.5q0 -90 123 -121q111 18 221 18q279 0 420 -80.5t141 -220.5q0 -145 -154 -234 t-434 -89q-265 0 -405 84.5t-140 222.5q0 79 54 145t145 90q-49 21 -87 67.5t-38 113.5q0 79 57 127.5t115 52.5q-45 38 -76.5 106.5t-31.5 135.5q0 164 114 267t299 103q90 0 170.5 -28.5t135.5 -85.5zM197 -211q0 -84 105 -130t280 -46q178 0 288.5 47t110.5 133 q0 83 -102.5 124.5t-284.5 41.5q-183 0 -290 -42t-107 -128zM324 621q0 -106 69.5 -168t177.5 -62t177 61t69 166q0 108 -69 170t-177 62q-109 0 -178 -61.5t-69 -167.5zM549 1108q-77 0 -136 26.5t-92.5 69.5t-50 90.5t-18.5 96.5q-3 92 78 92q35 0 53.5 -22t24.5 -70 q16 -140 141 -140q123 0 139 140q12 92 78 92q81 0 78 -92q-1 -49 -17.5 -96.5t-49.5 -90.5t-92 -69.5t-136 -26.5z"/>
<glyph glyph-name="Gdotaccent" unicode="" horiz-adv-x="1386" d="M1098 -2q-38 0 -61 23t-23 59v57q-58 -75 -149 -116t-197 -41q-170 0 -296 92t-191.5 256t-65.5 379q0 341 156.5 544t396.5 203q216 0 317 -145q-8 63 -8 73q0 31 24.5 51.5t53.5 20.5q35 0 56 -19.5t26 -52.5l47 -442q3 -33 -20 -55.5t-62 -22.5q-63 0 -78 66 q-17 69 -33.5 118t-44.5 101.5t-61.5 84.5t-85 52.5t-115.5 20.5q-182 0 -289.5 -164.5t-107.5 -429.5q0 -259 107.5 -419.5t289.5 -160.5q119 0 204.5 59.5t121.5 137.5v159h-299q-34 0 -57 23t-23 55t23 55t57 23h581q34 0 57 -23t23 -55t-23 -55t-57 -23h-112v-407 q0 -36 -23 -59t-59 -23zM494 1749q0 68 49.5 118t118.5 50q67 0 117 -50t50 -118q0 -69 -49.5 -118.5t-117.5 -49.5q-69 0 -118.5 49.5t-49.5 118.5z"/>
<glyph glyph-name="gdotaccent" unicode="" horiz-adv-x="1157" d="M877 877l186 206q27 27 59 27q31 0 54.5 -22.5t23.5 -51.5q0 -36 -49 -88l-188 -209q16 -59 16 -118q0 -165 -117 -266t-293 -101q-71 0 -141.5 15.5t-89.5 15.5q-32 0 -61 -21.5t-29 -60.5q0 -90 123 -121q111 18 221 18q279 0 420 -80.5t141 -220.5q0 -145 -154 -234 t-434 -89q-265 0 -405 84.5t-140 222.5q0 79 54 145t145 90q-49 21 -87 67.5t-38 113.5q0 79 57 127.5t115 52.5q-45 38 -76.5 106.5t-31.5 135.5q0 164 114 267t299 103q90 0 170.5 -28.5t135.5 -85.5zM197 -211q0 -84 105 -130t280 -46q178 0 288.5 47t110.5 133 q0 83 -102.5 124.5t-284.5 41.5q-183 0 -290 -42t-107 -128zM324 621q0 -106 69.5 -168t177.5 -62t177 61t69 166q0 108 -69 170t-177 62q-109 0 -178 -61.5t-69 -167.5zM389 1286q0 68 49.5 118t118.5 50q67 0 117.5 -50t50.5 -118q0 -69 -50 -118.5t-118 -49.5 q-69 0 -118.5 49.5t-49.5 118.5z"/>
<glyph glyph-name="Gcommaaccent" unicode="" horiz-adv-x="1386" d="M1098 -2q-38 0 -61 23t-23 59v57q-58 -75 -149 -116t-197 -41q-170 0 -296 92t-191.5 256t-65.5 379q0 341 156.5 544t396.5 203q216 0 317 -145q-8 63 -8 73q0 31 24.5 51.5t53.5 20.5q35 0 56 -19.5t26 -52.5l47 -442q3 -33 -20 -55.5t-62 -22.5q-63 0 -78 66 q-17 69 -33.5 118t-44.5 101.5t-61.5 84.5t-85 52.5t-115.5 20.5q-182 0 -289.5 -164.5t-107.5 -429.5q0 -259 107.5 -419.5t289.5 -160.5q119 0 204.5 59.5t121.5 137.5v159h-299q-34 0 -57 23t-23 55t23 55t57 23h581q34 0 57 -23t23 -55t-23 -55t-57 -23h-112v-407 q0 -36 -23 -59t-59 -23zM535 -354q0 72 50.5 122t125.5 50q85 0 140.5 -63.5t55.5 -168.5q0 -143 -106 -282t-244 -199q-30 -12 -49 -12q-30 0 -51 17t-21 48q0 43 43 62q94 43 160 110.5t84 155.5q-10 -2 -18 -2q-77 0 -123.5 45.5t-46.5 116.5z"/>
<glyph glyph-name="gcommaaccent" unicode="" horiz-adv-x="1157" d="M877 877l186 206q27 27 59 27q31 0 54.5 -22.5t23.5 -51.5q0 -36 -49 -88l-188 -209q16 -59 16 -118q0 -165 -117 -266t-293 -101q-71 0 -141.5 15.5t-89.5 15.5q-32 0 -61 -21.5t-29 -60.5q0 -90 123 -121q111 18 221 18q279 0 420 -80.5t141 -220.5q0 -145 -154 -234 t-434 -89q-265 0 -405 84.5t-140 222.5q0 79 54 145t145 90q-49 21 -87 67.5t-38 113.5q0 79 57 127.5t115 52.5q-45 38 -76.5 106.5t-31.5 135.5q0 164 114 267t299 103q90 0 170.5 -28.5t135.5 -85.5zM197 -211q0 -84 105 -130t280 -46q178 0 288.5 47t110.5 133 q0 83 -102.5 124.5t-284.5 41.5q-183 0 -290 -42t-107 -128zM324 621q0 -106 69.5 -168t177.5 -62t177 61t69 166q0 108 -69 170t-177 62q-109 0 -178 -61.5t-69 -167.5zM713 1276q0 -72 -50.5 -122t-125.5 -50q-85 0 -141 63t-56 168q0 143 106 283t244 199q30 12 49 12 q30 0 51 -17.5t21 -48.5q0 -42 -43 -61q-94 -43 -160 -110.5t-84 -155.5q11 2 19 2q77 0 123.5 -45.5t46.5 -116.5z"/>
<glyph glyph-name="Hcircumflex" unicode="" horiz-adv-x="1728" d="M1231 154v514h-733v-514h176q34 0 57 -22t23 -54q0 -34 -23 -56t-57 -22h-520q-34 0 -57 22t-23 56q0 32 23 54t57 22h176v1124h-176q-34 0 -57 23t-23 55t23 55t57 23h520q34 0 57 -23t23 -55t-23 -55t-57 -23h-176v-455h733v455h-176q-34 0 -57 23t-23 55t23 55t57 23 h520q34 0 57 -23t23 -55t-23 -55t-57 -23h-176v-1124h176q34 0 57 -22t23 -54q0 -34 -23 -56t-57 -22h-520q-34 0 -57 22t-23 56q0 32 23 54t57 22h176zM864 1999q23 0 47 -21l308 -254q19 -16 26.5 -23.5t16 -22.5t8.5 -31q0 -32 -23.5 -56t-54.5 -24q-32 0 -57 22 l-271 226l-270 -226q-25 -22 -57 -22q-31 0 -54.5 24t-23.5 56q0 16 8.5 31t16 22.5t26.5 23.5l307 254q24 21 47 21z"/>
<glyph glyph-name="hcircumflex" unicode="" horiz-adv-x="1316" d="M236 152v1128h-136q-33 0 -56.5 22.5t-23.5 53.5q0 34 23 56t57 22h222q32 0 54.5 -22t22.5 -56v-551q52 91 141.5 138.5t190.5 47.5q160 0 257 -90.5t97 -263.5v-485h134q33 0 56 -23t23 -53q0 -32 -22.5 -54t-56.5 -22h-406q-32 0 -55 22t-23 54t23 54t55 22h109v489 q0 54 -18 95t-48.5 63.5t-65 33.5t-71.5 11q-129 0 -224.5 -103.5t-95.5 -283.5v-305h146q33 0 55.5 -22.5t22.5 -53.5q0 -32 -23 -54t-55 -22h-443q-30 0 -53.5 22.5t-23.5 53.5q0 32 22.5 54t54.5 22h134zM664 1999q23 0 47 -21l307 -254q19 -16 26.5 -23.5t16 -22.5 t8.5 -31q0 -32 -23.5 -56t-54.5 -24q-32 0 -57 22l-270 226l-271 -226q-25 -22 -57 -22q-31 0 -54.5 24t-23.5 56q0 16 8.5 31t16 22.5t26.5 23.5l307 254q24 21 48 21z"/>
<glyph glyph-name="Hbar" unicode="" horiz-adv-x="1728" d="M1575 944h-176v-790h176q34 0 57 -22t23 -54q0 -34 -23 -56t-57 -22h-520q-34 0 -57 22t-23 56q0 32 23 54t57 22h176v452h-733v-452h176q34 0 57 -22t23 -54q0 -34 -23 -56t-57 -22h-520q-34 0 -57 22t-23 56q0 32 23 54t57 22h176v790h-176q-34 0 -57 22t-23 54 q0 34 23 56t57 22h176v180h-176q-34 0 -57 23t-23 55t23 55t57 23h520q34 0 57 -23t23 -55t-23 -55t-57 -23h-176v-180h733v180h-176q-34 0 -57 23t-23 55t23 55t57 23h520q34 0 57 -23t23 -55t-23 -55t-57 -23h-176v-180h176q34 0 57 -22t23 -56q0 -32 -23 -54t-57 -22z M498 762h733v182h-733v-182z"/>
<glyph glyph-name="hbar" unicode="" horiz-adv-x="1316" d="M922 152v489q0 54 -18 95t-48.5 63.5t-65 33.5t-71.5 11q-129 0 -224.5 -103.5t-95.5 -283.5v-305h146q33 0 55.5 -22.5t22.5 -53.5q0 -32 -23 -54t-55 -22h-443q-32 0 -54.5 22t-22.5 54t22.5 54t54.5 22h134v1128h-136q-33 0 -56.5 22.5t-23.5 53.5q0 34 23 56t57 22 h222q32 0 54.5 -22t22.5 -56v-127h260q31 0 54.5 -21.5t23.5 -54.5q0 -31 -23 -52.5t-55 -21.5h-260v-274q52 91 141.5 138.5t190.5 47.5q160 0 257 -90.5t97 -263.5v-485h134q33 0 56 -23t23 -53q0 -32 -22.5 -54t-56.5 -22h-406q-32 0 -55 22t-23 54t23 54t55 22h109z"/>
<glyph glyph-name="Itilde" unicode="" horiz-adv-x="974" d="M403 154v1124h-270q-32 0 -55 23t-23 55t23 55t55 23h709q32 0 55 -23t23 -55t-23 -55t-55 -23h-271v-1124h271q32 0 55 -22t23 -54q0 -33 -22.5 -55.5t-55.5 -22.5h-709q-33 0 -55.5 22.5t-22.5 55.5q0 32 23 54t55 22h270zM322 1696q-26 0 -45 -13.5t-41 -46.5 q-24 -32 -62 -32q-32 0 -53 23t-21 54q0 59 58.5 118t150.5 59q65 0 187.5 -45.5t158.5 -45.5q30 0 48 15t24.5 32.5t23.5 32.5t46 15q31 0 54 -20t23 -52q0 -61 -55.5 -121.5t-154.5 -60.5q-57 0 -126.5 22t-128 44t-87.5 22z"/>
<glyph glyph-name="itilde" unicode="" horiz-adv-x="862" d="M530 893v-741h242q32 0 54 -22t22 -54t-22 -54t-54 -22h-647q-32 0 -54 22t-22 54t22 54t54 22h242v665h-230q-32 0 -55 22.5t-23 53.5q0 33 22.5 55.5t55.5 22.5h316q33 0 55 -22.5t22 -55.5zM266 1233q-26 0 -45 -13t-41 -46q-25 -33 -61 -33q-32 0 -53 23t-21 55 q0 59 58.5 117.5t150.5 58.5q65 0 187.5 -45t158.5 -45q25 0 40.5 9.5t23.5 23.5t15.5 28t22.5 23.5t39 9.5q31 0 54.5 -20t23.5 -52q0 -61 -56 -121.5t-155 -60.5q-57 0 -126.5 22t-128 44t-87.5 22z"/>
<glyph glyph-name="imacron" unicode="" horiz-adv-x="862" d="M530 893v-741h242q32 0 54 -22t22 -54t-22 -54t-54 -22h-647q-32 0 -54 22t-22 54t22 54t54 22h242v665h-230q-32 0 -55 22.5t-23 53.5q0 33 22.5 55.5t55.5 22.5h316q33 0 55 -22.5t22 -55.5zM688 1180h-512q-32 0 -54 21.5t-22 53.5t22 54t54 22h512q32 0 54 -22 t22 -54t-22 -53.5t-54 -21.5z"/>
<glyph glyph-name="Ibreve" unicode="" horiz-adv-x="974" d="M403 154v1124h-270q-32 0 -55 23t-23 55t23 55t55 23h709q32 0 55 -23t23 -55t-23 -55t-55 -23h-271v-1124h271q32 0 55 -22t23 -54q0 -33 -22.5 -55.5t-55.5 -22.5h-709q-33 0 -55.5 22.5t-22.5 55.5q0 32 23 54t55 22h270zM487 1571q-62 0 -113 17.5t-83.5 46t-55.5 66 t-33.5 75.5t-11.5 77q-1 49 20.5 71t57.5 22q35 0 53.5 -22.5t24.5 -70.5q16 -139 141 -139q124 0 140 139q12 93 78 93q80 0 77 -93q-1 -49 -17.5 -96.5t-49.5 -90t-92 -69t-136 -26.5z"/>
<glyph glyph-name="Iogonek" unicode="" horiz-adv-x="974" d="M274 -268q0 88 55 156t138 112h-334q-33 0 -55.5 22.5t-22.5 55.5q0 32 23 54t55 22h270v1124h-270q-32 0 -55 23t-23 55t23 55t55 23h709q32 0 55 -23t23 -55t-23 -55t-55 -23h-271v-1124h271q32 0 55 -22t23 -54q0 -33 -22.5 -55.5t-55.5 -22.5h-189q-4 0 -4 -2 q-77 -31 -140 -99.5t-63 -142.5q0 -48 31 -83t96 -35q47 0 102 21.5t70 21.5q27 0 49.5 -17.5t22.5 -54.5q0 -17 -12 -36t-39 -39t-80.5 -33t-124.5 -13q-138 0 -212.5 66t-74.5 178z"/>
<glyph glyph-name="iogonek" unicode="" horiz-adv-x="862" d="M160 -268q0 89 55 157.5t137 110.5h-194q-109 0 -109 76t113 76h205v665h-197q-48 0 -79.5 18t-31.5 58q0 33 22.5 55.5t55.5 22.5h316q77 0 77 -115v-704h205q113 0 113 -76t-113 -76h-196q-27 -12 -59 -33.5t-67 -53.5t-58 -75t-23 -86t29 -76.5t94 -33.5 q48 0 104 19.5t72 19.5q29 0 50 -18t21 -54q0 -18 -12 -37.5t-39 -39t-80 -32t-125 -12.5q-137 0 -211.5 66.5t-74.5 177.5zM264 1292q0 66 48 114t114 48t114 -48t48 -114t-48 -114t-114 -48t-114 48t-48 114z"/>
<glyph glyph-name="Idotaccent" unicode="" horiz-adv-x="974" d="M403 154v1124h-270q-32 0 -55 23t-23 55t23 55t55 23h709q32 0 55 -23t23 -55t-23 -55t-55 -23h-271v-1124h271q32 0 55 -22t23 -54q0 -33 -22.5 -55.5t-55.5 -22.5h-709q-33 0 -55.5 22.5t-22.5 55.5q0 32 23 54t55 22h270zM319 1749q0 68 49.5 118t118.5 50 q67 0 117.5 -50.5t50.5 -117.5q0 -69 -50 -118.5t-118 -49.5q-69 0 -118.5 49.5t-49.5 118.5z"/>
<glyph glyph-name="dotlessi" unicode="" horiz-adv-x="862" d="M530 893v-741h242q32 0 54 -22t22 -54t-22 -54t-54 -22h-647q-32 0 -54 22t-22 54t22 54t54 22h242v665h-230q-32 0 -55 22.5t-23 53.5q0 33 22.5 55.5t55.5 22.5h316q33 0 55 -22.5t22 -55.5z"/>
<glyph glyph-name="IJ" unicode="" horiz-adv-x="2250" d="M403 154v1124h-270q-32 0 -55 23t-23 55t23 55t55 23h709q32 0 55 -23t23 -55t-23 -55t-55 -23h-271v-1124h271q32 0 55 -22t23 -54q0 -33 -22.5 -55.5t-55.5 -22.5h-709q-33 0 -55.5 22.5t-22.5 55.5q0 32 23 54t55 22h270zM1796 471v807h-551q-32 0 -55 23t-23 55 t23 55t55 23h864q34 0 57 -23t23 -55t-23 -55t-57 -23h-145v-811q0 -223 -125.5 -355t-370.5 -132q-108 0 -193 31t-133.5 80.5t-73 104.5t-24.5 109q0 82 48 133t122 51q63 0 108.5 -39.5t45.5 -107.5q0 -95 -88 -141q25 -31 74 -52.5t119 -21.5q167 0 245 92t78 252z"/>
<glyph glyph-name="ij" unicode="" horiz-adv-x="1468" d="M530 893v-741h242q32 0 54 -22t22 -54t-22 -54t-54 -22h-647q-32 0 -54 22t-22 54t22 54t54 22h242v667h-230q-32 0 -55 22.5t-23 53.5q0 33 22.5 54.5t55.5 21.5h316q33 0 55 -22.5t22 -55.5zM264 1292q0 66 48 114t114 48t114 -48t48 -114t-48 -114t-114 -48t-114 48 t-48 114zM1307 893v-1024q0 -176 -108.5 -278.5t-283.5 -102.5q-85 0 -156.5 25.5t-118 79.5t-46.5 128q0 72 45.5 118t110.5 46q68 0 104.5 -39.5t36.5 -93.5q0 -64 -51 -102q27 -21 84 -21q92 0 155.5 60.5t63.5 185.5v944h-254q-32 0 -55 22.5t-23 53.5q0 33 22.5 54.5 t55.5 21.5h340q34 0 56 -22t22 -56zM1040 1292q0 66 48 114t114 48t114 -48t48 -114t-48 -114t-114 -48t-114 48t-48 114z"/>
<glyph glyph-name="Jcircumflex" unicode="" horiz-adv-x="1275" d="M821 471v807h-551q-32 0 -54.5 23t-22.5 55t22.5 55t54.5 23h865q33 0 56 -23t23 -55t-23 -55t-56 -23h-146v-811q0 -223 -125 -355t-370 -132q-108 0 -193 31t-133.5 80.5t-73 104.5t-24.5 109q0 82 48 133t122 51q63 0 108 -39.5t45 -107.5q0 -95 -88 -141 q25 -31 74 -52.5t119 -21.5q167 0 245 92t78 252zM637 1999q23 0 47 -21l307 -254q19 -16 26.5 -23.5t16 -22.5t8.5 -31q0 -32 -23 -56t-54 -24q-33 0 -58 22l-270 226l-270 -226q-25 -22 -58 -22q-31 0 -54.5 24t-23.5 56q0 16 9 31.5t16 22t27 23.5l307 254q24 21 47 21z "/>
<glyph glyph-name="jcircumflex" unicode="" horiz-adv-x="667" d="M506 893v-1024q0 -176 -108 -278.5t-283 -102.5q-85 0 -156.5 25.5t-118.5 79.5t-47 128q0 72 44 117t108 45q63 0 103 -41t40 -106q0 -26 -12.5 -50.5t-36.5 -35.5q27 -21 84 -21q92 0 155.5 60.5t63.5 185.5v942h-254q-32 0 -55 22.5t-23 53.5q0 33 22.5 55.5 t55.5 22.5h340q34 0 56 -22t22 -56zM334 1536q24 0 47 -20l307 -254q18 -15 26.5 -23.5t16.5 -23.5t8 -31q0 -32 -23 -56t-54 -24q-33 0 -58 22l-270 226l-271 -226q-25 -22 -57 -22q-31 0 -54.5 24t-23.5 56q0 16 8.5 31.5t16.5 23t27 23.5l307 254q23 20 47 20z"/>
<glyph glyph-name="Kcommaaccent" unicode="" horiz-adv-x="1589" d="M1434 1278h-107l-485 -453l532 -671h121q34 0 57 -22t23 -54q0 -34 -23 -56t-57 -22h-457q-34 0 -57 22t-23 56q0 32 23 54t57 22h129l-444 565l-225 -213v-352h176q32 0 55 -22t23 -54q0 -33 -22.5 -55.5t-55.5 -22.5h-520q-34 0 -57 22t-23 56q0 32 23 54t57 22h176 v1124h-176q-34 0 -57 23t-23 55t23 55t57 23h499q32 0 55 -23t23 -55t-23 -55t-55 -23h-155v-580l606 580h-127q-34 0 -57 23t-23 55t23 55t57 23h457q34 0 56.5 -23t22.5 -55t-22.5 -55t-56.5 -23zM647 -313q0 71 50.5 121.5t125.5 50.5q85 0 141 -63.5t56 -168.5 q0 -143 -106 -282t-244 -199q-30 -12 -49 -12q-30 0 -51 17t-21 48q0 43 43 62q94 43 160 110.5t84 155.5q-11 -2 -19 -2q-77 0 -123.5 45.5t-46.5 116.5z"/>
<glyph glyph-name="kcommaaccent" unicode="" horiz-adv-x="1345" d="M911 45l-307 432l-196 -170v-155h145q32 0 54 -22.5t22 -53.5q0 -32 -22 -54t-56 -22h-451q-34 0 -57 22t-23 54t23 54t57 22h142v1128h-146q-32 0 -55 22.5t-23 53.5q0 33 22.5 55.5t55.5 22.5h232q34 0 57 -22t23 -56v-877l395 340h-158q-32 0 -55 22.5t-23 53.5 q0 33 22.5 54.5t55.5 21.5h555q34 0 56 -21t22 -55q0 -31 -22.5 -53.5t-55.5 -22.5h-180l-289 -246l309 -421h191q32 0 55 -22t23 -54t-23 -54t-55 -22h-207q-82 0 -113 45zM514 -313q0 71 50 121.5t126 50.5q85 0 141 -63.5t56 -168.5q0 -143 -106 -282t-244 -199 q-30 -12 -50 -12q-30 0 -50.5 17t-20.5 48q0 43 43 62q94 43 159.5 110.5t83.5 155.5q-10 -2 -18 -2q-77 0 -123.5 45.5t-46.5 116.5z"/>
<glyph glyph-name="kgreenlandic" unicode="" horiz-adv-x="1345" d="M1200 817h-180l-289 -244l309 -421h191q32 0 55 -22t23 -54t-23 -54t-55 -22h-207q-82 0 -113 45l-305 430l-198 -170v-153h145q32 0 54 -22.5t22 -53.5q0 -32 -22 -54t-56 -22h-451q-34 0 -57 22t-23 54t23 54t57 22h142v667h-142q-34 0 -57 22t-23 54t23 54t57 22h228 q34 0 57 -22t23 -56v-418l520 457q46 39 114 39h158q34 0 56 -22t22 -56q0 -31 -22.5 -53.5t-55.5 -22.5z"/>
<glyph glyph-name="Lacute" unicode="" horiz-adv-x="1374" d="M1122 154l47 245q6 33 29.5 51.5t54.5 18.5q37 0 63 -26.5t19 -65.5l-57 -311q-6 -29 -31 -47.5t-55 -18.5h-1038q-34 0 -57 22t-23 56q0 32 23 54t57 22h176v1124h-176q-34 0 -57 23t-23 55t23 55t57 23h571q34 0 57 -23t23 -55t-23 -55t-57 -23h-227v-1124h624z M952 1831l-450 -246q-22 -12 -47 -12q-32 0 -54 22t-22 52q0 45 39 65l459 256q16 8 38 8q32 0 55 -21t23 -54q0 -49 -41 -70z"/>
<glyph glyph-name="lacute" unicode="" horiz-adv-x="825" d="M496 1356v-1204h239q32 0 55 -22t23 -54t-23 -54t-55 -22h-645q-32 0 -55 22t-23 54t23 54t55 22h240v1128h-230q-32 0 -54.5 22.5t-22.5 53.5q0 34 22.5 56t54.5 22h316q34 0 57 -22t23 -56zM682 1831l-451 -246q-22 -12 -47 -12q-32 0 -53.5 22t-21.5 52q0 45 38 65 l459 256q16 8 39 8q32 0 55 -21t23 -54q0 -49 -41 -70z"/>
<glyph glyph-name="Lcommaaccent" unicode="" horiz-adv-x="1374" d="M1122 154l47 245q6 33 29.5 51.5t54.5 18.5q37 0 63 -26.5t19 -65.5l-57 -311q-6 -29 -31 -47.5t-55 -18.5h-1038q-34 0 -57 22t-23 56q0 32 23 54t57 22h176v1124h-176q-34 0 -57 23t-23 55t23 55t57 23h571q34 0 57 -23t23 -55t-23 -55t-57 -23h-227v-1124h624z M539 -313q0 71 50.5 121.5t125.5 50.5q85 0 140.5 -63.5t55.5 -168.5q0 -143 -106 -282t-244 -199q-30 -12 -49 -12q-30 0 -51 17t-21 48q0 43 43 62q94 43 160 110.5t84 155.5q-10 -2 -18 -2q-77 0 -123.5 45.5t-46.5 116.5z"/>
<glyph glyph-name="lcommaaccent" unicode="" horiz-adv-x="825" d="M496 1356v-1204h239q32 0 55 -22t23 -54t-23 -54t-55 -22h-645q-32 0 -55 22t-23 54t23 54t55 22h240v1128h-230q-32 0 -54.5 22.5t-22.5 53.5q0 34 22.5 56t54.5 22h316q34 0 57 -22t23 -56zM260 -313q0 71 50 121.5t126 50.5q85 0 141 -63.5t56 -168.5 q0 -143 -106 -282t-244 -199q-30 -12 -50 -12q-30 0 -50.5 17t-20.5 48q0 43 43 62q94 43 160 110.5t84 155.5q-11 -2 -19 -2q-77 0 -123.5 45.5t-46.5 116.5z"/>
<glyph glyph-name="Lcaron" unicode="" horiz-adv-x="1374" d="M1122 154l47 245q6 33 29.5 51.5t54.5 18.5q37 0 63 -26.5t19 -65.5l-57 -311q-6 -29 -31 -47.5t-55 -18.5h-1038q-34 0 -57 22t-23 56q0 32 23 54t57 22h176v1124h-176q-34 0 -57 23t-23 55t23 55t57 23h571q34 0 57 -23t23 -55t-23 -55t-57 -23h-227v-1124h624z M944 1282q0 72 50 122t126 50q85 0 141 -63t56 -168q0 -143 -106 -283t-244 -199q-30 -12 -49 -12q-30 0 -51 17.5t-21 48.5q0 42 43 61q94 43 160 110.5t84 155.5q-11 -2 -19 -2q-77 0 -123.5 45.5t-46.5 116.5z"/>
<glyph glyph-name="lcaron" unicode="" horiz-adv-x="1226" d="M496 1356v-1204h239q32 0 55 -22t23 -54t-23 -54t-55 -22h-645q-32 0 -55 22t-23 54t23 54t55 22h240v1128h-230q-32 0 -54.5 22.5t-22.5 53.5q0 34 22.5 56t54.5 22h316q34 0 57 -22t23 -56zM735 1282q0 72 50.5 122t125.5 50q85 0 141 -63t56 -168q0 -143 -106 -283 t-244 -199q-30 -12 -49 -12q-30 0 -51 17.5t-21 48.5q0 42 43 61q94 43 160 110.5t84 155.5q-11 -2 -19 -2q-77 0 -123.5 45.5t-46.5 116.5z"/>
<glyph glyph-name="Ldot" unicode="" horiz-adv-x="1374" d="M1122 154l47 245q6 33 29.5 51.5t54.5 18.5q37 0 63 -26.5t19 -65.5l-57 -311q-6 -29 -31 -47.5t-55 -18.5h-1038q-34 0 -57 22t-23 56q0 32 23 54t57 22h176v1124h-176q-34 0 -57 23t-23 55t23 55t57 23h571q34 0 57 -23t23 -55t-23 -55t-57 -23h-227v-1124h624z M733 791q0 72 51 122t123 50t122 -50t50 -122t-50 -123.5t-122 -51.5t-123 51.5t-51 123.5z"/>
<glyph glyph-name="ldot" unicode="" horiz-adv-x="1187" d="M496 1356v-1204h239q32 0 55 -22t23 -54t-23 -54t-55 -22h-645q-32 0 -55 22t-23 54t23 54t55 22h240v1128h-230q-32 0 -54.5 22.5t-22.5 53.5q0 34 22.5 56t54.5 22h316q34 0 57 -22t23 -56zM707 760q0 72 51 122t123 50t122 -50t50 -122t-50 -123t-122 -51t-123 51 t-51 123z"/>
<glyph glyph-name="Lslash" unicode="" horiz-adv-x="1376" d="M1124 154l47 245q6 33 29.5 51.5t54.5 18.5q37 0 63 -26.5t19 -65.5l-57 -311q-6 -29 -31 -47.5t-55 -18.5h-1038q-34 0 -57 22t-23 56q0 32 23 54t57 22h176v417l-94 -36q-63 -23 -88 -23q-29 0 -50.5 22.5t-21.5 57.5q0 51 69 76l185 63v547h-176q-34 0 -57 23t-23 55 t23 55t57 23h571q34 0 57 -23t23 -55t-23 -55t-57 -23h-227v-487l405 141q15 6 33 6q33 0 53.5 -23t20.5 -55q0 -24 -14.5 -44.5t-41.5 -27.5l-456 -159v-475h624z"/>
<glyph glyph-name="lslash" unicode="" horiz-adv-x="899" d="M354 750v532h-204q-111 0 -111 76q0 31 23 53.5t55 22.5h323q78 0 78 -115v-514l174 59q30 17 53 17q34 0 57 -19.5t23 -56.5q0 -25 -15 -44.5t-38 -27.5l-254 -86v-495h258q30 0 54 -22.5t24 -53.5q0 -32 -23 -54t-55 -22h-680q-31 0 -54.5 22.5t-23.5 53.5 q0 32 23.5 54t54.5 22h258v438l-174 -62q-16 -4 -30 -4q-26 0 -46 26t-20 60q0 46 47 62z"/>
<glyph glyph-name="Nacute" unicode="" horiz-adv-x="1636" d="M1335 1278v-1192q0 -40 -25 -65t-69 -25q-58 0 -100 65l-649 1170v-1077h217q32 0 54.5 -22t22.5 -54q0 -34 -22 -56t-55 -22h-555q-34 0 -57 22t-23 56q0 32 23 54t57 22h176v1124h-176q-34 0 -57 23t-23 55t23 55t57 23h333q68 0 95 -50l592 -1077v971h-175 q-33 0 -56 23t-23 55t23 55t56 23h471q34 0 57 -23t23 -55t-23 -55t-57 -23h-135zM1083 1831l-450 -246q-22 -12 -47 -12q-32 0 -54 22t-22 52q0 45 39 65l459 256q16 8 39 8q32 0 54.5 -21t22.5 -54q0 -49 -41 -70z"/>
<glyph glyph-name="nacute" unicode="" horiz-adv-x="1355" d="M141 152h133v667h-135q-30 0 -55 23t-25 53q0 33 23 54.5t57 21.5h215q34 0 57 -22t23 -56v-90q50 91 142 139.5t194 48.5q160 0 257 -90.5t97 -263.5v-485h133q30 0 55 -23t25 -53q0 -32 -23 -54t-57 -22h-405q-30 0 -54 22.5t-24 53.5q0 32 23 54t55 22h109v489 q0 54 -18 95t-48.5 63.5t-65 33.5t-71.5 11q-129 0 -224.5 -103.5t-95.5 -283.5v-305h146q33 0 55.5 -22.5t22.5 -53.5q0 -32 -23 -54t-55 -22h-443q-30 0 -54 22.5t-24 53.5q0 32 23 54t55 22zM942 1368l-450 -246q-22 -12 -48 -12q-32 0 -53.5 22t-21.5 52q0 45 39 65 l458 256q16 8 39 8q32 0 55 -21t23 -54q0 -49 -41 -70z"/>
<glyph glyph-name="Ncommaaccent" unicode="" horiz-adv-x="1636" d="M1335 1278v-1192q0 -40 -25 -65t-69 -25q-58 0 -100 65l-649 1170v-1077h217q32 0 54.5 -22t22.5 -54q0 -34 -22 -56t-55 -22h-555q-34 0 -57 22t-23 56q0 32 23 54t57 22h176v1124h-176q-34 0 -57 23t-23 55t23 55t57 23h333q68 0 95 -50l592 -1077v971h-175 q-33 0 -56 23t-23 55t23 55t56 23h471q34 0 57 -23t23 -55t-23 -55t-57 -23h-135zM647 -303q0 71 50.5 121.5t125.5 50.5q85 0 141 -63t56 -168q0 -143 -106 -283t-244 -199q-30 -12 -49 -12q-30 0 -51 17t-21 48q0 43 43 62q94 43 160 110.5t84 155.5q-11 -2 -19 -2 q-77 0 -123.5 45.5t-46.5 116.5z"/>
<glyph glyph-name="ncommaaccent" unicode="" horiz-adv-x="1355" d="M141 152h133v667h-135q-30 0 -55 23t-25 53q0 33 23 54.5t57 21.5h215q34 0 57 -22t23 -56v-90q50 91 142 139.5t194 48.5q160 0 257 -90.5t97 -263.5v-485h133q30 0 55 -23t25 -53q0 -32 -23 -54t-57 -22h-405q-30 0 -54 22.5t-24 53.5q0 32 23 54t55 22h109v489 q0 54 -18 95t-48.5 63.5t-65 33.5t-71.5 11q-129 0 -224.5 -103.5t-95.5 -283.5v-305h146q33 0 55.5 -22.5t22.5 -53.5q0 -32 -23 -54t-55 -22h-443q-30 0 -54 22.5t-24 53.5q0 32 23 54t55 22zM504 -303q0 71 50 121.5t126 50.5q85 0 141 -63t56 -168q0 -143 -106.5 -282.5 t-244.5 -199.5q-30 -12 -49 -12q-30 0 -50.5 17t-20.5 48q0 43 43 62q94 43 159.5 110.5t83.5 155.5q-10 -2 -18 -2q-77 0 -123.5 45.5t-46.5 116.5z"/>
<glyph glyph-name="Ncaron" unicode="" horiz-adv-x="1636" d="M1335 1278v-1192q0 -40 -25 -65t-69 -25q-58 0 -100 65l-649 1170v-1077h217q32 0 54.5 -22t22.5 -54q0 -34 -22 -56t-55 -22h-555q-34 0 -57 22t-23 56q0 32 23 54t57 22h176v1124h-176q-34 0 -57 23t-23 55t23 55t57 23h333q68 0 95 -50l592 -1077v971h-175 q-33 0 -56 23t-23 55t23 55t56 23h471q34 0 57 -23t23 -55t-23 -55t-57 -23h-135zM817 1567q-24 0 -47 20l-307 254q-18 15 -26.5 23.5t-16.5 23.5t-8 31q0 32 23 56t54 24q32 0 58 -23l270 -225l270 225q26 23 58 23q31 0 54.5 -24t23.5 -56q0 -16 -8.5 -31.5t-16.5 -23 t-27 -23.5l-307 -254q-23 -20 -47 -20z"/>
<glyph glyph-name="ncaron" unicode="" horiz-adv-x="1355" d="M141 152h133v667h-135q-30 0 -55 23t-25 53q0 33 23 54.5t57 21.5h215q34 0 57 -22t23 -56v-90q50 91 142 139.5t194 48.5q160 0 257 -90.5t97 -263.5v-485h133q30 0 55 -23t25 -53q0 -32 -23 -54t-57 -22h-405q-30 0 -54 22.5t-24 53.5q0 32 23 54t55 22h109v489 q0 54 -18 95t-48.5 63.5t-65 33.5t-71.5 11q-129 0 -224.5 -103.5t-95.5 -283.5v-305h146q33 0 55.5 -22.5t22.5 -53.5q0 -32 -23 -54t-55 -22h-443q-30 0 -54 22.5t-24 53.5q0 32 23 54t55 22zM678 1104q-24 0 -47 20l-307 254q-19 16 -27 23.5t-16.5 23t-8.5 31.5 q0 32 23.5 56t54.5 24q32 0 58 -23l270 -225l270 225q26 23 58 23q31 0 54 -24t23 -56q0 -16 -8 -31t-16.5 -23.5t-26.5 -23.5l-307 -254q-23 -20 -47 -20z"/>
<glyph glyph-name="napostrophe" unicode="" horiz-adv-x="1355" d="M141 152h133v667h-135q-30 0 -55 23t-25 53q0 33 23 54.5t57 21.5h215q34 0 57 -22t23 -56v-90q50 91 142 139.5t194 48.5q160 0 257 -90.5t97 -263.5v-485h133q30 0 55 -23t25 -53q0 -32 -23 -54t-57 -22h-405q-30 0 -54 22.5t-24 53.5q0 32 23 54t55 22h109v489 q0 54 -18 95t-48.5 63.5t-65 33.5t-71.5 11q-129 0 -224.5 -103.5t-95.5 -283.5v-305h146q33 0 55.5 -22.5t22.5 -53.5q0 -32 -23 -54t-55 -22h-443q-30 0 -54 22.5t-24 53.5q0 32 23 54t55 22z"/>
<glyph glyph-name="Eng" unicode="" horiz-adv-x="1636" d="M1335 -137q0 -223 -125 -355.5t-370 -132.5q-108 0 -193 31t-133.5 81t-73 105t-24.5 109q0 82 48 133t122 51q63 0 108 -39.5t45 -107.5q0 -95 -88 -141q25 -31 74 -52.5t119 -21.5q167 0 245 92.5t78 255.5v154q-42 61 -59 94l-616 1112v-1077h217q32 0 54.5 -22 t22.5 -54q0 -34 -22 -56t-55 -22h-555q-34 0 -57 22t-23 56q0 32 23 54t57 22h176v1124h-176q-34 0 -57 23t-23 55t23 55t57 23h333q68 0 95 -50l592 -1077v971h-175q-33 0 -56 23t-23 55t23 55t56 23h471q34 0 57 -23t23 -55t-23 -55t-57 -23h-135v-1415z"/>
<glyph glyph-name="eng" unicode="" horiz-adv-x="1355" d="M733 -512q-85 0 -156.5 25.5t-118 79.5t-46.5 128q0 72 45 118t110 46q68 0 105 -39.5t37 -93.5q0 -63 -52 -102q27 -21 84 -21q92 0 156 60.5t64 185.5v766q0 54 -18 95t-48.5 63.5t-65 33.5t-71.5 11q-129 0 -224.5 -103.5t-95.5 -283.5v-305h146q34 -1 56 -23t22 -53 q0 -32 -23 -54t-55 -22h-443q-32 0 -55 22t-23 54t23 54t55 22h133v665h-135q-33 0 -56.5 22.5t-23.5 53.5q0 34 23 56t57 22h215q34 0 57 -22t23 -56v-90q50 91 142 139.5t194 48.5q160 0 257 -90.5t97 -263.5v-485h133q33 0 56.5 -23t23.5 -53q0 -32 -23 -54t-57 -22h-133 v-131q0 -176 -108 -278.5t-283 -102.5z"/>
<glyph glyph-name="Omacron" unicode="" horiz-adv-x="1372" d="M686 1454q125 0 233 -58.5t182 -158t116.5 -235t42.5 -287.5t-42.5 -287t-117 -234t-182 -156.5t-232.5 -57.5q-167 0 -299.5 98.5t-204 266t-71.5 370.5t71.5 371.5t204 268t299.5 99.5zM686 129q116 0 208.5 78.5t142.5 212t50 295.5q0 163 -50.5 297t-142.5 212.5 t-208 78.5q-117 0 -209.5 -78.5t-143 -212.5t-50.5 -297q0 -162 50 -295.5t143 -212t210 -78.5zM942 1642h-512q-32 0 -54 22t-22 54t22 54t54 22h512q32 0 54 -22t22 -54t-22 -54t-54 -22z"/>
<glyph glyph-name="omacron" unicode="" horiz-adv-x="1107" d="M553 991q138 0 245.5 -67.5t164.5 -183t57 -257.5q0 -141 -57 -255.5t-164.5 -181t-245.5 -66.5t-245 66.5t-164.5 181t-57.5 255.5q0 217 130 362.5t337 145.5zM553 129q140 0 220.5 102.5t80.5 251.5q0 150 -80.5 253.5t-220.5 103.5q-139 0 -219 -103.5t-80 -253.5 q0 -148 80 -251t219 -103zM809 1180h-512q-32 0 -54 21.5t-22 53.5t22 54t54 22h512q32 0 54 -22t22 -54t-22 -53.5t-54 -21.5z"/>
<glyph glyph-name="Obreve" unicode="" horiz-adv-x="1372" d="M686 1454q125 0 233 -58.5t182 -158t116.5 -235t42.5 -287.5t-42.5 -287t-117 -234t-182 -156.5t-232.5 -57.5q-167 0 -299.5 98.5t-204 266t-71.5 370.5t71.5 371.5t204 268t299.5 99.5zM686 129q116 0 208.5 78.5t142.5 212t50 295.5q0 163 -50.5 297t-142.5 212.5 t-208 78.5q-117 0 -209.5 -78.5t-143 -212.5t-50.5 -297q0 -162 50 -295.5t143 -212t210 -78.5zM686 1571q-62 0 -113 17.5t-83.5 46t-55.5 66t-33.5 75.5t-11.5 77q-1 49 20.5 71t57.5 22q35 0 53.5 -22.5t24.5 -70.5q16 -139 141 -139q123 0 139 139q12 93 78 93 q81 0 78 -93q-1 -49 -17.5 -96.5t-49.5 -90t-92 -69t-136 -26.5z"/>
<glyph glyph-name="obreve" unicode="" horiz-adv-x="1107" d="M553 991q138 0 245.5 -67.5t164.5 -183t57 -257.5q0 -141 -57 -255.5t-164.5 -181t-245.5 -66.5t-245 66.5t-164.5 181t-57.5 255.5q0 217 130 362.5t337 145.5zM553 129q140 0 220.5 102.5t80.5 251.5q0 150 -80.5 253.5t-220.5 103.5q-139 0 -219 -103.5t-80 -253.5 q0 -148 80 -251t219 -103zM555 1108q-77 0 -136 26.5t-92.5 69.5t-50 90.5t-18.5 96.5q-3 92 78 92q35 0 53.5 -22t24.5 -70q16 -140 141 -140q123 0 139 140q12 92 78 92q81 0 78 -92q-1 -49 -17.5 -96.5t-49.5 -90.5t-92 -69.5t-136 -26.5z"/>
<glyph glyph-name="Ohungarumlaut" unicode="" horiz-adv-x="1372" d="M686 1454q125 0 233 -58.5t182 -158t116.5 -235t42.5 -287.5t-42.5 -287t-117 -234t-182 -156.5t-232.5 -57.5q-167 0 -299.5 98.5t-204 266t-71.5 370.5t71.5 371.5t204 268t299.5 99.5zM686 129q116 0 208.5 78.5t142.5 212t50 295.5q0 163 -50.5 297t-142.5 212.5 t-208 78.5q-117 0 -209.5 -78.5t-143 -212.5t-50.5 -297q0 -162 50 -295.5t143 -212t210 -78.5zM705 1831l-451 -246q-22 -12 -47 -12q-32 0 -54 22t-22 52q0 45 39 65l459 256q16 8 39 8q32 0 54.5 -21t22.5 -54q0 -49 -40 -70zM1198 1831l-450 -246q-22 -12 -48 -12 q-32 0 -53.5 22t-21.5 52q0 45 39 65l458 256q16 8 39 8q32 0 55 -21t23 -54q0 -49 -41 -70z"/>
<glyph glyph-name="ohungarumlaut" unicode="" horiz-adv-x="1107" d="M553 991q138 0 245.5 -67.5t164.5 -183t57 -257.5q0 -141 -57 -255.5t-164.5 -181t-245.5 -66.5t-245 66.5t-164.5 181t-57.5 255.5q0 217 130 362.5t337 145.5zM553 129q140 0 220.5 102.5t80.5 251.5q0 150 -80.5 253.5t-220.5 103.5q-139 0 -219 -103.5t-80 -253.5 q0 -148 80 -251t219 -103zM573 1368l-450 -246q-22 -12 -47 -12q-32 0 -54 22t-22 52q0 45 39 65l459 256q16 8 39 8q32 0 54.5 -21t22.5 -54q0 -49 -41 -70zM1067 1368l-451 -246q-22 -12 -47 -12q-32 0 -53.5 22t-21.5 52q0 45 38 65l459 256q16 8 39 8q32 0 55 -21 t23 -54q0 -49 -41 -70z"/>
<glyph glyph-name="OE" unicode="" horiz-adv-x="2150" d="M1929 0h-1110q-219 0 -380 89.5t-244.5 251t-83.5 376.5q0 337 197.5 527t574.5 190h995q34 0 58.5 -21t25.5 -55l16 -283q1 -36 -23.5 -60t-60.5 -24q-35 0 -58 21.5t-26 54.5l-14 211h-582v-455h261v142q0 34 25 58t59 24q35 0 59 -24t24 -58v-437q0 -35 -24 -58.5 t-59 -23.5q-34 0 -59 23.5t-25 58.5v140h-261v-514h646l47 245q6 33 29.5 51.5t54.5 18.5q37 0 63 -26.5t19 -65.5l-58 -311q-6 -29 -31 -47.5t-55 -18.5zM285 729q0 -42 4.5 -85.5t19 -102.5t38 -110.5t66 -103.5t98.5 -89t139 -60.5t184 -23.5h213v1124h-187 q-96 0 -177.5 -18.5t-139.5 -50t-103.5 -75.5t-74 -92.5t-47 -104t-26 -106t-7.5 -102.5z"/>
<glyph glyph-name="oe" unicode="" horiz-adv-x="1843" d="M1698 131q-69 -77 -169.5 -114t-207.5 -37q-135 0 -235 57t-152 158q-59 -101 -156.5 -158t-224.5 -57q-138 0 -245 66.5t-164.5 181t-57.5 255.5q0 217 130 362.5t337 145.5q127 0 225.5 -59t155.5 -162q62 103 165.5 162t227.5 59q99 0 182.5 -37.5t137.5 -99.5 t84 -139t30 -158q0 -44 -18.5 -66t-67.5 -22h-655q0 -21 10 -51q14 -123 94 -206t207 -83q176 0 279 152q24 36 67 36q31 0 53.5 -20.5t22.5 -54.5q0 -46 -55 -111zM1321 850q-107 0 -184 -66.5t-99 -169.5h547q-17 105 -89 170.5t-175 65.5zM254 483q0 -148 80 -251 t219 -103q140 0 220.5 102.5t80.5 251.5q0 150 -80.5 253.5t-220.5 103.5q-139 0 -219 -103.5t-80 -253.5z"/>
<glyph glyph-name="Racute" unicode="" horiz-adv-x="1503" d="M1147 51l-139 316q-47 103 -108 172.5t-118 95.5h-284v-481h221q35 0 58.5 -22t23.5 -54q0 -34 -23.5 -56t-58.5 -22h-565q-34 0 -57 22t-23 56q0 32 23 54t57 22h176v1124h-176q-34 0 -57 23t-23 55t23 55t57 23h622q97 0 176 -22.5t131 -59t87 -85.5t50 -101t15 -107 q0 -54 -15.5 -107t-48 -104t-90 -91.5t-133.5 -60.5q64 -36 117 -99.5t106 -176.5l125 -266h160q35 0 58.5 -22t23.5 -54q0 -34 -23.5 -56t-58.5 -22h-229q-26 0 -47.5 14t-32.5 37zM1059 1049q0 43 -15.5 82t-47.5 73t-90 54t-134 20h-274v-487h280q130 0 205.5 78 t75.5 180zM1016 1831l-451 -246q-22 -12 -47 -12q-32 0 -54 22t-22 52q0 45 39 65l459 256q16 8 39 8q32 0 55 -21t23 -54q0 -49 -41 -70z"/>
<glyph glyph-name="racute" unicode="" horiz-adv-x="1069" d="M283 819h-136q-30 0 -54.5 23t-24.5 53q0 33 22.5 54.5t56.5 21.5h215q34 0 57 -22t23 -56v-78q46 79 131 127.5t189 48.5q112 0 190 -60.5t78 -154.5q0 -72 -44 -115t-105 -43q-60 0 -102 35.5t-42 94.5q0 61 47 90q-32 16 -79 16q-103 0 -179.5 -98t-76.5 -275v-329 h237q33 0 55.5 -22.5t22.5 -53.5q0 -32 -23 -54t-55 -22h-545q-30 0 -54 22.5t-24 53.5q0 32 23 54t55 22h142v667zM799 1368l-451 -246q-22 -12 -47 -12q-32 0 -54 22t-22 52q0 45 39 65l459 256q16 8 39 8q32 0 55 -21t23 -54q0 -49 -41 -70z"/>
<glyph glyph-name="Rcommaaccent" unicode="" horiz-adv-x="1503" d="M1147 51l-139 316q-47 103 -108 172.5t-118 95.5h-284v-481h221q35 0 58.5 -22t23.5 -54q0 -34 -23.5 -56t-58.5 -22h-565q-34 0 -57 22t-23 56q0 32 23 54t57 22h176v1124h-176q-34 0 -57 23t-23 55t23 55t57 23h622q97 0 176 -22.5t131 -59t87 -85.5t50 -101t15 -107 q0 -54 -15.5 -107t-48 -104t-90 -91.5t-133.5 -60.5q64 -36 117 -99.5t106 -176.5l125 -266h160q35 0 58.5 -22t23.5 -54q0 -34 -23.5 -56t-58.5 -22h-229q-26 0 -47.5 14t-32.5 37zM1059 1049q0 43 -15.5 82t-47.5 73t-90 54t-134 20h-274v-487h280q130 0 205.5 78 t75.5 180zM602 -344q0 72 50 122t126 50q85 0 141 -63t56 -168q0 -143 -106 -283t-244 -199q-30 -12 -50 -12q-29 0 -50 17.5t-21 48.5q0 42 43 61q94 43 160 110.5t84 155.5q-11 -2 -19 -2q-77 0 -123.5 45.5t-46.5 116.5z"/>
<glyph glyph-name="rcommaaccent" unicode="" horiz-adv-x="1069" d="M283 819h-136q-30 0 -54.5 23t-24.5 53q0 33 22.5 54.5t56.5 21.5h215q34 0 57 -22t23 -56v-78q46 79 131 127.5t189 48.5q112 0 190 -60.5t78 -154.5q0 -72 -44 -115t-105 -43q-60 0 -102 35.5t-42 94.5q0 61 47 90q-32 16 -79 16q-103 0 -179.5 -98t-76.5 -275v-329 h237q33 0 55.5 -22.5t22.5 -53.5q0 -32 -23 -54t-55 -22h-545q-30 0 -54 22.5t-24 53.5q0 32 23 54t55 22h142v667zM379 -344q0 72 50.5 122t125.5 50q85 0 141 -63t56 -168q0 -143 -106.5 -282.5t-244.5 -199.5q-30 -12 -49 -12q-29 0 -50 17.5t-21 48.5q0 42 43 61 q94 43 159.5 110.5t83.5 155.5q-10 -2 -18 -2q-77 0 -123.5 45.5t-46.5 116.5z"/>
<glyph glyph-name="Rcaron" unicode="" horiz-adv-x="1503" d="M1147 51l-139 316q-47 103 -108 172.5t-118 95.5h-284v-481h221q35 0 58.5 -22t23.5 -54q0 -34 -23.5 -56t-58.5 -22h-565q-34 0 -57 22t-23 56q0 32 23 54t57 22h176v1124h-176q-34 0 -57 23t-23 55t23 55t57 23h622q97 0 176 -22.5t131 -59t87 -85.5t50 -101t15 -107 q0 -54 -15.5 -107t-48 -104t-90 -91.5t-133.5 -60.5q64 -36 117 -99.5t106 -176.5l125 -266h160q35 0 58.5 -22t23.5 -54q0 -34 -23.5 -56t-58.5 -22h-229q-26 0 -47.5 14t-32.5 37zM1059 1049q0 43 -15.5 82t-47.5 73t-90 54t-134 20h-274v-487h280q130 0 205.5 78 t75.5 180zM752 1567q-24 0 -47 20l-308 254q-18 15 -26.5 23.5t-16.5 23.5t-8 31q0 32 23.5 56t54.5 24t57 -23l271 -225l270 225q26 23 57 23t54.5 -24t23.5 -56q0 -16 -8 -31t-16.5 -23.5t-26.5 -23.5l-307 -254q-23 -20 -47 -20z"/>
<glyph glyph-name="rcaron" unicode="" horiz-adv-x="1069" d="M283 819h-136q-30 0 -54.5 23t-24.5 53q0 33 22.5 54.5t56.5 21.5h215q34 0 57 -22t23 -56v-78q46 79 131 127.5t189 48.5q112 0 190 -60.5t78 -154.5q0 -72 -44 -115t-105 -43q-60 0 -102 35.5t-42 94.5q0 61 47 90q-32 16 -79 16q-103 0 -179.5 -98t-76.5 -275v-329 h237q33 0 55.5 -22.5t22.5 -53.5q0 -32 -23 -54t-55 -22h-545q-30 0 -54 22.5t-24 53.5q0 32 23 54t55 22h142v667zM535 1104q-25 0 -48 20l-307 254q-18 15 -26.5 23.5t-16.5 23.5t-8 31q0 32 23.5 56t54.5 24t57 -23l271 -225l270 225q26 23 57 23t54.5 -24t23.5 -56 q0 -16 -8 -31t-16.5 -23.5t-26.5 -23.5l-307 -254q-23 -20 -47 -20z"/>
<glyph glyph-name="Sacute" unicode="" horiz-adv-x="1280" d="M1176 383q0 -174 -119.5 -288.5t-331.5 -114.5q-136 0 -241.5 50.5t-166.5 133.5l7 -96q0 -39 -22 -63.5t-58 -24.5q-35 0 -58 20.5t-26 54.5l-35 404q-3 36 20 63t62 27q27 0 49.5 -16t32.5 -44q2 -6 8 -21q12 -34 20.5 -54.5t29 -60.5t40.5 -66.5t54.5 -60t72.5 -53.5 t92 -34t115 -14q135 0 206.5 72t71.5 176q0 62 -29 109t-78 76.5t-112.5 53t-134 43t-140.5 40.5t-133.5 52.5t-112.5 73t-78 106.5t-29 148q0 167 114 273t301 106q101 0 190.5 -37.5t141.5 -109.5l-8 65q-4 36 20 58t56 22q34 0 58 -19.5t28 -54.5l43 -368 q0 -30 -21.5 -52t-62.5 -22q-27 0 -48 20.5t-37.5 54t-34 73.5t-42.5 79.5t-57.5 73t-85 54t-119.5 20.5q-114 0 -188 -58.5t-74 -162.5q0 -60 29 -105.5t78.5 -75t113 -52.5t134 -43t141 -42t134 -54.5t113 -75t78.5 -108.5t29 -151zM905 1831l-450 -246q-22 -12 -47 -12 q-32 0 -54 22t-22 52q0 45 39 65l458 256q16 8 39 8q32 0 55 -21t23 -54q0 -49 -41 -70z"/>
<glyph glyph-name="sacute" unicode="" horiz-adv-x="1026" d="M981 279q0 -132 -100.5 -215.5t-278.5 -83.5q-121 0 -208.5 38.5t-137.5 94.5v-56q0 -33 -24 -53t-56 -20q-35 0 -58.5 21.5t-23.5 55.5v244q0 34 19 58t57 24q31 0 53 -25q9 -9 27 -34.5t35.5 -50.5t48.5 -55t65.5 -52.5t86 -37.5t110.5 -15q109 0 161 43.5t52 109.5 q0 54 -40 86t-108 45.5t-141 22t-155.5 26.5t-135.5 48q-118 67 -118 215q0 124 90.5 201t253.5 77q89 0 170 -31t129 -90l-2 39q0 36 19 59t60 23q34 0 58 -23t24 -55v-202q0 -33 -21 -56.5t-54 -23.5q-55 0 -78 45q-9 17 -19.5 33.5t-37 46.5t-57.5 51.5t-80 38t-105 16.5 q-90 0 -136 -37t-46 -100q0 -43 25 -70.5t74 -41.5t98 -21.5t122 -16.5t121 -20q262 -61 262 -276zM786 1368l-450 -246q-22 -12 -47 -12q-32 0 -54 22t-22 52q0 45 39 65l459 256q16 8 39 8q32 0 54.5 -21t22.5 -54q0 -49 -41 -70z"/>
<glyph glyph-name="Scircumflex" unicode="" horiz-adv-x="1280" d="M1176 383q0 -174 -119.5 -288.5t-331.5 -114.5q-136 0 -241.5 50.5t-166.5 133.5l7 -96q0 -39 -22 -63.5t-58 -24.5q-35 0 -58 20.5t-26 54.5l-35 404q-3 36 20 63t62 27q27 0 49.5 -16t32.5 -44q2 -6 8 -21q12 -34 20.5 -54.5t29 -60.5t40.5 -66.5t54.5 -60t72.5 -53.5 t92 -34t115 -14q135 0 206.5 72t71.5 176q0 62 -29 109t-78 76.5t-112.5 53t-134 43t-140.5 40.5t-133.5 52.5t-112.5 73t-78 106.5t-29 148q0 167 114 273t301 106q101 0 190.5 -37.5t141.5 -109.5l-8 65q-4 36 20 58t56 22q34 0 58 -19.5t28 -54.5l43 -368 q0 -30 -21.5 -52t-62.5 -22q-27 0 -48 20.5t-37.5 54t-34 73.5t-42.5 79.5t-57.5 73t-85 54t-119.5 20.5q-114 0 -188 -58.5t-74 -162.5q0 -60 29 -105.5t78.5 -75t113 -52.5t134 -43t141 -42t134 -54.5t113 -75t78.5 -108.5t29 -151zM639 1999q23 0 47 -21l307 -254 q19 -16 26.5 -23.5t16 -22.5t8.5 -31q0 -32 -23 -56t-54 -24q-33 0 -58 22l-270 226l-270 -226q-25 -22 -58 -22q-31 0 -54.5 24t-23.5 56q0 16 9 31.5t16 22t27 23.5l307 254q24 21 47 21z"/>
<glyph glyph-name="scircumflex" unicode="" horiz-adv-x="1026" d="M981 279q0 -132 -100.5 -215.5t-278.5 -83.5q-121 0 -208.5 38.5t-137.5 94.5v-56q0 -33 -24 -53t-56 -20q-35 0 -58.5 21.5t-23.5 55.5v244q0 34 19 58t57 24q31 0 53 -25q9 -9 27 -34.5t35.5 -50.5t48.5 -55t65.5 -52.5t86 -37.5t110.5 -15q109 0 161 43.5t52 109.5 q0 54 -40 86t-108 45.5t-141 22t-155.5 26.5t-135.5 48q-118 67 -118 215q0 124 90.5 201t253.5 77q89 0 170 -31t129 -90l-2 39q0 36 19 59t60 23q34 0 58 -23t24 -55v-202q0 -33 -21 -56.5t-54 -23.5q-55 0 -78 45q-9 17 -19.5 33.5t-37 46.5t-57.5 51.5t-80 38t-105 16.5 q-90 0 -136 -37t-46 -100q0 -43 25 -70.5t74 -41.5t98 -21.5t122 -16.5t121 -20q262 -61 262 -276zM522 1536q24 0 47 -20l308 -254q18 -15 26.5 -23.5t16.5 -23.5t8 -31q0 -32 -23.5 -56t-54.5 -24q-32 0 -57 22l-271 226l-270 -226q-25 -22 -57 -22q-31 0 -54.5 24 t-23.5 56q0 16 8 31t16.5 23.5t26.5 23.5l307 254q23 20 47 20z"/>
<glyph glyph-name="Scedilla" unicode="" horiz-adv-x="1280" d="M1176 383q0 -174 -119.5 -288.5t-331.5 -114.5q-19 0 -51 4q-13 -37 -47 -115q301 0 301 -219q0 -82 -46.5 -139t-116 -81t-155.5 -24q-112 0 -215 45q-43 22 -43 66q0 32 21.5 53.5t52.5 21.5q14 0 74.5 -21.5t120.5 -21.5q69 0 103 28t34 69q0 86 -137 86q-17 0 -47 -2 t-42 -2q-39 0 -58 20t-19 49q0 10 5.5 27.5t16.5 43.5t19.5 44.5t24.5 51.5t20 42q-146 42 -224 158l7 -96q0 -39 -22 -63.5t-58 -24.5q-35 0 -58 20.5t-26 54.5l-35 404q0 37 23 63.5t61 26.5q62 0 80 -60q5 -22 17.5 -54.5t47.5 -90.5t80 -103.5t121 -80.5t166 -35 q135 0 206.5 72t71.5 176q0 62 -29 109.5t-78 77t-112.5 52.5t-134 42.5t-140.5 40.5t-133.5 52.5t-112.5 72.5t-78 106t-29 149q0 167 114 273t301 106q101 0 190.5 -37.5t141.5 -109.5q-8 46 -8 71q0 36 23 55t53 19q34 0 58 -19.5t28 -54.5l43 -368q0 -30 -21.5 -52 t-62.5 -22q-26 0 -46.5 20.5t-36.5 54t-33.5 73.5t-43 79.5t-58.5 73t-86 54t-120 20.5q-114 0 -188 -58.5t-74 -162.5q0 -60 29 -106t78.5 -75t113 -52t134 -43.5t141 -42.5t134 -54.5t113 -74.5t78.5 -108.5t29 -150.5z"/>
<glyph glyph-name="scedilla" unicode="" horiz-adv-x="1026" d="M981 279q0 -132 -100.5 -215.5t-278.5 -83.5q-39 0 -57 2l-45 -113q299 0 299 -219q0 -82 -46 -139.5t-115 -82t-155 -24.5q-127 0 -213 43q-45 22 -45 70q0 32 21 53.5t53 21.5q10 0 62.5 -20.5t105.5 -20.5q84 0 123 26.5t39 68.5q0 86 -135 86q-19 0 -48 -2t-40 -2 q-36 0 -57 20t-21 49q0 27 14 56l72 157q-99 37 -158 103v-56q0 -33 -24 -53t-56 -20q-35 0 -58.5 21.5t-23.5 55.5v244q0 34 19 58t57 24q31 0 53 -25q9 -9 27 -34.5t35.5 -50.5t48.5 -55t65.5 -52.5t86 -37.5t110.5 -15q109 0 161 43.5t52 109.5q0 54 -40 86t-108 45.5 t-141 22t-155.5 26.5t-135.5 48q-118 67 -118 215q0 124 90.5 201t253.5 77q89 0 170 -31t129 -90l-2 39q0 36 19 59t60 23q34 0 58 -23t24 -55v-202q0 -33 -21 -56.5t-54 -23.5q-55 0 -78 45q-9 17 -19.5 33.5t-37 46.5t-57.5 51.5t-80 38t-105 16.5q-90 0 -136 -37 t-46 -100q0 -43 25 -70.5t74 -41.5t98 -21.5t122 -16.5t121 -20q262 -61 262 -276z"/>
<glyph glyph-name="Scaron" unicode="" horiz-adv-x="1280" d="M1176 383q0 -174 -119.5 -288.5t-331.5 -114.5q-136 0 -241.5 50.5t-166.5 133.5l7 -96q0 -39 -22 -63.5t-58 -24.5q-35 0 -58 20.5t-26 54.5l-35 404q-3 36 20 63t62 27q27 0 49.5 -16t32.5 -44q2 -6 8 -21q12 -34 20.5 -54.5t29 -60.5t40.5 -66.5t54.5 -60t72.5 -53.5 t92 -34t115 -14q135 0 206.5 72t71.5 176q0 62 -29 109t-78 76.5t-112.5 53t-134 43t-140.5 40.5t-133.5 52.5t-112.5 73t-78 106.5t-29 148q0 167 114 273t301 106q101 0 190.5 -37.5t141.5 -109.5l-8 65q-4 36 20 58t56 22q34 0 58 -19.5t28 -54.5l43 -368 q0 -30 -21.5 -52t-62.5 -22q-27 0 -48 20.5t-37.5 54t-34 73.5t-42.5 79.5t-57.5 73t-85 54t-119.5 20.5q-114 0 -188 -58.5t-74 -162.5q0 -60 29 -105.5t78.5 -75t113 -52.5t134 -43t141 -42t134 -54.5t113 -75t78.5 -108.5t29 -151zM639 1567q-24 0 -47 20l-307 254 q-19 16 -27 23.5t-16.5 23t-8.5 31.5q0 32 23.5 56t54.5 24q32 0 58 -23l270 -225l270 225q26 23 58 23q31 0 54 -24t23 -56q0 -16 -8 -31t-16.5 -23.5t-26.5 -23.5l-307 -254q-23 -20 -47 -20z"/>
<glyph glyph-name="scaron" unicode="" horiz-adv-x="1026" d="M981 279q0 -132 -100.5 -215.5t-278.5 -83.5q-121 0 -208.5 38.5t-137.5 94.5v-56q0 -33 -24 -53t-56 -20q-35 0 -58.5 21.5t-23.5 55.5v244q0 34 19 58t57 24q31 0 53 -25q9 -9 27 -34.5t35.5 -50.5t48.5 -55t65.5 -52.5t86 -37.5t110.5 -15q109 0 161 43.5t52 109.5 q0 54 -40 86t-108 45.5t-141 22t-155.5 26.5t-135.5 48q-118 67 -118 215q0 124 90.5 201t253.5 77q89 0 170 -31t129 -90l-2 39q0 36 19 59t60 23q34 0 58 -23t24 -55v-202q0 -33 -21 -56.5t-54 -23.5q-55 0 -78 45q-9 17 -19.5 33.5t-37 46.5t-57.5 51.5t-80 38t-105 16.5 q-90 0 -136 -37t-46 -100q0 -43 25 -70.5t74 -41.5t98 -21.5t122 -16.5t121 -20q262 -61 262 -276zM522 1104q-24 0 -47 20l-307 254q-18 15 -26.5 23.5t-16.5 23.5t-8 31q0 32 23.5 56t54.5 24t57 -23l270 -225l271 225q26 23 57 23t54.5 -24t23.5 -56q0 -16 -8 -31 t-16.5 -23.5t-26.5 -23.5l-308 -254q-23 -20 -47 -20z"/>
<glyph glyph-name="Tcommaaccent" unicode="" horiz-adv-x="1361" d="M596 1278h-340l-25 -231q-3 -33 -25 -52.5t-59 -19.5q-38 0 -63.5 24t-22.5 60l33 305q3 34 25.5 52t56.5 18h1010q34 0 56.5 -18t25.5 -52l32 -305q3 -36 -22.5 -60t-63.5 -24q-37 0 -59 19.5t-25 52.5l-24 231h-340v-1124h254q35 0 58.5 -22t23.5 -54q0 -34 -23.5 -56 t-58.5 -22h-678q-35 0 -58.5 22t-23.5 56q0 32 23.5 54t58.5 22h254v1124zM504 -303q0 71 50 121.5t126 50.5q85 0 141 -63t56 -168q0 -143 -106.5 -282.5t-244.5 -199.5q-30 -12 -49 -12q-30 0 -50.5 17t-20.5 48q0 43 43 62q94 43 159.5 110.5t83.5 155.5q-10 -2 -18 -2 q-77 0 -123.5 45.5t-46.5 116.5z"/>
<glyph glyph-name="tcommaaccent" unicode="" horiz-adv-x="974" d="M428 1339v-368h375q33 0 54.5 -21.5t21.5 -54.5q0 -31 -22 -53.5t-54 -22.5h-375v-540q0 -64 45 -106t111 -42q67 0 109 42t42 106v108q0 34 25.5 57t60.5 23q34 0 57 -23t23 -57v-108q0 -131 -90 -215t-231 -84q-138 0 -227 79.5t-89 219.5v540h-176q-32 0 -55 22.5 t-23 53.5q0 33 22.5 54.5t55.5 21.5h176v368q0 33 23.5 56.5t58.5 23.5q34 0 58 -24t24 -56zM360 -303q0 71 50.5 121.5t126.5 50.5q85 0 140.5 -63t55.5 -168q0 -143 -106 -283t-244 -199q-30 -12 -49 -12q-30 0 -51 17t-21 48q0 43 43 62q94 43 160 110.5t84 155.5 q-11 -2 -19 -2q-77 0 -123.5 45.5t-46.5 116.5z"/>
<glyph glyph-name="Tcaron" unicode="" horiz-adv-x="1361" d="M596 1278h-340l-25 -231q-3 -33 -25 -52.5t-59 -19.5q-38 0 -63.5 24t-22.5 60l33 305q3 34 25.5 52t56.5 18h1010q34 0 56.5 -18t25.5 -52l32 -305q3 -36 -22.5 -60t-63.5 -24q-37 0 -59 19.5t-25 52.5l-24 231h-340v-1124h254q35 0 58.5 -22t23.5 -54q0 -34 -23.5 -56 t-58.5 -22h-678q-35 0 -58.5 22t-23.5 56q0 32 23.5 54t58.5 22h254v1124zM680 1567q-24 0 -47 20l-307 254q-19 16 -27 23.5t-16.5 23t-8.5 31.5q0 32 23.5 56t54.5 24q32 0 58 -23l270 -225l270 225q26 23 58 23q31 0 54 -24t23 -56q0 -16 -8 -31t-16.5 -23.5t-26.5 -23.5 l-307 -254q-23 -20 -47 -20z"/>
<glyph glyph-name="tcaron" unicode="" horiz-adv-x="1107" d="M428 1339v-368h375q32 0 54 -22t22 -56q0 -31 -22 -53.5t-54 -22.5h-375v-538q0 -64 45 -106t111 -42q67 0 109 42t42 106v108q0 24 28 52t58 28q34 0 57 -23t23 -57v-108q0 -130 -90 -213.5t-231 -83.5q-139 0 -227.5 78.5t-88.5 218.5v538h-176q-32 0 -55 22.5 t-23 53.5q0 33 22.5 55.5t55.5 22.5h176v368q0 33 23.5 56.5t58.5 23.5q34 0 58 -24t24 -56zM737 1735q0 71 50.5 121.5t125.5 50.5q84 0 139.5 -62.5t55.5 -167.5q0 -147 -105.5 -290t-244.5 -193q-36 -12 -45 -12q-33 0 -53.5 16.5t-20.5 48.5q0 43 43 62 q93 43 160.5 112.5t81.5 153.5q-3 0 -9.5 -1t-9.5 -1q-77 0 -122.5 44.5t-45.5 117.5z"/>
<glyph glyph-name="Tbar" unicode="" horiz-adv-x="1361" d="M596 1278h-340l-25 -231q-3 -33 -25 -52.5t-59 -19.5q-38 0 -63.5 24t-22.5 60l33 305q3 34 25.5 52t56.5 18h1010q34 0 56.5 -18t25.5 -52l32 -305q3 -36 -22.5 -60t-63.5 -24q-37 0 -59 19.5t-25 52.5l-24 231h-340v-455h225q34 0 57 -23t23 -55t-23 -54.5t-57 -22.5 h-225v-514h254q35 0 58.5 -22t23.5 -54q0 -34 -23.5 -56t-58.5 -22h-678q-35 0 -58.5 22t-23.5 56q0 32 23.5 54t58.5 22h254v514h-225q-34 0 -57 22.5t-23 54.5t23 55t57 23h225v455z"/>
<glyph glyph-name="tbar" unicode="" horiz-adv-x="974" d="M88 690h176v127h-176q-32 0 -55 22.5t-23 53.5q0 33 22.5 55.5t55.5 22.5h176v368q0 33 23.5 56.5t58.5 23.5q34 0 58 -24t24 -56v-368h375q32 0 54 -22t22 -56q0 -31 -22 -53.5t-54 -22.5h-375v-127h375q32 0 54 -22t22 -56q0 -31 -22 -53t-54 -22h-375v-258 q0 -64 45 -106t111 -42q67 0 109 42t42 106v108q0 34 25.5 57t60.5 23q34 0 57 -23t23 -57v-108q0 -131 -90 -215t-231 -84q-138 0 -227 79.5t-89 219.5v258h-176q-32 0 -55 22t-23 53q0 33 22.5 55.5t55.5 22.5z"/>
<glyph glyph-name="Utilde" unicode="" horiz-adv-x="1648" d="M1362 1278v-748q0 -132 -38.5 -233.5t-95.5 -160t-133 -95t-142 -49t-132 -12.5q-69 0 -135.5 12.5t-141 49.5t-129.5 94.5t-91.5 156.5t-36.5 227v758h-156q-34 0 -57 23t-23 55t23 55t57 23h500q34 0 57 -23t23 -55t-23 -55t-57 -23h-176v-754q0 -191 100.5 -295 t269.5 -104q170 0 272.5 105.5t102.5 297.5v750h-182q-34 0 -57 23t-23 55t23 55t57 23h500q34 0 56.5 -23t22.5 -55t-22.5 -55t-56.5 -23h-156zM659 1696q-26 0 -45 -13.5t-41 -46.5q-24 -32 -61 -32q-32 0 -53 23t-21 54q0 59 58.5 118t150.5 59q65 0 187.5 -45.5 t158.5 -45.5q30 0 48 15t24.5 32.5t23.5 32.5t46 15q31 0 54 -20t23 -52q0 -61 -56 -121.5t-155 -60.5q-57 0 -126.5 22t-128 44t-87.5 22z"/>
<glyph glyph-name="utilde" unicode="" horiz-adv-x="1331" d="M1079 893v-741h152q34 0 57 -22t23 -54t-23 -54t-57 -22h-234q-34 0 -56.5 22t-22.5 54v84q-54 -86 -145.5 -133t-192.5 -47q-157 0 -248.5 90t-91.5 264v485h-144q-33 0 -56.5 22.5t-23.5 53.5q0 33 23 54.5t57 21.5h230q33 0 55 -21.5t22 -54.5v-567q0 -57 16.5 -98 t45.5 -62.5t60.5 -31t68.5 -9.5q61 0 117 24t101.5 70t73 121t27.5 168v309h-155q-32 0 -54 22.5t-22 53.5q0 34 22 55t56 21h239q34 0 57 -22t23 -56zM500 1233q-26 0 -45 -13t-41 -46q-25 -33 -62 -33q-31 0 -52 23t-21 55q0 59 58 117.5t150 58.5q65 0 188 -45t159 -45 q25 0 40.5 9.5t23.5 23.5t15.5 28t22.5 23.5t39 9.5q31 0 54.5 -20t23.5 -52q0 -61 -56 -121.5t-155 -60.5q-57 0 -126.5 22t-128 44t-87.5 22z"/>
<glyph glyph-name="Umacron" unicode="" horiz-adv-x="1648" d="M1362 1278v-748q0 -132 -38.5 -233.5t-95.5 -160t-133 -95t-142 -49t-132 -12.5q-69 0 -135.5 12.5t-141 49.5t-129.5 94.5t-91.5 156.5t-36.5 227v758h-156q-34 0 -57 23t-23 55t23 55t57 23h500q34 0 57 -23t23 -55t-23 -55t-57 -23h-176v-754q0 -191 100.5 -295 t269.5 -104q170 0 272.5 105.5t102.5 297.5v750h-182q-34 0 -57 23t-23 55t23 55t57 23h500q34 0 56.5 -23t22.5 -55t-22.5 -55t-56.5 -23h-156zM1079 1642h-512q-32 0 -53.5 22t-21.5 54t21.5 54t53.5 22h512q32 0 54 -22t22 -54t-22 -54t-54 -22z"/>
<glyph glyph-name="umacron" unicode="" horiz-adv-x="1331" d="M1079 893v-741h152q34 0 57 -22t23 -54t-23 -54t-57 -22h-234q-34 0 -56.5 22t-22.5 54v84q-54 -86 -145.5 -133t-192.5 -47q-157 0 -248.5 90t-91.5 264v485h-144q-33 0 -56.5 22.5t-23.5 53.5q0 33 23 54.5t57 21.5h230q33 0 55 -21.5t22 -54.5v-567q0 -57 16.5 -98 t45.5 -62.5t60.5 -31t68.5 -9.5q61 0 117 24t101.5 70t73 121t27.5 168v309h-155q-32 0 -54 22.5t-22 53.5q0 34 22 55t56 21h239q34 0 57 -22t23 -56zM920 1180h-512q-32 0 -54 21.5t-22 53.5t22 54t54 22h512q32 0 53.5 -22t21.5 -54t-21.5 -53.5t-53.5 -21.5z"/>
<glyph glyph-name="Ubreve" unicode="" horiz-adv-x="1648" d="M1362 1278v-748q0 -132 -38.5 -233.5t-95.5 -160t-133 -95t-142 -49t-132 -12.5q-69 0 -135.5 12.5t-141 49.5t-129.5 94.5t-91.5 156.5t-36.5 227v758h-156q-34 0 -57 23t-23 55t23 55t57 23h500q34 0 57 -23t23 -55t-23 -55t-57 -23h-176v-754q0 -191 100.5 -295 t269.5 -104q170 0 272.5 105.5t102.5 297.5v750h-182q-34 0 -57 23t-23 55t23 55t57 23h500q34 0 56.5 -23t22.5 -55t-22.5 -55t-56.5 -23h-156zM823 1571q-62 0 -113 17.5t-83.5 46t-55.5 66t-33.5 75.5t-11.5 77q-1 49 20.5 71t57.5 22q35 0 53.5 -22.5t24.5 -70.5 q16 -139 141 -139q124 0 140 139q12 93 77 93q81 0 78 -93q-1 -49 -17.5 -96.5t-49.5 -90t-92 -69t-136 -26.5z"/>
<glyph glyph-name="ubreve" unicode="" horiz-adv-x="1331" d="M1079 893v-741h152q34 0 57 -22t23 -54t-23 -54t-57 -22h-234q-34 0 -56.5 22t-22.5 54v84q-54 -86 -145.5 -133t-192.5 -47q-157 0 -248.5 90t-91.5 264v485h-144q-33 0 -56.5 22.5t-23.5 53.5q0 33 23 54.5t57 21.5h230q33 0 55 -21.5t22 -54.5v-567q0 -57 16.5 -98 t45.5 -62.5t60.5 -31t68.5 -9.5q61 0 117 24t101.5 70t73 121t27.5 168v309h-155q-32 0 -54 22.5t-22 53.5q0 34 22 55t56 21h239q34 0 57 -22t23 -56zM666 1108q-77 0 -136 26.5t-92.5 69.5t-50 90.5t-18.5 96.5q-3 92 77 92q35 0 53.5 -22t24.5 -70q16 -140 142 -140 q123 0 139 140q12 92 78 92q81 0 78 -92q-1 -49 -17.5 -96.5t-49.5 -90.5t-92 -69.5t-136 -26.5z"/>
<glyph glyph-name="Uring" unicode="" horiz-adv-x="1648" d="M1362 1278v-748q0 -132 -38.5 -233.5t-95.5 -160t-133 -95t-142 -49t-132 -12.5q-69 0 -135.5 12.5t-141 49.5t-129.5 94.5t-91.5 156.5t-36.5 227v758h-156q-34 0 -57 23t-23 55t23 55t57 23h500q34 0 57 -23t23 -55t-23 -55t-57 -23h-176v-754q0 -191 100.5 -295 t269.5 -104q170 0 272.5 105.5t102.5 297.5v750h-182q-34 0 -57 23t-23 55t23 55t57 23h500q34 0 56.5 -23t22.5 -55t-22.5 -55t-56.5 -23h-156zM823 2150q127 0 216 -87t89 -212t-89 -212t-216 -87t-216 87t-89 212t89 212t216 87zM823 1686q67 0 114.5 48.5t47.5 116.5 t-47.5 117t-114.5 49t-114 -49t-47 -117t47 -116.5t114 -48.5z"/>
<glyph glyph-name="uring" unicode="" horiz-adv-x="1331" d="M1079 893v-741h152q34 0 57 -22t23 -54t-23 -54t-57 -22h-234q-34 0 -56.5 22t-22.5 54v84q-54 -86 -145.5 -133t-192.5 -47q-157 0 -248.5 90t-91.5 264v485h-144q-33 0 -56.5 22.5t-23.5 53.5q0 33 23 54.5t57 21.5h230q33 0 55 -21.5t22 -54.5v-567q0 -57 16.5 -98 t45.5 -62.5t60.5 -31t68.5 -9.5q61 0 117 24t101.5 70t73 121t27.5 168v309h-155q-32 0 -54 22.5t-22 53.5q0 34 22 55t56 21h239q34 0 57 -22t23 -56zM645 1688q127 0 216 -87t89 -212t-89 -212t-216 -87t-216 87t-89 212t89 212t216 87zM645 1223q67 0 114.5 49t47.5 117 t-47.5 116.5t-114.5 48.5t-114.5 -48.5t-47.5 -116.5t47.5 -117t114.5 -49z"/>
<glyph glyph-name="Uhungarumlaut" unicode="" horiz-adv-x="1648" d="M1362 1278v-748q0 -132 -38.5 -233.5t-95.5 -160t-133 -95t-142 -49t-132 -12.5q-69 0 -135.5 12.5t-141 49.5t-129.5 94.5t-91.5 156.5t-36.5 227v758h-156q-34 0 -57 23t-23 55t23 55t57 23h500q34 0 57 -23t23 -55t-23 -55t-57 -23h-176v-754q0 -191 100.5 -295 t269.5 -104q170 0 272.5 105.5t102.5 297.5v750h-182q-34 0 -57 23t-23 55t23 55t57 23h500q34 0 56.5 -23t22.5 -55t-22.5 -55t-56.5 -23h-156z"/>
<glyph glyph-name="uhungarumlaut" unicode="" horiz-adv-x="1331" d="M1079 893v-741h152q34 0 57 -22t23 -54t-23 -54t-57 -22h-234q-34 0 -56.5 22t-22.5 54v84q-54 -86 -145.5 -133t-192.5 -47q-157 0 -248.5 90t-91.5 264v485h-144q-33 0 -56.5 22.5t-23.5 53.5q0 33 23 54.5t57 21.5h230q33 0 55 -21.5t22 -54.5v-567q0 -57 16.5 -98 t45.5 -62.5t60.5 -31t68.5 -9.5q61 0 117 24t101.5 70t73 121t27.5 168v309h-155q-32 0 -54 22.5t-22 53.5q0 34 22 55t56 21h239q34 0 57 -22t23 -56z"/>
<glyph glyph-name="Uogonek" unicode="" horiz-adv-x="1648" d="M590 -268q0 150 162 252q-45 4 -88.5 14t-90.5 30.5t-87.5 48.5t-78 70.5t-63.5 95t-41.5 123.5t-15.5 154v758h-156q-34 0 -57 23t-23 55t23 55t57 23h500q34 0 57 -23t23 -55t-23 -55t-57 -23h-176v-754q0 -191 100.5 -295t269.5 -104q170 0 272.5 105.5t102.5 297.5 v750h-182q-34 0 -57 23t-23 55t23 55t57 23h500q34 0 56.5 -23t22.5 -55t-22.5 -55t-56.5 -23h-156v-748q0 -101 -22.5 -185t-58.5 -140t-86 -99.5t-100 -67t-106 -38.5q-80 -22 -153.5 -92t-73.5 -156q0 -47 29 -78.5t94 -31.5q47 0 103 19.5t71 19.5q30 0 52 -17.5 t22 -54.5q0 -18 -12.5 -37.5t-39.5 -39t-80 -32t-124 -12.5q-138 0 -212.5 66t-74.5 178z"/>
<glyph glyph-name="uogonek" unicode="" horiz-adv-x="1331" d="M768 -268q0 92 58.5 162t142.5 110q-23 8 -37 27t-14 45v84q-54 -86 -145.5 -133t-192.5 -47q-157 0 -248.5 90t-91.5 264v485h-115q-47 0 -78 18.5t-31 55.5q0 34 23 56t57 22h230q77 0 77 -115v-528q0 -57 16.5 -98t45.5 -62.5t60.5 -31t68.5 -9.5q130 0 224.5 101 t94.5 282v309h-125q-106 0 -106 74q0 34 22 56t56 22h239q80 0 80 -115v-704h123q47 0 78 -18.5t31 -57.5q0 -32 -23 -54t-57 -22h-84q-31 0 -80 -39t-88 -99t-39 -110q0 -47 29 -78.5t94 -31.5q47 0 103 19.5t71 19.5q27 0 50.5 -17.5t23.5 -54.5q0 -17 -12 -36t-39 -39 t-80.5 -33t-124.5 -13q-138 0 -212.5 66t-74.5 178z"/>
<glyph glyph-name="Wcircumflex" unicode="" horiz-adv-x="2246" d="M1501 266l359 1012h-164q-34 0 -57 23t-23 55t23 55t57 23h479q34 0 57 -23t23 -55t-23 -55t-57 -23h-143l-449 -1235q-24 -61 -84 -61q-67 0 -86 59l-293 821l-286 -819q-8 -26 -30.5 -43.5t-55.5 -17.5q-65 0 -84 59l-449 1237h-143q-32 0 -56 23t-24 55t24 55t56 23 h1261q34 0 57 -23t23 -55t-23 -55t-57 -23h-188zM395 1278l355 -1012l288 811l-73 201h-570zM1122 1999q23 0 47 -21l308 -254q19 -16 26.5 -23.5t16 -22.5t8.5 -31q0 -32 -23.5 -56t-54.5 -24q-32 0 -57 22l-271 226l-270 -226q-25 -22 -57 -22q-31 0 -54.5 24t-23.5 56 q0 16 8.5 31t16 22.5t26.5 23.5l307 254q24 21 47 21z"/>
<glyph glyph-name="wcircumflex" unicode="" horiz-adv-x="1830" d="M1004 911l264 -698l200 606h-141q-32 0 -55 22.5t-23 53.5q0 33 22.5 54.5t55.5 21.5h418q33 0 55.5 -21.5t22.5 -54.5q0 -31 -23 -53.5t-55 -22.5h-103l-286 -786q-9 -25 -35 -40.5t-55 -15.5q-31 0 -56.5 15.5t-35.5 42.5l-256 682l-263 -682q-10 -27 -34.5 -42.5 t-55.5 -15.5q-33 0 -58 14.5t-34 41.5l-285 786h-104q-32 0 -54 22.5t-22 53.5q0 33 21.5 54.5t54.5 21.5h424q32 0 55 -21.5t23 -54.5q0 -31 -23.5 -53.5t-54.5 -22.5h-141l200 -606l269 698q21 58 84 58q28 0 51 -15t33 -43zM915 1536q25 0 48 -20l307 -254 q18 -15 26.5 -23.5t16.5 -23.5t8 -31q0 -32 -23.5 -56t-54.5 -24q-32 0 -57 22l-271 226l-270 -226q-25 -22 -57 -22q-31 0 -54.5 24t-23.5 56q0 16 8 31t16.5 23.5t26.5 23.5l307 254q23 20 47 20z"/>
<glyph glyph-name="Ycircumflex" unicode="" horiz-adv-x="1458" d="M385 1278l348 -610l352 610h-153q-34 0 -57 23t-23 55t23 55t57 23h450q34 0 57 -23t23 -55t-23 -55t-57 -23h-118l-453 -768v-356h195q34 0 56.5 -22t22.5 -54q0 -34 -22.5 -56t-56.5 -22h-562q-32 0 -54.5 22t-22.5 56q0 32 22.5 54t54.5 22h197v362l-446 762h-119 q-33 0 -55.5 22.5t-22.5 55.5t22.5 55.5t55.5 22.5h456q34 0 57 -23t23 -55t-23 -55t-57 -23h-147zM729 1999q23 0 47 -21l307 -254q20 -17 27 -23.5t16 -22t9 -31.5q0 -32 -23.5 -56t-54.5 -24q-33 0 -58 22l-270 226l-270 -226q-25 -22 -58 -22q-31 0 -54 24t-23 56 q0 16 8.5 31t16 22.5t26.5 23.5l307 254q24 21 47 21z"/>
<glyph glyph-name="ycircumflex" unicode="" horiz-adv-x="1269" d="M201 -512q-123 0 -205 64t-82 163q0 70 45.5 115t108.5 45q61 0 100 -38.5t39 -100.5q0 -26 -13.5 -54.5t-33.5 -43.5q21 -9 61 -9q30 0 58 8t50.5 19.5t45.5 34t39 40t35.5 50.5t30.5 52.5t28.5 58.5t24.5 56.5t24 57.5l-360 813h-113q-32 0 -55 21.5t-23 52.5 q0 33 22.5 55.5t55.5 22.5h414q32 0 54.5 -22.5t22.5 -55.5q0 -31 -22.5 -52.5t-54.5 -21.5h-117l270 -631l267 631h-125q-32 0 -56 21.5t-24 52.5q0 33 23.5 55.5t56.5 22.5h393q32 0 54 -22t22 -56q0 -31 -22 -52.5t-54 -21.5h-105l-426 -985q-149 -346 -454 -346z M635 1536q24 0 47 -20l307 -254q18 -15 26.5 -23.5t16.5 -23.5t8 -31q0 -32 -23 -56t-54 -24q-33 0 -58 22l-270 226l-270 -226q-25 -22 -58 -22q-31 0 -54.5 24t-23.5 56q0 16 8.5 31.5t16.5 23t27 23.5l307 254q23 20 47 20z"/>
<glyph glyph-name="Ydieresis" unicode="" horiz-adv-x="1458" d="M385 1278l348 -610l352 610h-153q-34 0 -57 23t-23 55t23 55t57 23h450q34 0 57 -23t23 -55t-23 -55t-57 -23h-118l-453 -768v-356h195q34 0 56.5 -22t22.5 -54q0 -34 -22.5 -56t-56.5 -22h-562q-32 0 -54.5 22t-22.5 56q0 32 22.5 54t54.5 22h197v362l-446 762h-119 q-33 0 -55.5 22.5t-22.5 55.5t22.5 55.5t55.5 22.5h456q34 0 57 -23t23 -55t-23 -55t-57 -23h-147zM356 1759q0 65 47 111.5t113 46.5q64 0 111 -46.5t47 -111.5q0 -66 -46.5 -113t-111.5 -47q-66 0 -113 47t-47 113zM782 1759q0 65 47 111.5t113 46.5q64 0 111 -46.5 t47 -111.5q0 -66 -46.5 -113t-111.5 -47q-66 0 -113 47t-47 113z"/>
<glyph glyph-name="Zacute" unicode="" horiz-adv-x="1331" d="M1034 154v288q0 34 24 58t60 24q34 0 58 -24t24 -58v-364q0 -35 -23.5 -56.5t-58.5 -21.5h-938q-36 0 -57 22t-21 52q0 33 21 61l860 1143h-678v-225q0 -35 -24.5 -58.5t-59.5 -23.5t-58.5 23.5t-23.5 58.5v299q0 34 24.5 58t59.5 24h905q36 0 60 -23.5t24 -56.5 q0 -36 -20 -62l-854 -1138h696zM930 1831l-451 -246q-22 -12 -47 -12q-32 0 -54 22t-22 52q0 45 39 65l459 256q16 8 39 8q32 0 55 -21t23 -54q0 -49 -41 -70z"/>
<glyph glyph-name="zacute" unicode="" horiz-adv-x="1116" d="M850 152v200q0 34 24 57t58 23t58 -23t24 -57v-276q0 -34 -22.5 -55t-57.5 -21h-764q-36 0 -60 24t-24 58q0 41 37 78l643 659h-490v-182q0 -34 -24 -57t-59 -23t-58.5 23t-23.5 57v258q0 33 23 54.5t59 21.5h720q42 0 67.5 -23.5t25.5 -58.5q0 -40 -39 -82l-639 -655 h522zM823 1368l-450 -246q-22 -12 -47 -12q-32 0 -54 22t-22 52q0 45 39 65l459 256q16 8 38 8q32 0 55 -21t23 -54q0 -49 -41 -70z"/>
<glyph glyph-name="Zdotaccent" unicode="" horiz-adv-x="1331" d="M1034 154v288q0 34 24 58t60 24q34 0 58 -24t24 -58v-364q0 -35 -23.5 -56.5t-58.5 -21.5h-938q-36 0 -57 22t-21 52q0 33 21 61l860 1143h-678v-225q0 -35 -24.5 -58.5t-59.5 -23.5t-58.5 23.5t-23.5 58.5v299q0 34 24.5 58t59.5 24h905q36 0 60 -23.5t24 -56.5 q0 -36 -20 -62l-854 -1138h696zM498 1749q0 68 49.5 118t118.5 50q68 0 118 -50.5t50 -117.5q0 -69 -50 -118.5t-118 -49.5q-69 0 -118.5 49.5t-49.5 118.5z"/>
<glyph glyph-name="zdotaccent" unicode="" horiz-adv-x="1116" d="M850 152v200q0 34 24 57t58 23t58 -23t24 -57v-276q0 -34 -22.5 -55t-57.5 -21h-764q-36 0 -60 24t-24 58q0 41 37 78l643 659h-490v-182q0 -34 -24 -57t-59 -23t-58.5 23t-23.5 57v258q0 33 23 54.5t59 21.5h720q42 0 67.5 -23.5t25.5 -58.5q0 -40 -39 -82l-639 -655 h522zM399 1286q0 68 49.5 118t118.5 50q67 0 117.5 -50t50.5 -118q0 -69 -50 -118.5t-118 -49.5q-69 0 -118.5 49.5t-49.5 118.5z"/>
<glyph glyph-name="Zcaron" unicode="" horiz-adv-x="1331" d="M1034 154v288q0 34 24 58t60 24q34 0 58 -24t24 -58v-364q0 -35 -23.5 -56.5t-58.5 -21.5h-938q-36 0 -57 22t-21 52q0 33 21 61l860 1143h-678v-225q0 -35 -24.5 -58.5t-59.5 -23.5t-58.5 23.5t-23.5 58.5v299q0 34 24.5 58t59.5 24h905q36 0 60 -23.5t24 -56.5 q0 -36 -20 -62l-854 -1138h696zM666 1567q-25 0 -48 20l-307 254q-18 15 -26.5 23.5t-16.5 23.5t-8 31q0 32 23.5 56t54.5 24t57 -23l271 -225l270 225q26 23 57 23t54.5 -24t23.5 -56q0 -16 -8 -31t-16.5 -23.5t-26.5 -23.5l-307 -254q-23 -20 -47 -20z"/>
<glyph glyph-name="zcaron" unicode="" horiz-adv-x="1116" d="M850 152v200q0 34 24 57t58 23t58 -23t24 -57v-276q0 -34 -22.5 -55t-57.5 -21h-764q-36 0 -60 24t-24 58q0 41 37 78l643 659h-490v-182q0 -34 -24 -57t-59 -23t-58.5 23t-23.5 57v258q0 33 23 54.5t59 21.5h720q42 0 67.5 -23.5t25.5 -58.5q0 -40 -39 -82l-639 -655 h522zM557 1104q-24 0 -47 20l-307 254q-18 15 -26.5 23.5t-16.5 23.5t-8 31q0 32 23 56t54 24q32 0 58 -23l270 -225l270 225q26 23 58 23q31 0 54.5 -24t23.5 -56q0 -16 -8.5 -31.5t-16.5 -23t-27 -23.5l-307 -254q-23 -20 -47 -20z"/>
<glyph glyph-name="longs" unicode="" horiz-adv-x="960" d="M502 1073v-921h299q35 0 57.5 -21.5t22.5 -54.5t-22.5 -54.5t-57.5 -21.5h-680q-34 0 -56 22t-22 54t22 54t56 22h217v665h-197q-33 0 -55.5 22.5t-22.5 53.5q0 34 22 56t56 22h197v110q0 220 119.5 347.5t320.5 127.5q171 0 275 -79.5t104 -192.5q0 -67 -43.5 -111.5 t-105.5 -44.5q-61 0 -104.5 40t-43.5 96q0 33 17 64t47 48q-48 35 -144 35q-128 0 -203 -82t-75 -256z"/>
<glyph glyph-name="florin" unicode="" horiz-adv-x="1048" d="M326 -14l90 587h-307q-34 0 -57 22t-23 54t23 54t57 22h329q20 136 45 287q44 272 169.5 408t320.5 136q86 0 156 -26.5t111.5 -68t63 -88t21.5 -91.5q0 -63 -45.5 -113.5t-108.5 -50.5q-62 0 -102.5 40t-40.5 95q0 73 55 115q-37 37 -112 37q-129 0 -205 -92.5 t-107 -282.5l-49 -305h332q32 0 55 -22t23 -54t-23 -54t-55 -22h-354l-92 -620q-37 -243 -171 -366.5t-321 -123.5q-85 0 -154 25t-110.5 65.5t-63.5 87.5t-22 95q0 67 45 116.5t108 49.5t106.5 -41.5t43.5 -98.5q0 -32 -15.5 -62t-45.5 -46q40 -37 114 -37q260 0 316 369z "/>
<glyph glyph-name="Scommaaccent" unicode="" horiz-adv-x="1280" d="M1176 383q0 -174 -119.5 -288.5t-331.5 -114.5q-136 0 -241.5 50.5t-166.5 133.5l7 -96q0 -39 -22 -63.5t-58 -24.5q-35 0 -58 20.5t-26 54.5l-35 404q-3 36 20 63t62 27q27 0 49.5 -16t32.5 -44q2 -6 8 -21q12 -34 20.5 -54.5t29 -60.5t40.5 -66.5t54.5 -60t72.5 -53.5 t92 -34t115 -14q135 0 206.5 72t71.5 176q0 62 -29 109t-78 76.5t-112.5 53t-134 43t-140.5 40.5t-133.5 52.5t-112.5 73t-78 106.5t-29 148q0 167 114 273t301 106q101 0 190.5 -37.5t141.5 -109.5l-8 65q-4 36 20 58t56 22q34 0 58 -19.5t28 -54.5l43 -368 q0 -30 -21.5 -52t-62.5 -22q-27 0 -48 20.5t-37.5 54t-34 73.5t-42.5 79.5t-57.5 73t-85 54t-119.5 20.5q-114 0 -188 -58.5t-74 -162.5q0 -60 29 -105.5t78.5 -75t113 -52.5t134 -43t141 -42t134 -54.5t113 -75t78.5 -108.5t29 -151zM461 -303q0 71 50.5 121.5t125.5 50.5 q85 0 141 -63t56 -168q0 -143 -106.5 -282.5t-244.5 -199.5q-30 -12 -49 -12q-30 0 -51 17t-21 48q0 42 44 62q94 43 159.5 110.5t83.5 155.5q-10 -2 -18 -2q-77 0 -123.5 45.5t-46.5 116.5z"/>
<glyph glyph-name="scommaaccent" unicode="" horiz-adv-x="1026" d="M981 279q0 -132 -100.5 -215.5t-278.5 -83.5q-121 0 -208.5 38.5t-137.5 94.5v-56q0 -33 -24 -53t-56 -20q-35 0 -58.5 21.5t-23.5 55.5v244q0 34 19 58t57 24q31 0 53 -25q9 -9 27 -34.5t35.5 -50.5t48.5 -55t65.5 -52.5t86 -37.5t110.5 -15q109 0 161 43.5t52 109.5 q0 54 -40 86t-108 45.5t-141 22t-155.5 26.5t-135.5 48q-118 67 -118 215q0 124 90.5 201t253.5 77q89 0 170 -31t129 -90l-2 39q0 36 19 59t60 23q34 0 58 -23t24 -55v-202q0 -33 -21 -56.5t-54 -23.5q-55 0 -78 45q-9 17 -19.5 33.5t-37 46.5t-57.5 51.5t-80 38t-105 16.5 q-90 0 -136 -37t-46 -100q0 -43 25 -70.5t74 -41.5t98 -21.5t122 -16.5t121 -20q262 -61 262 -276zM358 -303q0 71 50.5 121.5t126.5 50.5q85 0 140.5 -63t55.5 -168q0 -143 -106 -283t-244 -199q-30 -12 -49 -12q-30 0 -51 17t-21 48q0 43 43 62q94 43 160 110.5t84 155.5 q-11 -2 -19 -2q-77 0 -123.5 45.5t-46.5 116.5z"/>
<glyph glyph-name="uni021A" unicode="" horiz-adv-x="1361" d="M596 1278h-340l-25 -231q-3 -33 -25 -52.5t-59 -19.5q-38 0 -63.5 24t-22.5 60l33 305q3 34 25.5 52t56.5 18h1010q34 0 56.5 -18t25.5 -52l32 -305q3 -36 -22.5 -60t-63.5 -24q-37 0 -59 19.5t-25 52.5l-24 231h-340v-1124h254q35 0 58.5 -22t23.5 -54q0 -34 -23.5 -56 t-58.5 -22h-678q-35 0 -58.5 22t-23.5 56q0 32 23.5 54t58.5 22h254v1124zM504 -303q0 71 50 121.5t126 50.5q85 0 141 -63t56 -168q0 -143 -106.5 -282.5t-244.5 -199.5q-30 -12 -49 -12q-30 0 -50.5 17t-20.5 48q0 43 43 62q94 43 159.5 110.5t83.5 155.5q-10 -2 -18 -2 q-77 0 -123.5 45.5t-46.5 116.5z"/>
<glyph glyph-name="uni021B" unicode="" horiz-adv-x="974" d="M428 1339v-368h375q33 0 54.5 -21.5t21.5 -54.5q0 -31 -22 -53.5t-54 -22.5h-375v-540q0 -64 45 -106t111 -42q67 0 109 42t42 106v108q0 34 25.5 57t60.5 23q34 0 57 -23t23 -57v-108q0 -131 -90 -215t-231 -84q-138 0 -227 79.5t-89 219.5v540h-176q-32 0 -55 22.5 t-23 53.5q0 33 22.5 54.5t55.5 21.5h176v368q0 33 23.5 56.5t58.5 23.5q34 0 58 -24t24 -56zM344 -344q0 72 50 122t126 50q85 0 141 -63t56 -168q0 -143 -106 -283t-244 -199q-30 -12 -50 -12q-29 0 -50 17.5t-21 48.5q0 42 43 61q94 43 159.5 110.5t83.5 155.5 q-10 -2 -18 -2q-77 0 -123.5 45.5t-46.5 116.5z"/>
<glyph glyph-name="dotlessj" unicode="" horiz-adv-x="667" d="M506 893v-1024q0 -176 -108 -278.5t-283 -102.5q-85 0 -156.5 25.5t-118.5 79.5t-47 128q0 72 44 117t108 45q63 0 103 -41t40 -106q0 -26 -12.5 -50.5t-36.5 -35.5q27 -21 84 -21q92 0 155.5 60.5t63.5 185.5v942h-254q-32 0 -55 22.5t-23 53.5q0 33 22.5 55.5 t55.5 22.5h340q34 0 56 -22t22 -56z"/>
<glyph glyph-name="apostrophe" unicode="" horiz-adv-x="612" d="M121 1282q0 72 50.5 122t125.5 50q85 0 141 -63t56 -168q0 -143 -106.5 -282.5t-244.5 -199.5q-30 -12 -49 -12q-29 0 -50 17.5t-21 48.5q0 42 43 61q94 43 159.5 110.5t83.5 155.5q-10 -2 -18 -2q-77 0 -123.5 45.5t-46.5 116.5z"/>
<glyph glyph-name="circumflex" unicode="" horiz-adv-x="921" d="M461 1536q24 0 47 -20l307 -254q18 -15 26.5 -23.5t16.5 -23.5t8 -31q0 -32 -23.5 -56t-54.5 -24q-32 0 -57 22l-270 226l-271 -226q-25 -22 -57 -22q-31 0 -54.5 24t-23.5 56q0 16 8 31t16.5 23.5t26.5 23.5l308 254q23 20 47 20z"/>
<glyph glyph-name="caron" unicode="" horiz-adv-x="921" d="M461 1104q-24 0 -47 20l-308 254q-18 15 -26.5 23.5t-16.5 23.5t-8 31q0 32 23.5 56t54.5 24t57 -23l271 -225l270 225q26 23 57 23t54.5 -24t23.5 -56q0 -16 -8 -31t-16.5 -23.5t-26.5 -23.5l-307 -254q-23 -20 -47 -20z"/>
<glyph glyph-name="uni02C9" unicode="" horiz-adv-x="921" d="M715 1180h-510q-33 0 -55.5 21.5t-22.5 53.5t23 54t55 22h510q32 0 55 -22t23 -54t-22.5 -53.5t-55.5 -21.5z"/>
<glyph glyph-name="breve" unicode="" horiz-adv-x="921" d="M461 1108q-77 0 -136 26.5t-92.5 69.5t-50 90.5t-18.5 96.5q-3 92 78 92q35 0 53 -22t24 -70q16 -140 142 -140q123 0 139 140q12 92 78 92q81 0 78 -92q-1 -49 -17.5 -96.5t-49.5 -90.5t-92 -69.5t-136 -26.5z"/>
<glyph glyph-name="dotaccent" unicode="" horiz-adv-x="921" d="M293 1286q0 68 49.5 118t118.5 50q67 0 117.5 -50t50.5 -118q0 -69 -50 -118.5t-118 -49.5q-69 0 -118.5 49.5t-49.5 118.5z"/>
<glyph glyph-name="ring" unicode="" horiz-adv-x="921" d="M461 1688q127 0 216 -87t89 -212t-89 -212t-216 -87t-216 87t-89 212t89 212t216 87zM461 1223q67 0 114.5 49t47.5 117t-47.5 116.5t-114.5 48.5t-114.5 -48.5t-47.5 -116.5t47.5 -117t114.5 -49z"/>
<glyph glyph-name="ogonek" unicode="" horiz-adv-x="921" d="M188 -268q0 59 28 112.5t70 89.5t91 63t91 39.5t71 12.5q19 0 31 -9t12 -22q0 -2 -0.5 -4.5t-2 -4t-2.5 -3t-3.5 -3t-3 -2t-4.5 -1.5l-3 -2q-77 -31 -140 -99.5t-63 -142.5q0 -48 31 -83t96 -35q47 0 102 21.5t70 21.5q27 0 49.5 -17.5t22.5 -54.5q0 -17 -12 -36t-39 -39 t-80.5 -33t-124.5 -13q-138 0 -212.5 66t-74.5 178z"/>
<glyph glyph-name="tilde" unicode="" horiz-adv-x="921" d="M295 1233q-26 0 -45 -13t-41 -46q-25 -33 -62 -33q-31 0 -52 23t-21 55q0 59 58.5 117.5t150.5 58.5q65 0 187.5 -45t158.5 -45q25 0 40.5 9.5t23.5 23.5t15.5 28t22.5 23.5t39 9.5q31 0 54.5 -20t23.5 -52q0 -61 -56 -121.5t-155 -60.5q-57 0 -126.5 22t-128 44 t-87.5 22z"/>
<glyph glyph-name="hungarumlaut" unicode="" horiz-adv-x="921" d="M479 1368l-450 -246q-22 -12 -47 -12q-32 0 -54 22t-22 52q0 45 39 65l458 256q16 8 39 8q32 0 55 -21t23 -54q0 -49 -41 -70zM973 1368l-451 -246q-22 -12 -47 -12q-32 0 -54 22t-22 52q0 45 39 65l459 256q16 8 39 8q32 0 55 -21t23 -54q0 -49 -41 -70z"/>
<glyph glyph-name="pi" unicode="" horiz-adv-x="1769" d="M137 971h1444q32 0 54 -22t22 -56q0 -31 -22 -53.5t-54 -22.5h-375v-538q0 -64 45 -106t111 -42q67 0 109 42t42 106v108q0 34 25.5 57t60.5 23q34 0 57 -23t23 -57v-108q0 -131 -90 -215t-231 -84q-138 0 -227 79.5t-89 219.5v538h-510v-665h240q32 0 55 -22t23 -54 t-23 -54t-55 -22h-645q-32 0 -55 22t-23 54t23 54t55 22h240v665h-230q-32 0 -55 22.5t-23 53.5q0 33 22.5 55.5t55.5 22.5z"/>
<glyph glyph-name="Wgrave" unicode="" horiz-adv-x="2246" d="M1501 266l359 1012h-164q-34 0 -57 23t-23 55t23 55t57 23h479q34 0 57 -23t23 -55t-23 -55t-57 -23h-143l-449 -1235q-24 -61 -84 -61q-67 0 -86 59l-293 821l-286 -819q-8 -26 -30.5 -43.5t-55.5 -17.5q-65 0 -84 59l-449 1237h-143q-32 0 -56 23t-24 55t24 55t56 23 h1261q34 0 57 -23t23 -55t-23 -55t-57 -23h-188zM395 1278l355 -1012l288 811l-73 201h-570zM1305 1585l-451 246q-41 21 -41 70q0 33 23 54t55 21q23 0 39 -8l459 -256q38 -20 38 -65q0 -30 -21.5 -52t-53.5 -22q-25 0 -47 12z"/>
<glyph glyph-name="wgrave" unicode="" horiz-adv-x="1830" d="M1004 911l264 -698l200 606h-141q-32 0 -55 22.5t-23 53.5q0 33 22.5 54.5t55.5 21.5h418q33 0 55.5 -21.5t22.5 -54.5q0 -31 -23 -53.5t-55 -22.5h-103l-286 -786q-9 -25 -35 -40.5t-55 -15.5q-31 0 -56.5 15.5t-35.5 42.5l-256 682l-263 -682q-10 -27 -34.5 -42.5 t-55.5 -15.5q-33 0 -58 14.5t-34 41.5l-285 786h-104q-32 0 -54 22.5t-22 53.5q0 33 21.5 54.5t54.5 21.5h424q32 0 55 -21.5t23 -54.5q0 -31 -23.5 -53.5t-54.5 -22.5h-141l200 -606l269 698q21 58 84 58q28 0 51 -15t33 -43zM1098 1122l-451 246q-41 21 -41 70q0 33 23 54 t55 21q23 0 39 -8l459 -256q39 -20 39 -65q0 -30 -22 -52t-54 -22q-25 0 -47 12z"/>
<glyph glyph-name="Wacute" unicode="" horiz-adv-x="2246" d="M1501 266l359 1012h-164q-34 0 -57 23t-23 55t23 55t57 23h479q34 0 57 -23t23 -55t-23 -55t-57 -23h-143l-449 -1235q-24 -61 -84 -61q-67 0 -86 59l-293 821l-286 -819q-8 -26 -30.5 -43.5t-55.5 -17.5q-65 0 -84 59l-449 1237h-143q-32 0 -56 23t-24 55t24 55t56 23 h1261q34 0 57 -23t23 -55t-23 -55t-57 -23h-188zM395 1278l355 -1012l288 811l-73 201h-570zM1386 1831l-450 -246q-22 -12 -47 -12q-32 0 -54 22t-22 52q0 45 39 65l459 256q16 8 39 8q32 0 54.5 -21t22.5 -54q0 -49 -41 -70z"/>
<glyph glyph-name="wacute" unicode="" horiz-adv-x="1830" d="M1004 911l264 -698l200 606h-141q-32 0 -55 22.5t-23 53.5q0 33 22.5 54.5t55.5 21.5h418q33 0 55.5 -21.5t22.5 -54.5q0 -31 -23 -53.5t-55 -22.5h-103l-286 -786q-9 -25 -35 -40.5t-55 -15.5q-31 0 -56.5 15.5t-35.5 42.5l-256 682l-263 -682q-10 -27 -34.5 -42.5 t-55.5 -15.5q-33 0 -58 14.5t-34 41.5l-285 786h-104q-32 0 -54 22.5t-22 53.5q0 33 21.5 54.5t54.5 21.5h424q32 0 55 -21.5t23 -54.5q0 -31 -23.5 -53.5t-54.5 -22.5h-141l200 -606l269 698q21 58 84 58q28 0 51 -15t33 -43zM1180 1368l-451 -246q-22 -12 -47 -12 q-32 0 -54 22t-22 52q0 45 39 65l459 256q16 8 39 8q32 0 55 -21t23 -54q0 -49 -41 -70z"/>
<glyph glyph-name="Wdieresis" unicode="" horiz-adv-x="2246" d="M1501 266l359 1012h-164q-34 0 -57 23t-23 55t23 55t57 23h479q34 0 57 -23t23 -55t-23 -55t-57 -23h-143l-449 -1235q-24 -61 -84 -61q-67 0 -86 59l-293 821l-286 -819q-8 -26 -30.5 -43.5t-55.5 -17.5q-65 0 -84 59l-449 1237h-143q-32 0 -56 23t-24 55t24 55t56 23 h1261q34 0 57 -23t23 -55t-23 -55t-57 -23h-188zM395 1278l355 -1012l288 811l-73 201h-570zM750 1759q0 65 46.5 111.5t112.5 46.5q65 0 111.5 -46.5t46.5 -111.5q0 -66 -46.5 -113t-111.5 -47q-66 0 -112.5 47t-46.5 113zM1176 1759q0 65 46.5 111.5t112.5 46.5 q65 0 111.5 -46.5t46.5 -111.5q0 -66 -46.5 -113t-111.5 -47q-66 0 -112.5 47t-46.5 113z"/>
<glyph glyph-name="wdieresis" unicode="" horiz-adv-x="1830" d="M1004 911l264 -698l200 606h-141q-32 0 -55 22.5t-23 53.5q0 33 22.5 54.5t55.5 21.5h418q33 0 55.5 -21.5t22.5 -54.5q0 -31 -23 -53.5t-55 -22.5h-103l-286 -786q-9 -25 -35 -40.5t-55 -15.5q-31 0 -56.5 15.5t-35.5 42.5l-256 682l-263 -682q-10 -27 -34.5 -42.5 t-55.5 -15.5q-33 0 -58 14.5t-34 41.5l-285 786h-104q-32 0 -54 22.5t-22 53.5q0 33 21.5 54.5t54.5 21.5h424q32 0 55 -21.5t23 -54.5q0 -31 -23.5 -53.5t-54.5 -22.5h-141l200 -606l269 698q21 58 84 58q28 0 51 -15t33 -43zM543 1296q0 65 46.5 111.5t112.5 46.5 q64 0 111 -47t47 -111q0 -66 -46.5 -112.5t-111.5 -46.5q-66 0 -112.5 46.5t-46.5 112.5zM969 1296q0 65 46.5 111.5t112.5 46.5q64 0 111 -47t47 -111q0 -66 -46.5 -112.5t-111.5 -46.5q-66 0 -112.5 46.5t-46.5 112.5z"/>
<glyph glyph-name="Ygrave" unicode="" horiz-adv-x="1458" d="M385 1278l348 -610l352 610h-153q-34 0 -57 23t-23 55t23 55t57 23h450q34 0 57 -23t23 -55t-23 -55t-57 -23h-118l-453 -768v-356h195q34 0 56.5 -22t22.5 -54q0 -34 -22.5 -56t-56.5 -22h-562q-32 0 -54.5 22t-22.5 56q0 32 22.5 54t54.5 22h197v362l-446 762h-119 q-33 0 -55.5 22.5t-22.5 55.5t22.5 55.5t55.5 22.5h456q34 0 57 -23t23 -55t-23 -55t-57 -23h-147zM911 1585l-450 246q-41 21 -41 70q0 33 23 54t55 21q23 0 39 -8l458 -256q39 -20 39 -65q0 -30 -22 -52t-54 -22q-25 0 -47 12z"/>
<glyph glyph-name="ygrave" unicode="" horiz-adv-x="1269" d="M201 -512q-123 0 -205 64t-82 163q0 70 45.5 115t108.5 45q61 0 100 -38.5t39 -100.5q0 -26 -13.5 -54.5t-33.5 -43.5q21 -9 61 -9q30 0 58 8t50.5 19.5t45.5 34t39 40t35.5 50.5t30.5 52.5t28.5 58.5t24.5 56.5t24 57.5l-360 813h-113q-32 0 -55 21.5t-23 52.5 q0 33 22.5 55.5t55.5 22.5h414q32 0 54.5 -22.5t22.5 -55.5q0 -31 -22.5 -52.5t-54.5 -21.5h-117l270 -631l267 631h-125q-32 0 -56 21.5t-24 52.5q0 33 23.5 55.5t56.5 22.5h393q32 0 54 -22t22 -56q0 -31 -22 -52.5t-54 -21.5h-105l-426 -985q-149 -346 -454 -346z M817 1122l-450 246q-41 21 -41 70q0 33 22.5 54t54.5 21q23 0 39 -8l459 -256q39 -20 39 -65q0 -30 -22 -52t-54 -22q-25 0 -47 12z"/>
<glyph glyph-name="endash" unicode="" horiz-adv-x="1310" d="M1100 616h-889q-34 0 -57 22t-23 54t23 54t57 22h889q32 0 55 -22t23 -54t-23 -54t-55 -22z"/>
<glyph glyph-name="emdash" unicode="" horiz-adv-x="2164" d="M1954 616h-1743q-34 0 -57 22t-23 54t23 54t57 22h1743q32 0 55 -22t23 -54t-23 -54t-55 -22z"/>
<glyph glyph-name="quoteleft" unicode="" horiz-adv-x="634" d="M453 922q0 -71 -50.5 -121.5t-126.5 -50.5q-85 0 -140.5 63t-55.5 168q0 143 106 282t244 199q32 13 49 13q30 0 51 -17.5t21 -48.5q0 -42 -43 -61q-94 -43 -160 -111t-84 -156q11 2 19 2q77 0 123.5 -45t46.5 -116z"/>
<glyph glyph-name="quoteright" unicode="" horiz-adv-x="624" d="M133 1282q0 72 50.5 122t125.5 50q85 0 141 -63t56 -168q0 -143 -106 -283t-244 -199q-30 -12 -50 -12q-29 0 -50 17.5t-21 48.5q0 42 43 61q94 43 160 110.5t84 155.5q-11 -2 -19 -2q-77 0 -123.5 45.5t-46.5 116.5z"/>
<glyph glyph-name="quotesinglbase" unicode="" horiz-adv-x="612" d="M121 156q0 72 50.5 122t125.5 50q85 0 141 -63.5t56 -168.5q0 -142 -106.5 -281.5t-244.5 -199.5q-30 -12 -49 -12q-30 0 -50.5 17t-20.5 48q0 43 43 62q94 43 159.5 110.5t83.5 155.5q-10 -2 -18 -2q-77 0 -123.5 45.5t-46.5 116.5z"/>
<glyph glyph-name="quotedblleft" unicode="" horiz-adv-x="1132" d="M946 922q0 -72 -50 -122t-126 -50q-85 0 -141 63t-56 168q0 142 106.5 281.5t244.5 199.5q32 13 49 13q29 0 50 -17.5t21 -48.5q0 -42 -43 -61q-94 -43 -159.5 -111t-83.5 -156q10 2 18 2q77 0 123.5 -45t46.5 -116zM453 922q0 -71 -50.5 -121.5t-126.5 -50.5 q-85 0 -140.5 63t-55.5 168q0 143 106 282t244 199q32 13 49 13q30 0 51 -17.5t21 -48.5q0 -42 -43 -61q-94 -43 -160 -111t-84 -156q11 2 19 2q77 0 123.5 -45t46.5 -116z"/>
<glyph glyph-name="quotedblright" unicode="" horiz-adv-x="1140" d="M168 1282q0 72 50 122t126 50q85 0 141 -63t56 -168q0 -143 -106.5 -282.5t-244.5 -199.5q-30 -12 -49 -12q-29 0 -50 17.5t-21 48.5q0 42 43 61q94 43 159.5 110.5t83.5 155.5q-10 -2 -18 -2q-77 0 -123.5 45.5t-46.5 116.5zM662 1282q0 72 50 122t126 50 q85 0 140.5 -63t55.5 -168q0 -143 -106 -283t-244 -199q-30 -12 -49 -12q-30 0 -51 17.5t-21 48.5q0 42 43 61q94 43 160 110.5t84 155.5q-11 -2 -19 -2q-77 0 -123 45t-46 117z"/>
<glyph glyph-name="quotedblbase" unicode="" horiz-adv-x="1105" d="M121 156q0 72 50.5 122t125.5 50q85 0 141 -63.5t56 -168.5q0 -142 -106.5 -281.5t-244.5 -199.5q-30 -12 -49 -12q-30 0 -50.5 17t-20.5 48q0 43 43 62q94 43 159.5 110.5t83.5 155.5q-10 -2 -18 -2q-77 0 -123.5 45.5t-46.5 116.5zM614 156q0 71 50.5 121.5t126.5 50.5 q85 0 140.5 -63.5t55.5 -168.5q0 -143 -106 -282t-244 -199q-30 -12 -49 -12q-30 0 -51 17t-21 48q0 43 43 62q94 43 160 110.5t84 155.5q-11 -2 -19 -2q-77 0 -123.5 45.5t-46.5 116.5z"/>
<glyph glyph-name="dagger" unicode="" horiz-adv-x="1034" d="M516 -162q-34 0 -58 23t-24 57v909h-346q-33 0 -55.5 22.5t-22.5 53.5q0 33 22.5 55.5t55.5 22.5h346v526q0 34 24 57t58 23t58 -23t24 -57v-526h346q34 0 57 -23t23 -55q0 -31 -23.5 -53.5t-56.5 -22.5h-346v-909q0 -34 -24 -57t-58 -23z"/>
<glyph glyph-name="daggerdbl" unicode="" horiz-adv-x="1155" d="M578 -283q-35 0 -58.5 23t-23.5 57v514h-349q-32 0 -54.5 23t-22.5 55q0 31 22.5 53.5t54.5 22.5h349v362h-349q-32 0 -54.5 22.5t-22.5 53.5q0 32 22.5 55t54.5 23h349v526q0 34 23.5 57t58.5 23q33 0 57 -23.5t24 -56.5v-526h347q33 0 55 -22.5t22 -55.5 q0 -31 -22 -53.5t-55 -22.5h-347v-362h347q33 0 55 -22.5t22 -53.5q0 -33 -22 -55.5t-55 -22.5h-347v-514q0 -33 -24 -56.5t-57 -23.5z"/>
<glyph glyph-name="bullet" unicode="" horiz-adv-x="798" d="M707 743q0 -127 -91 -217t-217 -90q-127 0 -217 90t-90 217q0 126 90 216t217 90q126 0 217 -90t91 -216z"/>
<glyph glyph-name="ellipsis" unicode="" horiz-adv-x="2048" d="M137 154q0 72 51 122t123 50t122 -50t50 -122t-50 -123t-122 -51t-123 51t-51 123zM850 154q0 72 51 122t123 50t122 -50t50 -122t-50 -123t-122 -51t-123 51t-51 123zM1565 154q0 72 51 122t123 50t122 -50t50 -122t-50 -123t-122 -51t-123 51t-51 123z"/>
<glyph glyph-name="perthousand" unicode="" horiz-adv-x="2246" d="M2191 350q0 -160 -86.5 -265t-216.5 -105q-129 0 -214 104.5t-85 265.5q0 163 85 269t214 106q130 0 216.5 -106.5t86.5 -268.5zM1755 350q0 -93 38 -159t95 -66q59 0 98 66t39 159t-39 161.5t-98 68.5q-57 0 -95 -68.5t-38 -161.5zM696 1081q0 -160 -87.5 -266 t-215.5 -106q-129 0 -215 105.5t-86 266.5t86 267t215 106q44 0 92.5 -19t88.5 -41.5t112 -41.5t158 -19q100 0 205 18.5t149 39.5l23 26q30 37 67 37q31 0 54.5 -21t23.5 -51q0 -27 -18 -51l-955 -1311q-20 -30 -63 -30q-38 0 -59 20t-21 51q0 26 16 48l836 1132 q-79 -43 -258 -43q-24 0 -51.5 3.5t-44.5 7.5t-43.5 11t-34.5 9q26 -70 26 -148zM1493 350q0 -160 -86.5 -265t-216.5 -105q-129 0 -214 104.5t-85 265.5q0 163 85 269t214 106q130 0 216.5 -106.5t86.5 -268.5zM1057 350q0 -93 38 -159t95 -66q59 0 98 66t39 159t-39 161.5 t-98 68.5q-57 0 -95 -68.5t-38 -161.5zM260 1081q0 -94 37.5 -160.5t95.5 -66.5q57 0 96 67t39 160t-39 160.5t-96 67.5q-58 0 -95.5 -67t-37.5 -161z"/>
<glyph glyph-name="guilsinglleft" unicode="" horiz-adv-x="643" d="M35 487q0 27 26 60l349 409q31 35 69 35q37 0 59.5 -24t22.5 -52q0 -35 -22 -63l-306 -365l306 -364q22 -25 22 -62q0 -29 -22.5 -53t-59.5 -24q-40 0 -69 36l-349 410q-26 29 -26 57z"/>
<glyph glyph-name="guilsinglright" unicode="" horiz-adv-x="643" d="M604 487q0 -28 -26 -57l-349 -410q-29 -36 -69 -36q-37 0 -59.5 24t-22.5 53q0 37 22 62l306 364l-306 365q-22 28 -22 63q0 28 22.5 52t59.5 24q38 0 69 -35l349 -409q26 -33 26 -60z"/>
<glyph glyph-name="fraction" unicode="" horiz-adv-x="450" d="M905 1354l-1257 -1346q-25 -28 -58 -28q-26 0 -42.5 16.5t-16.5 38.5q0 27 16 43l1262 1352q21 24 51 24q25 0 43.5 -17t18.5 -40t-17 -43z"/>
<glyph glyph-name="zerosuperior" unicode="" d="M127 999q0 193 88 320t225 127t224.5 -127t87.5 -320q0 -194 -87.5 -320t-224.5 -126t-225 126t-88 320zM627 999q0 141 -53 235.5t-134 94.5q-82 0 -134 -94.5t-52 -235.5q0 -143 52 -237t134 -94q81 0 134 94.5t53 236.5z"/>
<glyph glyph-name="foursuperior" unicode="" d="M807 877q0 -29 -17 -44.5t-47 -15.5h-114v-190q0 -26 -19 -43t-45 -17q-27 0 -45 17t-18 43v190h-369q-28 0 -43.5 18.5t-15.5 43.5t32 61q99 113 168 215t115 221l17 43q16 37 53 37q29 0 44 -18.5t15 -48.5q-19 -100 -95 -226t-169 -229h248v160q0 36 15.5 60t47.5 24 q33 0 48.5 -24t15.5 -60v-160h114q29 0 46.5 -15.5t17.5 -41.5z"/>
<glyph glyph-name="fivesuperior" unicode="" d="M748 864q0 -136 -95.5 -223.5t-238.5 -87.5q-119 0 -201 51.5t-82 134.5q0 52 32 81.5t73 29.5q43 0 71.5 -28.5t28.5 -69.5q0 -34 -27 -66q36 -20 99 -20q89 0 147.5 54.5t58.5 139.5q0 88 -54 139.5t-136 51.5q-76 0 -131 -31q0 -92 -66 -92q-31 0 -46 18.5t-15 46.5 l29 377q2 25 18.5 41t42.5 16h408q25 0 43 -16.5t18 -42.5t-18 -42.5t-43 -16.5h-355l-12 -172q55 28 141 28q137 0 223.5 -83.5t86.5 -217.5z"/>
<glyph glyph-name="sixsuperior" unicode="" d="M762 854q0 -132 -91 -216.5t-231 -84.5q-149 0 -239 93.5t-90 246.5q0 205 155 377q80 90 183.5 143t201.5 53q35 0 54.5 -15t19.5 -40q0 -51 -55 -59q-106 -14 -212.5 -81t-166.5 -181q33 26 80 42.5t92 16.5q132 0 215.5 -83t83.5 -212zM440 668q87 0 139 51.5 t52 134.5q0 79 -52.5 129.5t-134.5 50.5q-83 0 -137.5 -50t-54.5 -132q0 -81 51.5 -132.5t136.5 -51.5z"/>
<glyph glyph-name="sevensuperior" unicode="" d="M762 1364q0 -23 -42.5 -87.5t-106.5 -164t-101 -180.5q-39 -88 -59.5 -160.5t-32.5 -163.5q-3 -21 -21.5 -36t-46.5 -15q-27 0 -45 16t-18 43q0 96 69.5 265.5t171.5 322.5l68 103h-342v-125q0 -24 -20.5 -42t-45.5 -18t-44 18t-19 42v182q0 26 19 43.5t44 17.5h510 q27 0 44.5 -18t17.5 -43z"/>
<glyph glyph-name="eightsuperior" unicode="" d="M440 1446q109 0 185.5 -65t76.5 -158q0 -104 -92 -160q73 -32 115.5 -97t42.5 -139q0 -116 -89.5 -195t-238.5 -79t-238 79t-89 195q0 75 42.5 139.5t114.5 96.5q-92 56 -92 160q0 93 76.5 158t185.5 65zM440 1108q59 0 96 34.5t37 80.5t-37.5 78t-95.5 32t-95.5 -32 t-37.5 -78t37 -80.5t96 -34.5zM440 668q83 0 140 47t57 116q0 68 -56.5 117t-140.5 49t-140 -48.5t-56 -117.5t56.5 -116t139.5 -47z"/>
</font>
</defs>
</svg>
